<svg width="19" height="21" viewBox="0 0 19 21" fill="none" xmlns="http://www.w3.org/2000/svg">
<path d="M8.01709 7.3691V7.28597C8.01709 5.90744 9.13461 4.78992 10.5131 4.78992H10.6281C11.9431 4.78992 13.0092 5.85597 13.0092 7.17101V7.17101C13.0092 7.98312 12.5953 8.73923 11.9112 9.17684L11.6363 9.35266C11.0562 9.72376 10.7051 10.365 10.7051 11.0537V11.0537" stroke="#7336BA" stroke-width="1.5" stroke-linecap="round"/>
<rect x="9.9375" y="12.4538" width="1.53603" height="1.47382" rx="0.73691" fill="#7336BA"/>
<path d="M2.54314 8.11384L2.68828 7.9203L2.69298 7.67843C2.76722 3.85495 6.4468 0.75 10.4716 0.75C14.7834 0.75 18.25 4.12489 18.25 8.22995C18.25 10.4361 17.2774 12.4609 15.604 13.8673C14.9552 14.4127 14.4596 15.2289 14.4596 16.1785V19.1176C14.4596 19.2557 14.3477 19.3676 14.2096 19.3676H5.78598C5.64791 19.3676 5.53598 19.2557 5.53598 19.1176V17.2555V16.6713L4.96958 16.5283C3.64502 16.1939 2.69318 15.037 2.69318 13.7166V12.7473V12.1298L2.08716 12.0112C1.72315 11.94 1.40383 11.8709 1.14843 11.7425C0.919746 11.6276 0.804903 11.4978 0.756368 11.309L0.756358 11.309C0.743903 11.2606 0.738647 11.1043 0.847345 10.798C0.949227 10.5108 1.11958 10.1791 1.33032 9.83109C1.68816 9.24023 2.11247 8.68157 2.40103 8.30166C2.45324 8.23291 2.50101 8.17001 2.54314 8.11384Z" stroke="#7336BA" stroke-width="1.5"/>
</svg>
