<svg width="99" height="39" viewBox="0 0 99 39" fill="none" xmlns="http://www.w3.org/2000/svg">
<path d="M0.5 19.5C0.5 9.00659 9.00659 0.5 19.5 0.5H79.5C89.9934 0.5 98.5 9.00659 98.5 19.5C98.5 29.9934 89.9934 38.5 79.5 38.5H19.5C9.00659 38.5 0.5 29.9934 0.5 19.5Z" fill="url(#paint0_radial_635_7305)" fill-opacity="0.5"/>
<path d="M0.5 19.5C0.5 9.00659 9.00659 0.5 19.5 0.5H79.5C89.9934 0.5 98.5 9.00659 98.5 19.5C98.5 29.9934 89.9934 38.5 79.5 38.5H19.5C9.00659 38.5 0.5 29.9934 0.5 19.5Z" stroke="#7336BA"/>
<defs>
<radialGradient id="paint0_radial_635_7305" cx="0" cy="0" r="1" gradientUnits="userSpaceOnUse" gradientTransform="translate(49.5 29.9148) rotate(90) scale(35.0114 88.875)">
<stop offset="0.0885417" stop-color="#9F20F7" stop-opacity="0.88"/>
<stop offset="0.744792" stop-color="#6D2F98" stop-opacity="0.22"/>
</radialGradient>
</defs>
</svg>
