<svg width="19" height="8" viewBox="0 -2 19 8" fill="none" xmlns="http://www.w3.org/2000/svg">
<path d="M1.5 2C1.5 2.26522 1.60536 2.51957 1.79289 2.70711C1.98043 2.89464 2.23478 3 2.5 3C2.76522 3 3.01957 2.89464 3.20711 2.70711C3.39464 2.51957 3.5 2.26522 3.5 2C3.5 1.73478 3.39464 1.48043 3.20711 1.29289C3.01957 1.10536 2.76522 1 2.5 1C2.23478 1 1.98043 1.10536 1.79289 1.29289C1.60536 1.48043 1.5 1.73478 1.5 2ZM8.5 2C8.5 2.26522 8.60536 2.51957 8.79289 2.70711C8.98043 2.89464 9.23478 3 9.5 3C9.76522 3 10.0196 2.89464 10.2071 2.70711C10.3946 2.51957 10.5 2.26522 10.5 2C10.5 1.73478 10.3946 1.48043 10.2071 1.29289C10.0196 1.10536 9.76522 1 9.5 1C9.23478 1 8.98043 1.10536 8.79289 1.29289C8.60536 1.48043 8.5 1.73478 8.5 2ZM15.5 2C15.5 2.26522 15.6054 2.51957 15.7929 2.70711C15.9804 2.89464 16.2348 3 16.5 3C16.7652 3 17.0196 2.89464 17.2071 2.70711C17.3946 2.51957 17.5 2.26522 17.5 2C17.5 1.73478 17.3946 1.48043 17.2071 1.29289C17.0196 1.10536 16.7652 1 16.5 1C16.2348 1 15.9804 1.10536 15.7929 1.29289C15.6054 1.48043 15.5 1.73478 15.5 2Z" stroke="white" stroke-width="2" stroke-linecap="round" stroke-linejoin="round"/>
</svg>