<svg width="34" height="34" viewBox="0 0 34 34" fill="none" xmlns="http://www.w3.org/2000/svg">
<g opacity="0.7">
<path d="M12.4193 10.781C12.1996 10.5763 11.9089 10.4648 11.6087 10.4701C11.3084 10.4754 11.0219 10.5971 10.8095 10.8094C10.5971 11.0218 10.4755 11.3083 10.4702 11.6086C10.4649 11.9089 10.5764 12.1995 10.7811 12.4192L15.3603 16.9999L10.7811 21.5791C10.6672 21.6852 10.5759 21.8132 10.5125 21.9554C10.4492 22.0976 10.4151 22.251 10.4124 22.4067C10.4096 22.5623 10.4383 22.7169 10.4966 22.8612C10.5549 23.0055 10.6416 23.1367 10.7517 23.2467C10.8618 23.3568 10.9929 23.4436 11.1372 23.5018C11.2815 23.5601 11.4361 23.5888 11.5917 23.586C11.7474 23.5833 11.9009 23.5492 12.043 23.4859C12.1852 23.4225 12.3132 23.3312 12.4193 23.2173L17 18.6381L21.5792 23.2188C21.7977 23.4301 22.0904 23.5471 22.3944 23.5446C22.6983 23.5421 22.989 23.4203 23.204 23.2055C23.4191 22.9907 23.5411 22.7 23.5439 22.3961C23.5467 22.0922 23.43 21.7994 23.2189 21.5807L18.6397 16.9999L23.2189 12.4192C23.3328 12.3131 23.4241 12.1851 23.4875 12.0429C23.5508 11.9008 23.5849 11.7473 23.5877 11.5916C23.5904 11.436 23.5618 11.2814 23.5035 11.1371C23.4452 10.9928 23.3584 10.8617 23.2484 10.7516C23.1383 10.6415 23.0072 10.5548 22.8629 10.4965C22.7185 10.4382 22.5639 10.4095 22.4083 10.4123C22.2527 10.415 22.0992 10.4491 21.957 10.5125C21.8148 10.5758 21.6869 10.6671 21.5807 10.781L17 15.3602L12.4193 10.781Z" fill="#454FB1"/>
</g>
</svg>
