<svg width="18" height="18" viewBox="0 0 18 18" fill="none" xmlns="http://www.w3.org/2000/svg">
    <path
        d="M16.1401 7.15348C16.1401 6.96986 16.0673 6.79376 15.9378 6.66393C15.8082 6.53409 15.6324 6.46115 15.4492 6.46115C15.2659 6.46115 15.0901 6.53409 14.9606 6.66393C14.831 6.79376 14.7582 6.96986 14.7582 7.15348H16.1401ZM3.24182 7.15348C3.24182 6.96986 3.16902 6.79376 3.03943 6.66393C2.90985 6.53409 2.7341 6.46115 2.55084 6.46115C2.36758 6.46115 2.19182 6.53409 2.06224 6.66393C1.93265 6.79376 1.85985 6.96986 1.85985 7.15348H3.24182ZM16.8035 9.48894C16.8667 9.55696 16.943 9.61152 17.0278 9.64936C17.1126 9.6872 17.2041 9.70755 17.2968 9.70919C17.3896 9.71083 17.4818 9.69373 17.5678 9.65891C17.6538 9.62409 17.732 9.57226 17.7976 9.50652C17.8632 9.44077 17.915 9.36246 17.9497 9.27626C17.9845 9.19005 18.0015 9.09771 17.9999 9.00475C17.9983 8.91179 17.9779 8.82012 17.9402 8.73519C17.9024 8.65026 17.848 8.57383 17.7801 8.51045L16.8035 9.48894ZM9 0.691722L9.48829 0.202475C9.35873 0.0728237 9.18311 0 9 0C8.81689 0 8.64127 0.0728237 8.51171 0.202475L9 0.691722ZM0.219924 8.51045C0.152036 8.57383 0.0975845 8.65026 0.0598183 8.73519C0.022052 8.82012 0.0017445 8.91179 0.000107536 9.00475C-0.00152943 9.09771 0.0155375 9.19005 0.0502902 9.27626C0.0850429 9.36246 0.136769 9.44077 0.202384 9.50652C0.267998 9.57226 0.346157 9.62409 0.432196 9.65891C0.518236 9.69373 0.610393 9.71083 0.703172 9.70919C0.79595 9.70755 0.887448 9.6872 0.972208 9.64936C1.05697 9.61152 1.13325 9.55696 1.19651 9.48894L0.219924 8.51045ZM4.39345 18H13.6065V16.6153H4.39345V18ZM16.1401 15.4615V7.15348H14.7582V15.4615H16.1401ZM3.24182 15.4615V7.15348H1.85985V15.4615H3.24182ZM17.7801 8.51045L9.48829 0.202475L8.51171 1.18097L16.8035 9.48894L17.7801 8.51045ZM8.51171 0.202475L0.219924 8.51045L1.19651 9.48894L9.48829 1.18097L8.51171 0.202475ZM13.6065 18C14.2785 18 14.9229 17.7325 15.3981 17.2565C15.8732 16.7804 16.1401 16.1347 16.1401 15.4615H14.7582C14.7582 16.0984 14.2422 16.6153 13.6065 16.6153V18ZM4.39345 16.6153C3.75775 16.6153 3.24182 16.0984 3.24182 15.4615H1.85985C1.85985 16.1347 2.12679 16.7804 2.60193 17.2565C3.07707 17.7325 3.7215 18 4.39345 18V16.6153Z"
        fill="#454FB1" />
</svg>
