<svg width="15" height="15" viewBox="0 0 15 15" fill="none" xmlns="http://www.w3.org/2000/svg">
<path d="M1.34793 6.54526C1.10712 6.55376 0.879019 6.65539 0.711672 6.82875C0.544325 7.00211 0.450799 7.23366 0.450799 7.47461C0.450799 7.71556 0.544325 7.94711 0.711672 8.12047C0.879019 8.29383 1.10712 8.39546 1.34793 8.40396L6.54441 8.40484L6.54441 13.6004C6.54 13.7252 6.56078 13.8497 6.6055 13.9663C6.65022 14.0829 6.71797 14.1893 6.8047 14.2791C6.89143 14.369 6.99537 14.4404 7.11032 14.4892C7.22527 14.538 7.34888 14.5632 7.47376 14.5632C7.59864 14.5632 7.72224 14.538 7.83719 14.4892C7.95214 14.4404 8.05608 14.369 8.14281 14.2791C8.22955 14.1893 8.2973 14.0829 8.34202 13.9663C8.38674 13.8497 8.40752 13.7252 8.40311 13.6004L8.40399 8.40396L13.6005 8.40484C13.8443 8.40072 14.0767 8.30101 14.2477 8.12718C14.4187 7.95335 14.5146 7.71931 14.5147 7.47548C14.5148 7.23164 14.4191 6.99752 14.2483 6.82353C14.0775 6.64954 13.8451 6.54961 13.6013 6.54526L8.40486 6.54438L8.40399 1.3479C8.40839 1.2231 8.38761 1.09868 8.34289 0.982084C8.29817 0.865484 8.23043 0.759086 8.14369 0.669237C8.05696 0.579389 7.95302 0.507931 7.83807 0.459125C7.72312 0.410319 7.59952 0.385164 7.47463 0.385164C7.34975 0.385164 7.22615 0.410318 7.1112 0.459125C6.99625 0.50793 6.89231 0.579389 6.80558 0.669237C6.71884 0.759086 6.6511 0.865483 6.60638 0.982083C6.56165 1.09868 6.54088 1.2231 6.54528 1.3479L6.54441 6.54438L1.34793 6.54526Z" fill="#454FB1"/>
</svg>
