<svg width="34" height="34" viewBox="0 0 34 34" fill="none" xmlns="http://www.w3.org/2000/svg">
<g filter="url(#filter0_b_669_1778)">
<path d="M33.25 17C33.25 25.9746 25.9746 33.25 17 33.25C8.02537 33.25 0.75 25.9746 0.75 17C0.75 8.02537 8.02537 0.75 17 0.75C25.9746 0.75 33.25 8.02537 33.25 17Z" stroke="#454FB1" stroke-width="1.5"/>
</g>
<g clip-path="url(#clip0_669_1778)">
<path d="M22.8333 10.9585C23.0433 10.9585 23.2447 11.0419 23.3931 11.1904C23.5416 11.3388 23.625 11.5402 23.625 11.7502C23.625 11.9601 23.5416 12.1615 23.3931 12.31C23.2447 12.4584 23.0433 12.5418 22.8333 12.5418H22.0417L22.0393 12.598L21.3007 22.9459C21.2722 23.3454 21.0935 23.7192 20.8004 23.9922C20.5074 24.2651 20.1218 24.4168 19.7213 24.4168H13.2779C12.8774 24.4168 12.4918 24.2651 12.1988 23.9922C11.9057 23.7192 11.727 23.3454 11.6985 22.9459L10.9599 12.5988C10.9587 12.5799 10.9582 12.5608 10.9583 12.5418H10.1667C9.9567 12.5418 9.75534 12.4584 9.60687 12.31C9.45841 12.1615 9.375 11.9601 9.375 11.7502C9.375 11.5402 9.45841 11.3388 9.60687 11.1904C9.75534 11.0419 9.9567 10.9585 10.1667 10.9585H22.8333ZM20.456 12.5418H12.544L13.2787 22.8335H19.7213L20.456 12.5418ZM18.0833 8.5835C18.2933 8.5835 18.4947 8.6669 18.6431 8.81537C18.7916 8.96384 18.875 9.1652 18.875 9.37516C18.875 9.58513 18.7916 9.78649 18.6431 9.93496C18.4947 10.0834 18.2933 10.1668 18.0833 10.1668H14.9167C14.7067 10.1668 14.5053 10.0834 14.3569 9.93496C14.2084 9.78649 14.125 9.58513 14.125 9.37516C14.125 9.1652 14.2084 8.96384 14.3569 8.81537C14.5053 8.6669 14.7067 8.5835 14.9167 8.5835H18.0833Z" fill="#454FB1"/>
</g>
<defs>
<filter id="filter0_b_669_1778" x="-30" y="-30" width="94" height="94" filterUnits="userSpaceOnUse" color-interpolation-filters="sRGB">
<feFlood flood-opacity="0" result="BackgroundImageFix"/>
<feGaussianBlur in="BackgroundImageFix" stdDeviation="15"/>
<feComposite in2="SourceAlpha" operator="in" result="effect1_backgroundBlur_669_1778"/>
<feBlend mode="normal" in="SourceGraphic" in2="effect1_backgroundBlur_669_1778" result="shape"/>
</filter>
<clipPath id="clip0_669_1778">
<rect width="19" height="19" fill="white" transform="translate(7 7)"/>
</clipPath>
</defs>
</svg>
