<svg width="18" height="18" viewBox="0 0 18 18" fill="none" xmlns="http://www.w3.org/2000/svg">
<path d="M16.0155 1.98443C15.7417 1.71057 15.4166 1.49333 15.0588 1.34511C14.7011 1.19689 14.3176 1.12061 13.9303 1.12061C13.543 1.12061 13.1596 1.19689 12.8018 1.34511C12.444 1.49333 12.1189 1.71057 11.8451 1.98443L2.98912 10.8404C2.56852 11.2613 2.26859 11.7874 2.12062 12.3637L1.14187 16.1729C1.1176 16.2677 1.11847 16.3672 1.1444 16.4615C1.17032 16.5559 1.2204 16.6418 1.2897 16.7109C1.35899 16.7799 1.4451 16.8297 1.53953 16.8554C1.63395 16.881 1.73343 16.8815 1.82812 16.8569L5.63625 15.8793C6.21268 15.7316 6.73879 15.4316 7.1595 15.0108L16.0155 6.15481C16.2894 5.88099 16.5066 5.55592 16.6548 5.19814C16.803 4.84036 16.8793 4.45689 16.8793 4.06962C16.8793 3.68235 16.803 3.29888 16.6548 2.9411C16.5066 2.58332 16.2894 2.25824 16.0155 1.98443ZM12.6405 2.77981C12.9826 2.43773 13.4465 2.24555 13.9303 2.24555C14.4141 2.24555 14.878 2.43773 15.2201 2.77981C15.5622 3.12189 15.7544 3.58585 15.7544 4.06962C15.7544 4.55339 15.5622 5.01735 15.2201 5.35943L14.3438 6.23581L11.7641 3.65618L12.6405 2.77981ZM10.9688 4.45156L13.5484 7.03118L6.36413 14.2154C6.08555 14.4935 5.73743 14.6916 5.35613 14.7892L2.46825 15.5317L3.21075 12.6438C3.30758 12.2622 3.50584 11.9139 3.7845 11.6358L10.9688 4.45156Z" fill="#454FB1"/>
</svg>
