<svg width="71" height="71" viewBox="0 0 71 71" fill="none" xmlns="http://www.w3.org/2000/svg">
<g filter="url(#filter0_b_175_6671)">
<path d="M71 35.5C71 55.1061 55.1061 71 35.5 71C15.8939 71 0 55.1061 0 35.5C0 15.8939 15.8939 0 35.5 0C55.1061 0 71 15.8939 71 35.5Z" fill="url(#paint0_radial_175_6671)" fill-opacity="0.5"/>
<path d="M70.25 35.5C70.25 54.6919 54.6919 70.25 35.5 70.25C16.3081 70.25 0.75 54.6919 0.75 35.5C0.75 16.3081 16.3081 0.75 35.5 0.75C54.6919 0.75 70.25 16.3081 70.25 35.5Z" stroke="#7336BA" stroke-width="1.5"/>
</g>
<defs>
<filter id="filter0_b_175_6671" x="-30" y="-30" width="131" height="131" filterUnits="userSpaceOnUse" color-interpolation-filters="sRGB">
<feFlood flood-opacity="0" result="BackgroundImageFix"/>
<feGaussianBlur in="BackgroundImageFix" stdDeviation="15"/>
<feComposite in2="SourceAlpha" operator="in" result="effect1_backgroundBlur_175_6671"/>
<feBlend mode="normal" in="SourceGraphic" in2="effect1_backgroundBlur_175_6671" result="shape"/>
</filter>
<radialGradient id="paint0_radial_175_6671" cx="0" cy="0" r="1" gradientUnits="userSpaceOnUse" gradientTransform="translate(35.5 54.4602) rotate(90) scale(63.7386)">
<stop offset="0.0885417" stop-color="#9F20F7" stop-opacity="0.88"/>
<stop offset="0.744792" stop-color="#6D2F98" stop-opacity="0.22"/>
</radialGradient>
</defs>
</svg>
