<svg width="26" height="26" viewBox="0 0 26 26" fill="none" xmlns="http://www.w3.org/2000/svg">
<path d="M25.2047 15.2693C25.0765 15.1407 24.9156 15.0496 24.7394 15.0055C24.5632 14.9615 24.3784 14.9662 24.2047 15.0193C22.2979 15.5957 20.2705 15.6441 18.3384 15.1591C16.4063 14.6742 14.642 13.6742 13.2334 12.2656C11.8249 10.857 10.8248 9.0927 10.3399 7.16061C9.85495 5.22852 9.90328 3.20107 10.4797 1.29428C10.5332 1.12053 10.5384 0.935489 10.4945 0.759047C10.4507 0.582606 10.3597 0.421444 10.2311 0.292893C10.1026 0.164343 9.94141 0.0732679 9.76497 0.0294632C9.58852 -0.0143415 9.40348 -0.0092185 9.22973 0.0442811C6.59352 0.851837 4.27915 2.47027 2.61598 4.66928C1.1615 6.60035 0.2743 8.89875 0.0540626 11.3062C-0.166175 13.7137 0.289275 16.135 1.36924 18.2979C2.44921 20.4608 4.11091 22.2797 6.16765 23.5503C8.22439 24.8209 10.5947 25.4928 13.0122 25.4905C15.8327 25.4992 18.5781 24.5823 20.8272 22.8805C23.0262 21.2174 24.6447 18.903 25.4522 16.2668C25.5051 16.0937 25.51 15.9095 25.4664 15.7338C25.4228 15.5581 25.3324 15.3976 25.2047 15.2693ZM19.6247 21.283C17.5067 22.8784 14.8836 23.6549 12.2384 23.4697C9.59324 23.2845 7.10399 22.15 5.22891 20.275C3.35382 18.4001 2.21913 15.9109 2.03369 13.2658C1.84826 10.6206 2.62458 7.99748 4.21973 5.87928C5.25899 4.50686 6.60256 3.39434 8.14473 2.62928C8.05688 3.24581 8.0126 3.86777 8.01223 4.49053C8.01587 7.93723 9.38668 11.2417 11.8239 13.6789C14.261 16.1161 17.5655 17.4869 21.0122 17.4905C21.6362 17.4903 22.2595 17.4461 22.8772 17.358C22.1115 18.9005 20.9981 20.2441 19.6247 21.283Z" fill="white"/>
</svg>
