<svg width="15" height="25" viewBox="0 0 15 25" fill="none" xmlns="http://www.w3.org/2000/svg">
<path fill-rule="evenodd" clip-rule="evenodd" d="M2.06086 2.06086C3.38041 0.741315 5.17011 0 7.03623 0C8.90236 0 10.692 0.741315 12.0116 2.06086C13.3311 3.38041 14.0725 5.17011 14.0725 7.03623C14.0725 8.72832 13.6456 9.97629 12.9414 10.9537L12.9402 10.9554C12.2627 11.9041 11.3707 12.5334 10.6226 13.0462L10.5424 13.1022L10.5392 13.1044L10.5011 13.1306C9.76849 13.6337 9.19315 14.0288 8.75945 14.5587L8.75733 14.5614C8.34836 15.068 8.04348 15.7344 8.04348 16.8333V17.587C8.04348 17.8541 7.93736 18.1103 7.74846 18.2992C7.55957 18.4881 7.30337 18.5942 7.03623 18.5942C6.76909 18.5942 6.5129 18.4881 6.324 18.2992C6.13511 18.1103 6.02899 17.8541 6.02899 17.587V16.8333C6.02899 15.2937 6.47822 14.172 7.19655 13.2888C7.81583 12.5279 8.62303 11.9733 9.30345 11.5075L9.47664 11.3911L9.48155 11.3877C10.2361 10.8672 10.8523 10.4124 11.304 9.7831L11.3048 9.78193C11.732 9.18322 12.058 8.35859 12.058 7.03623C12.058 4.26108 9.81139 2.01449 7.03623 2.01449C4.26108 2.01449 2.01449 4.26108 2.01449 7.03623C2.01449 7.30337 1.90837 7.55957 1.71948 7.74846C1.53058 7.93736 1.27438 8.04348 1.00725 8.04348C0.740108 8.04348 0.483911 7.93736 0.295016 7.74846C0.10612 7.55957 0 7.30337 0 7.03623C0 5.17011 0.741315 3.38041 2.06086 2.06086ZM6.05756 22.6373C6.31712 22.3777 6.66916 22.2319 7.03623 22.2319C7.40331 22.2319 7.75535 22.3777 8.01491 22.6373C8.27447 22.8968 8.42029 23.2489 8.42029 23.6159C8.42029 23.983 8.27447 24.3351 8.01491 24.5946C7.75535 24.8542 7.40331 25 7.03623 25C6.66916 25 6.31712 24.8542 6.05756 24.5946C5.79799 24.3351 5.65217 23.983 5.65217 23.6159C5.65217 23.2489 5.79799 22.8968 6.05756 22.6373Z" fill="#454FB1"/>
</svg>
