<svg width="28" height="28" viewBox="0 0 28 28" fill="none" xmlns="http://www.w3.org/2000/svg">
<path d="M17.7136 18.339L18.9529 21.004C18.9529 21.004 24.5241 22.187 24.5241 25.0008C24.5241 26.9999 22.0454 26.9999 22.0454 26.9999H15.4443L12.1943 25.1943" stroke="#454FB1" stroke-width="2" stroke-linecap="round" stroke-linejoin="round"/>
<path d="M10.2863 18.339L9.04837 21.004C9.04837 21.004 3.47571 22.187 3.47571 25.0008C3.47571 26.9999 5.95437 26.9999 5.95437 26.9999H8.94438L12.1944 25.1943L16.1666 22.6665" stroke="#454FB1" stroke-width="2" stroke-linecap="round" stroke-linejoin="round"/>
<path d="M1 19.6709C1 19.6709 4.09544 19.005 5.953 18.3391C7.80911 9.01089 13.3789 9.67678 14 9.67678C14.6197 9.67678 20.1909 9.01089 22.047 18.3391C23.9046 19.0036 27 19.6709 27 19.6709M14 6.77778C14.7662 6.77778 15.501 6.47341 16.0428 5.93164C16.5845 5.38987 16.8889 4.65507 16.8889 3.88889C16.8889 3.12271 16.5845 2.38791 16.0428 1.84614C15.501 1.30436 14.7662 1 14 1C13.2338 1 12.499 1.30436 11.9572 1.84614C11.4155 2.38791 11.1111 3.12271 11.1111 3.88889C11.1111 4.65507 11.4155 5.38987 11.9572 5.93164C12.499 6.47341 13.2338 6.77778 14 6.77778Z" stroke="#454FB1" stroke-width="2" stroke-linecap="round" stroke-linejoin="round"/>
</svg>
