<svg width="46" height="35" viewBox="0 0 46 35" fill="none" xmlns="http://www.w3.org/2000/svg">
<path d="M14.2302 28.3688L4.63824 18.6272C4.38741 18.3693 4.08869 18.1646 3.75938 18.0249C3.43007 17.8852 3.07673 17.8132 2.71984 17.8132C2.36295 17.8132 2.00961 17.8852 1.6803 18.0249C1.351 18.1646 1.05227 18.3693 0.801448 18.6272C0.547563 18.8819 0.345991 19.1853 0.208416 19.5197C0.0708409 19.8542 0 20.213 0 20.5755C0 20.9379 0.0708409 21.2968 0.208416 21.6312C0.345991 21.9657 0.547563 22.2691 0.801448 22.5238L12.2844 34.1859C13.3532 35.2714 15.0798 35.2714 16.1486 34.1859L45.1985 4.71059C45.4524 4.45585 45.654 4.15247 45.7916 3.81802C45.9292 3.48358 46 3.12473 46 2.76227C46 2.39981 45.9292 2.04096 45.7916 1.70652C45.654 1.37207 45.4524 1.06869 45.1985 0.813951C44.9477 0.556105 44.649 0.351388 44.3197 0.211666C43.9904 0.0719453 43.6371 0 43.2802 0C42.9233 0 42.5699 0.0719453 42.2406 0.211666C41.9113 0.351388 41.6126 0.556105 41.3618 0.813951L14.2302 28.3688Z" fill="white"/>
</svg>
