<svg xmlns="http://www.w3.org/2000/svg" fill="none" viewBox="13 13 50 50">
<g filter="url(#filter0_b_2523_2800)">
<path d="M62.25 38C62.25 51.3929 51.3929 62.25 38 62.25C24.6071 62.25 13.75 51.3929 13.75 38C13.75 24.6071 24.6071 13.75 38 13.75C51.3929 13.75 62.25 24.6071 62.25 38Z" stroke="#454FB1" stroke-width="1.5"/>
</g>
<path d="M26.7176 42V33.6H29.8616C30.5736 33.6 31.1856 33.716 31.6976 33.948C32.2096 34.172 32.6016 34.5 32.8736 34.932C33.1536 35.356 33.2936 35.872 33.2936 36.48C33.2936 37.072 33.1536 37.584 32.8736 38.016C32.6016 38.44 32.2096 38.768 31.6976 39C31.1856 39.224 30.5736 39.336 29.8616 39.336H27.2096L27.6056 38.928V42H26.7176ZM32.4536 42L30.2936 38.952H31.2536L33.4256 42H32.4536ZM27.6056 39L27.2096 38.58H29.8376C30.6776 38.58 31.3136 38.396 31.7456 38.028C32.1856 37.66 32.4056 37.144 32.4056 36.48C32.4056 35.808 32.1856 35.288 31.7456 34.92C31.3136 34.552 30.6776 34.368 29.8376 34.368H27.2096L27.6056 33.948V39ZM36.1815 37.356H40.6215V38.112H36.1815V37.356ZM36.2775 41.232H41.3295V42H35.3895V33.6H41.1495V34.368H36.2775V41.232ZM47.0414 42.072C46.4094 42.072 45.8254 41.968 45.2894 41.76C44.7534 41.544 44.2894 41.244 43.8974 40.86C43.5054 40.476 43.1974 40.024 42.9734 39.504C42.7574 38.984 42.6494 38.416 42.6494 37.8C42.6494 37.184 42.7574 36.616 42.9734 36.096C43.1974 35.576 43.5054 35.124 43.8974 34.74C44.2974 34.356 44.7654 34.06 45.3014 33.852C45.8374 33.636 46.4214 33.528 47.0534 33.528C47.6614 33.528 48.2334 33.632 48.7694 33.84C49.3054 34.04 49.7574 34.344 50.1254 34.752L49.5614 35.316C49.2174 34.964 48.8374 34.712 48.4214 34.56C48.0054 34.4 47.5574 34.32 47.0774 34.32C46.5734 34.32 46.1054 34.408 45.6734 34.584C45.2414 34.752 44.8654 34.996 44.5454 35.316C44.2254 35.628 43.9734 35.996 43.7894 36.42C43.6134 36.836 43.5254 37.296 43.5254 37.8C43.5254 38.304 43.6134 38.768 43.7894 39.192C43.9734 39.608 44.2254 39.976 44.5454 40.296C44.8654 40.608 45.2414 40.852 45.6734 41.028C46.1054 41.196 46.5734 41.28 47.0774 41.28C47.5574 41.28 48.0054 41.2 48.4214 41.04C48.8374 40.88 49.2174 40.624 49.5614 40.272L50.1254 40.836C49.7574 41.244 49.3054 41.552 48.7694 41.76C48.2334 41.968 47.6574 42.072 47.0414 42.072Z" fill="#454FB1"/>
<defs>
<filter id="filter0_b_2523_2800" x="-17" y="-17" width="110" height="110" filterUnits="userSpaceOnUse" color-interpolation-filters="sRGB">
<feFlood flood-opacity="0" result="BackgroundImageFix"/>
<feGaussianBlur in="BackgroundImageFix" stdDeviation="15"/>
<feComposite in2="SourceAlpha" operator="in" result="effect1_backgroundBlur_2523_2800"/>
<feBlend mode="normal" in="SourceGraphic" in2="effect1_backgroundBlur_2523_2800" result="shape"/>
</filter>
</defs>
</svg>