<svg width="125" height="125" viewBox="0 0 125 125" fill="none" xmlns="http://www.w3.org/2000/svg">
<g filter="url(#filter0_b_1_19)">
<path fill-rule="evenodd" clip-rule="evenodd" d="M0 62.5C0 28.1795 27.8223 0 62.1429 0V0C96.4634 0 124.286 28.1795 124.286 62.5V62.5C124.286 96.8205 96.4634 125 62.1429 125V125C27.8223 125 0 96.8205 0 62.5V62.5Z" fill="#10142C" fill-opacity="0.8"/>
</g>
<path d="M53.2302 73.3688L43.6382 63.6272C43.3874 63.3693 43.0887 63.1646 42.7594 63.0249C42.4301 62.8852 42.0767 62.8132 41.7198 62.8132C41.363 62.8132 41.0096 62.8852 40.6803 63.0249C40.351 63.1646 40.0523 63.3693 39.8014 63.6272C39.5476 63.8819 39.346 64.1853 39.2084 64.5197C39.0708 64.8542 39 65.213 39 65.5755C39 65.9379 39.0708 66.2968 39.2084 66.6312C39.346 66.9657 39.5476 67.2691 39.8014 67.5238L51.2844 79.1859C52.3532 80.2714 54.0798 80.2714 55.1486 79.1859L84.1985 49.7106C84.4524 49.4559 84.654 49.1525 84.7916 48.818C84.9292 48.4836 85 48.1247 85 47.7623C85 47.3998 84.9292 47.041 84.7916 46.7065C84.654 46.3721 84.4524 46.0687 84.1985 45.814C83.9477 45.5561 83.649 45.3514 83.3197 45.2117C82.9904 45.0719 82.637 45 82.2802 45C81.9233 45 81.5699 45.0719 81.2406 45.2117C80.9113 45.3514 80.6126 45.5561 80.3618 45.814L53.2302 73.3688Z" fill="white"/>
<defs>
<filter id="filter0_b_1_19" x="-40" y="-40" width="204.286" height="205" filterUnits="userSpaceOnUse" color-interpolation-filters="sRGB">
<feFlood flood-opacity="0" result="BackgroundImageFix"/>
<feGaussianBlur in="BackgroundImageFix" stdDeviation="20"/>
<feComposite in2="SourceAlpha" operator="in" result="effect1_backgroundBlur_1_19"/>
<feBlend mode="normal" in="SourceGraphic" in2="effect1_backgroundBlur_1_19" result="shape"/>
</filter>
</defs>
</svg>
