<svg width="28" height="28" viewBox="0 0 28 28" fill="none" xmlns="http://www.w3.org/2000/svg">
<path d="M1 14H2.44444M14 1V2.44444M25.5556 14H27M4.75556 4.75556L5.76667 5.76667M23.2444 4.75556L22.2333 5.76667M10.6778 21.2222H17.3222M9.66667 19.7778C8.45401 18.8683 7.55826 17.6003 7.10629 16.1534C6.65432 14.7066 6.66905 13.1542 7.1484 11.7161C7.62774 10.2781 8.5474 9.02734 9.77709 8.14103C11.0068 7.25471 12.4842 6.77778 14 6.77778C15.5158 6.77778 16.9932 7.25471 18.2229 8.14103C19.4526 9.02734 20.3723 10.2781 20.8516 11.7161C21.3309 13.1542 21.3457 14.7066 20.8937 16.1534C20.4417 17.6003 19.546 18.8683 18.3333 19.7778C17.7694 20.336 17.3448 21.0192 17.0938 21.772C16.8429 22.5248 16.7727 23.3261 16.8889 24.1111C16.8889 24.8773 16.5845 25.6121 16.0428 26.1539C15.501 26.6956 14.7662 27 14 27C13.2338 27 12.499 26.6956 11.9572 26.1539C11.4155 25.6121 11.1111 24.8773 11.1111 24.1111C11.2273 23.3261 11.1571 22.5248 10.9062 21.772C10.6552 21.0192 10.2306 20.336 9.66667 19.7778Z" stroke="#454FB1" stroke-width="2" stroke-linecap="round" stroke-linejoin="round"/>
</svg>
