<svg width="26" height="18" viewBox="0 0 26 18" fill="none" xmlns="http://www.w3.org/2000/svg">
<path d="M16 5L16.3193 4.89947C18.1736 4.31571 20.1675 4.35099 22 5V5" stroke="#7336BA" stroke-width="1.5" stroke-linecap="round"/>
<path d="M4 5L4.31933 4.89947C6.17363 4.31571 8.16751 4.35099 10 5V5" stroke="#7336BA" stroke-width="1.5" stroke-linecap="round"/>
<path d="M16 8L16.3193 7.89947C18.1736 7.31571 20.1675 7.35099 22 8V8" stroke="#7336BA" stroke-width="1.5" stroke-linecap="round"/>
<path d="M4 8L4.31933 7.89947C6.17363 7.31571 8.16751 7.35099 10 8V8" stroke="#7336BA" stroke-width="1.5" stroke-linecap="round"/>
<path d="M16 11L16.3193 10.8995C18.1736 10.3157 20.1675 10.351 22 11V11" stroke="#7336BA" stroke-width="1.5" stroke-linecap="round"/>
<path d="M4 11L4.31933 10.8995C6.17363 10.3157 8.16751 10.351 10 11V11" stroke="#7336BA" stroke-width="1.5" stroke-linecap="round"/>
<path d="M25.25 2.35964V2.3625V15.9187C25.25 16.0737 25.2081 16.1606 25.0451 16.2562C24.8913 16.3463 24.7619 16.3586 24.5652 16.2617C23.7883 15.8624 22.9749 15.5529 22.1259 15.3333C21.2669 15.1111 20.3911 15 19.5 15C18.233 15 17.0053 15.2114 15.8206 15.6343C14.819 15.9918 13.8784 16.4728 13 17.0761C12.1216 16.4728 11.181 15.9918 10.1794 15.6343C8.99471 15.2114 7.76695 15 6.5 15C5.60965 15 4.73389 15.1111 3.87426 15.3332C3.02433 15.5529 2.21065 15.8625 1.43426 16.2619C1.23889 16.3584 1.11008 16.3464 0.95611 16.2562C0.792917 16.1605 0.750388 16.0731 0.75 15.918V2.3625C0.75 2.29521 0.765946 2.22735 0.811898 2.1481C0.833233 2.11131 0.866515 2.07364 0.948749 2.03793L0.966388 2.03027L0.983612 2.02172C1.83676 1.59799 2.72631 1.28047 3.6534 1.06866C4.58269 0.856355 5.53118 0.75 6.5 0.75C7.58015 0.75 8.63536 0.882868 9.66719 1.14824C10.6968 1.41303 11.6851 1.81037 12.6333 2.34177L12.9999 2.54716L13.3664 2.34189C14.3156 1.81041 15.3044 1.41304 16.334 1.14824C17.3659 0.882857 18.4207 0.75 19.5 0.75C20.4688 0.75 21.4173 0.856355 22.3466 1.06866C23.2737 1.28047 24.1632 1.59799 25.0164 2.02172L25.0341 2.03049L25.0522 2.03833C25.1353 2.07432 25.1684 2.11208 25.1893 2.1481C25.2348 2.22655 25.2502 2.29337 25.25 2.35964Z" stroke="#7336BA" stroke-width="1.5"/>
</svg>
