<svg width="25" height="19" viewBox="0 0 25 19" fill="none" xmlns="http://www.w3.org/2000/svg">
<path d="M1.57709 10.7669C1.08712 9.98193 1.08712 9.01807 1.57709 8.23312C2.406 6.9052 3.76718 5.01607 5.57821 3.46627C7.38909 1.91661 9.59658 0.75 12.1389 0.75C14.6812 0.75 16.8887 1.91661 18.6996 3.46627C20.5106 5.01606 21.8718 6.9052 22.7007 8.23312C23.1907 9.01807 23.1907 9.98193 22.7007 10.7669C21.8718 12.0948 20.5106 13.9839 18.6996 15.5337C16.8887 17.0834 14.6812 18.25 12.1389 18.25C9.59658 18.25 7.38909 17.0834 5.57821 15.5337C3.76718 13.9839 2.406 12.0948 1.57709 10.7669Z" stroke="#7336BA" stroke-width="1.5"/>
<mask id="path-2-inside-1_683_1976" fill="white">
<path fill-rule="evenodd" clip-rule="evenodd" d="M12.6624 5.03238C12.0156 4.95204 11.356 5.02126 10.7329 5.23932C9.86191 5.54413 9.10653 6.12421 8.57439 6.89692C8.04225 7.66963 7.76049 8.59557 7.76924 9.54282C7.77799 10.4901 8.07682 11.4103 8.62314 12.1725C9.16946 12.9346 9.93542 13.4998 10.8119 13.7875C11.6884 14.0751 12.6307 14.0707 13.5045 13.7747C14.3784 13.4787 15.1392 12.9063 15.6787 12.139C16.1108 11.5244 16.3833 10.8098 16.4747 10.063C15.9842 10.3749 15.4021 10.5556 14.7778 10.5556C13.0289 10.5556 11.6111 9.13779 11.6111 7.38889C11.6111 6.45309 12.017 5.6121 12.6624 5.03238Z"/>
</mask>
<path fill-rule="evenodd" clip-rule="evenodd" d="M12.6624 5.03238C12.0156 4.95204 11.356 5.02126 10.7329 5.23932C9.86191 5.54413 9.10653 6.12421 8.57439 6.89692C8.04225 7.66963 7.76049 8.59557 7.76924 9.54282C7.77799 10.4901 8.07682 11.4103 8.62314 12.1725C9.16946 12.9346 9.93542 13.4998 10.8119 13.7875C11.6884 14.0751 12.6307 14.0707 13.5045 13.7747C14.3784 13.4787 15.1392 12.9063 15.6787 12.139C16.1108 11.5244 16.3833 10.8098 16.4747 10.063C15.9842 10.3749 15.4021 10.5556 14.7778 10.5556C13.0289 10.5556 11.6111 9.13779 11.6111 7.38889C11.6111 6.45309 12.017 5.6121 12.6624 5.03238Z" fill="#7336BA"/>
<path d="M12.6624 5.03238L13.6648 6.14828L16.1127 3.94941L12.8473 3.54382L12.6624 5.03238ZM10.7329 5.23932L10.2374 3.82351L10.7329 5.23932ZM8.57439 6.89692L9.80978 7.74769L8.57439 6.89692ZM7.76924 9.54282L6.2693 9.55667L7.76924 9.54282ZM8.62314 12.1725L7.404 13.0464L7.404 13.0464L8.62314 12.1725ZM10.8119 13.7875L11.2797 12.3623L11.2797 12.3623L10.8119 13.7875ZM15.6787 12.139L16.9058 13.0017H16.9058L15.6787 12.139ZM16.4747 10.063L17.9636 10.2453L18.3496 7.09313L15.6698 8.79722L16.4747 10.063ZM12.8473 3.54382C11.9716 3.43506 11.0792 3.52893 10.2374 3.82351L11.2284 6.65513C11.6328 6.51359 12.0595 6.46902 12.4775 6.52094L12.8473 3.54382ZM10.2374 3.82351C9.06076 4.23529 8.04837 5.01609 7.339 6.04615L9.80978 7.74769C10.1647 7.23233 10.6631 6.85296 11.2284 6.65513L10.2374 3.82351ZM7.339 6.04615C6.63004 7.07562 6.25773 8.30406 6.2693 9.55667L9.26918 9.52896C9.26325 8.88707 9.45446 8.26365 9.80978 7.74769L7.339 6.04615ZM6.2693 9.55667C6.28088 10.8093 6.67584 12.0305 7.404 13.0464L9.84227 11.2986C9.47779 10.7901 9.27511 10.1708 9.26918 9.52896L6.2693 9.55667ZM7.404 13.0464C8.13259 14.0628 9.15966 14.8239 10.3441 15.2127L11.2797 12.3623C10.7112 12.1757 10.2063 11.8064 9.84227 11.2986L7.404 13.0464ZM10.3441 15.2127C11.5291 15.6016 12.8044 15.5955 13.9857 15.1954L13.0233 12.354C12.4569 12.5458 11.8476 12.5487 11.2797 12.3623L10.3441 15.2127ZM13.9857 15.1954C15.1665 14.7955 16.1865 14.0248 16.9058 13.0017L14.4517 11.2762C14.092 11.7878 13.5903 12.1619 13.0233 12.354L13.9857 15.1954ZM16.9058 13.0017C17.4818 12.1825 17.8426 11.2336 17.9636 10.2453L14.9858 9.88066C14.9239 10.3861 14.7399 10.8663 14.4517 11.2762L16.9058 13.0017ZM15.6698 8.79722C15.4128 8.96068 15.1086 9.05556 14.7778 9.05556V12.0556C15.6956 12.0556 16.5557 11.7891 17.2796 11.3287L15.6698 8.79722ZM14.7778 9.05556C13.8573 9.05556 13.1111 8.30936 13.1111 7.38889H10.1111C10.1111 9.96622 12.2004 12.0556 14.7778 12.0556V9.05556ZM13.1111 7.38889C13.1111 6.89649 13.3227 6.45553 13.6648 6.14828L11.66 3.91648C10.7113 4.76867 10.1111 6.00969 10.1111 7.38889H13.1111Z" fill="#7336BA" mask="url(#path-2-inside-1_683_1976)"/>
<path d="M16.009 9.5C16.009 11.7231 14.2627 13.5 12.139 13.5C10.0154 13.5 8.26904 11.7231 8.26904 9.5C8.26904 7.27694 10.0154 5.5 12.139 5.5C14.2627 5.5 16.009 7.27694 16.009 9.5Z" stroke="#7336BA"/>
</svg>
