<svg width="306" height="285" viewBox="0 0 306 285" fill="none" xmlns="http://www.w3.org/2000/svg">
<path d="M3.40536 162.001L0.879971 162.317C0.797895 161.716 -1.05827 160.211 0.879971 157.581C1.46712 156.784 3.10232 155.994 3.24753 156C6.61893 156.171 3.44325 161.653 3.40536 162.001Z" fill="#7336BA"/>
<path d="M254.143 78.9285C254.856 79.1814 255.323 79.4217 255.721 79.5608C255.456 80.4651 256.106 83.1841 254.932 83.3485C253.069 83.6078 255.254 80.5978 252.248 79.877C250.815 75.653 253.019 78.5301 254.143 78.9285Z" fill="#7336BA"/>
<path d="M140.601 38.4905C139.307 39.2177 136.56 42.4995 131.611 40.3875C128.069 44.0108 126.351 41.1653 125.777 41.0199C126.143 38.6802 127.949 41.5068 129.401 41.336C129.824 41.2854 131.232 39.7805 131.611 39.7552C132.299 39.7109 133.89 42.3035 140.601 38.4905Z" fill="#0B0D1C"/>
<path d="M286.525 62.7408C286.071 62.5954 284.846 62.9179 284.316 62.2666C283.817 61.6595 284.12 58.9342 284 58.0046C286.885 57.8655 286.147 60.8881 286.525 62.7408Z" fill="#F8ECFF"/>
<path d="M274.011 125.045C274.068 124.754 274.27 124.703 274.327 124.412C275.596 117.773 272.098 122.338 272.749 116.673C272.124 116.085 271.934 116.344 271.17 115.566C274.384 115.383 273.027 118.254 273.38 119.196C273.582 119.746 275.022 119.689 275.59 121.093C274.214 124.153 278.229 124.45 274.011 125.038V125.045Z" fill="#0B0D1C"/>
<path d="M272.749 167.373C275.123 167.487 273.311 168.588 273.38 169.112C273.399 169.245 274.453 169.346 274.327 170.061C274.207 170.738 272.503 170.775 272.433 170.851C269.674 169.473 272.654 167.595 272.749 167.38V167.373Z" fill="#0B0D1C"/>
<path d="M99.2856 46.0722C100.447 49.3098 98.6416 48.2411 97.7072 48.6016C97.6188 48.6332 97.4862 48.5699 97.3915 48.6016L96.4445 46.7045C96.495 46.6919 96.2614 46.1987 96.918 45.756C97.8713 45.5284 98.5595 46.186 99.2856 46.0722Z" fill="#0B0D1C"/>
<path d="M37.0525 64.6553C36.0297 66.704 32.7278 69.1322 34.5271 65.2876C34.7291 64.8639 34.9627 64.4529 35.1584 64.0229C35.6888 64.2063 36.3833 63.5676 37.0525 64.6553Z" fill="#A0718B"/>
<path d="M282.516 219.154C282.365 219.95 282.27 221.828 282.201 221.999C280.054 221.405 279.183 221.025 280.938 219.154C281.393 219.198 281.632 218.787 282.516 219.154Z" fill="#F8ECFF"/>
<path d="M273.38 164.844C273.38 164.338 271.959 163.447 273.38 161.999C275.893 163.061 276.196 163.75 273.38 164.844Z" fill="#0B0D1C"/>
<path d="M88.5652 47.3369C88.3695 48.7344 87.6624 49.411 86.3555 48.6016C86.3997 48.5004 85.4148 47.3116 86.5133 46.3884C87.6497 46.0786 87.8328 47.046 88.5652 47.3369Z" fill="#0B0D1C"/>
<path d="M34.9451 100.403C35.7027 102.515 33.171 103.4 33.051 103.564C30.7529 102.73 34.8062 100.586 34.9451 100.403Z" fill="#454FB1"/>
<path d="M99.4131 27.6775C97.9673 28.8726 96.692 28.2592 95 28.3098C98.6871 25.7931 99.1732 27.6775 99.4131 27.6775Z" fill="#454FB1"/>
<path d="M188.224 40.0713C187.946 40.1725 187.472 39.8311 187.592 40.7037C187.314 40.6531 186.62 40.084 185.067 39.7552V39.439C185.9 37.6558 187.46 38.8193 188.224 40.0713Z" fill="#F5F4F4"/>
<path d="M268.335 102.616C268.499 103.248 268.367 103.912 268.02 104.513C268.013 103.583 267.47 103.33 266.757 103.88C266.473 103.482 266.467 103.609 266.126 102.932C265.823 102.47 265.778 102.224 265.81 101.667L268.335 102.616Z" fill="#7336BA"/>
<path d="M270.539 153.475C270.539 153.626 271.517 154.196 270.223 156.32C270.116 156.244 269.68 156.074 269.592 156.004C268.929 155.037 269.188 153.557 270.539 153.475Z" fill="#B28DA0"/>
<path d="M57 55.42C57.2462 54.6043 60.5103 51.1012 60.7818 51C60.3146 53.1373 58.49 54.1743 57 55.42Z" fill="#EC8DBF"/>
<path d="M145.014 38.1744C144.806 38.0985 144.351 38.2439 144.067 38.1744C143.215 37.972 142.583 38.421 142.804 37.2258C143.252 36.9223 143.612 36.5745 144.067 36.2773C144.907 37.0614 145.494 36.9476 145.014 38.1744Z" fill="#7336BA"/>
<path d="M193.268 40.7037C192.327 40.8618 192.031 40.495 191.69 40.3875C190.263 38.2313 195.067 38.9015 193.268 40.7037Z" fill="#0B0D1C"/>
<path d="M82.8831 226.44C82.8704 226.763 83.5397 226.851 82.8831 227.705C82.5548 227.635 82.3338 228.419 81.7782 228.337C81.5193 228.299 81.3426 227.711 81.3047 227.705C81.3741 226.876 82.2959 225.858 82.8831 226.44Z" fill="#0B0D1C"/>
<path d="M54.8132 207.805C54.5101 207.843 54.1629 207.748 53.8661 207.805C52.1678 206.825 54.2008 205.295 55.1288 207.015C55.1478 207.053 54.6111 207.343 54.8132 207.805Z" fill="#0B0D1C"/>
<path d="M269.908 114.618C267.988 112.442 268.695 111.936 268.645 111.772C269.554 112.385 270.387 113.524 269.908 114.618Z" fill="#0B0D1C"/>
<path d="M236.175 35.7307C234.887 35.8572 233.928 34.8771 233.019 34.466C232.741 33.0939 235.651 35.13 236.175 35.7307Z" fill="#8641AD"/>
<path d="M124.514 41.0198L122.305 41.6522C122.513 41.4562 120.985 40.2421 124.514 41.0198Z" fill="#0B0D1C"/>
<path d="M269.907 160.74C267.47 163.036 268.405 161.689 269.592 159.159C270.217 159.204 269.743 160.234 269.907 160.74Z" fill="#454FB1"/>
<path d="M270.223 157.579C270.33 157.364 270.495 157.18 270.539 156.946C270.899 157.193 271.296 156.605 271.328 156.63C272.685 157.806 270.539 159.349 270.223 157.579Z" fill="#0B0D1C"/>
<path d="M179.391 262.452V261.819C179.498 261.864 182.093 261.269 180.969 262.61C180.439 263.242 179.473 262.445 179.391 262.452Z" fill="#454FB1"/>
<path d="M270.855 150.945C269.939 150.661 270.173 149.908 270.855 149.365C270.874 149.434 272.193 149.396 271.802 150.471C271.675 150.813 271.076 150.351 270.855 150.945Z" fill="#0B0D1C"/>
<path d="M153.531 36.5998H152.584C152.565 36.3848 151.334 35.2719 152.426 35.019C153.354 34.804 153.455 36.5429 153.531 36.5998Z" fill="#0B0D1C"/>
<path d="M69.3215 61.2357C68.3177 61.6783 68.5071 61.5076 68.3745 61.5519L69.9529 59.6548C69.8645 59.8698 69.8014 60.5275 69.3215 61.2357Z" fill="#454FB1"/>
<path d="M244.679 238.764C244.723 238.929 244.647 239.201 244.679 239.397L243.732 238.764C243.044 237.677 244.666 237.354 244.679 238.764Z" fill="#454FB1"/>
<path d="M270.539 142.731C270.646 141.776 270.829 141.618 270.855 141.467C272.37 141.606 271.915 142.927 270.539 142.731Z" fill="#0B0D1C"/>
<path d="M262.969 202.753C262.925 203.063 263.045 203.493 262.969 203.701C262.912 204.365 262.628 203.537 262.022 203.701C261.472 202.98 262.369 202.222 262.969 202.753Z" fill="#7336BA"/>
<path d="M147.224 257.399V257.715C147.186 257.709 147.255 257.975 146.75 258.348C146.05 257.93 146.365 257.235 146.277 257.083C146.814 256.931 146.997 257.463 147.224 257.399Z" fill="#697FD8"/>
<path d="M272.433 132.943C272.37 133.177 272.597 133.594 272.117 133.575C272.092 133.48 270.128 132.336 272.433 132.943Z" fill="#945F7D"/>
<path d="M72.4787 222.02C72.0241 221.691 71.4369 221.476 71.5316 220.755C71.6074 220.812 72.6491 220.559 72.4787 222.02Z" fill="#976481"/>
<path d="M264.547 199.907C264.061 200.837 263.935 200.799 263.916 200.856C263.392 200.28 263.632 199.306 264.547 199.907Z" fill="#A77D94"/>
<path d="M92.0315 47.9692C91.981 47.9819 92.303 48.2728 91.0845 48.2854C91.0971 47.2041 92.1578 46.9132 92.0315 47.9692Z" fill="#AA8197"/>
<path d="M209.039 47.3369L208.408 47.9692C208.294 47.906 207.896 48.0325 207.776 47.9692C207.587 46.9006 208.673 47.5266 209.039 47.3369Z" fill="#0B0D1C"/>
<path d="M265.494 197.378C265.684 198.529 264.894 198.579 264.863 198.643C264.295 197.308 265.425 197.435 265.494 197.378Z" fill="#454FB1"/>
<path d="M79.1013 55.2348C78.5457 55.7154 78.2553 56.1201 77.5229 55.551C77.8134 55.1273 78.6215 54.8933 79.1013 55.2348Z" fill="#0B0D1C"/>
<path d="M70.9 58.0803C70.9 58.0803 70.679 58.3017 70.5843 58.3965C70.6222 58.093 70.5212 57.7325 70.5843 57.448C71.4114 57.4164 71.2093 57.5176 70.9 58.0803Z" fill="#AA8197"/>
<path d="M141.232 38.1743C140.847 38.4083 140.702 38.4336 140.601 38.4905C140.633 38.4715 141.068 37.4282 141.232 38.1743Z" fill="#0B0D1C"/>
<path d="M203.363 80.1868C201.179 82.0016 201.69 80.7243 199.266 78.2898C197.504 76.5193 194.802 74.0658 196.109 73.2374C198.193 74.1986 203.086 78.8842 203.679 79.7126C203.951 80.092 203.351 80.1615 203.363 80.1868Z" fill="#0B0D1C"/>
<path d="M217.044 55.8043C217.385 58.9723 212.941 59.9398 212 55.4881C212.101 55.4818 212.215 55.5071 212.316 55.4881C213.111 55.3237 216.64 52.0293 217.044 55.8043Z" fill="#F8ECFF"/>
<path d="M48.1047 36.7768C47.8017 38.5284 48.0858 38.8825 48.1047 39.3062C47.0945 40.0207 46.9367 40.7606 45.5793 40.5709C44.4618 40.4128 43.9757 39.3821 44.0009 38.3577C45.5477 37.074 45.8887 34.7976 48.0984 36.7768H48.1047Z" fill="#454FB1"/>
<path d="M181.792 12.9914C182.581 14.0727 181.792 14.49 181.792 14.5722C180.914 13.8451 180.718 13.0357 179.424 13.6237C176.697 14.8694 180.497 15.2994 178.004 16.4693C177.934 16.5009 177.808 16.4503 177.688 16.4693C175.301 14.0348 179.727 10.1585 181.785 12.9977L181.792 12.9914Z" fill="#7336BA"/>
<path d="M79.1012 76.0829C79.0065 76.1904 78.956 77.2022 77.8385 78.6123C77.8258 78.6313 77.7501 78.6313 77.5228 78.9285C76.9609 79.6746 76.9293 79.8327 76.8914 79.877C75.8118 79.9528 76.0518 78.8589 75.9444 77.98C75.8497 76.1841 77.4533 74.7108 79.1012 76.0829Z" fill="#7336BA"/>
<path d="M242.549 66.167C242.272 66.1797 242.234 65.8951 241.918 65.8509C237.896 65.2565 241.331 62.8725 242.076 63.0053C243.837 63.3342 242.499 65.9014 242.549 66.167Z" fill="#B08A9E"/>
<path d="M38.1014 117.779C38.0825 118.038 39.5914 120.89 36.5231 121.567C36.4663 120.391 36.2327 117.596 38.1014 117.779Z" fill="#7336BA"/>
<path d="M292.052 129C292.001 129.36 293.094 131.491 290.789 131.529C290.777 131.51 290.707 131.599 290.474 131.213C289.577 129.734 289.874 129.569 292.052 129Z" fill="#7336BA"/>
<path d="M289.788 105.993C287.61 106.556 287.32 106.726 288.21 108.206C286.758 108.434 286.777 108.092 286 107.257C288.065 107.713 287.736 103.021 289.782 105.993H289.788Z" fill="#454FB1"/>
<path d="M125.578 0C125.705 0.809392 124.96 0.891595 124.947 0.948506L124 0.790421C124.398 0.240288 124.985 0.170731 125.578 0Z" fill="#7336BA"/>
<path d="M47.1959 202.018C47.2717 201.973 47.4295 202.062 47.5116 202.018C50.6052 204.269 49.0332 205.888 49.09 206.122C46.4573 208.354 44.1465 204.623 45.3082 202.802C46.0469 201.645 47.0255 202.113 47.2023 202.011L47.1959 202.018Z" fill="#454FB1"/>
<path d="M61.8168 244.316C61.2676 245.739 61.4948 248.103 59.2914 248.103C59.2472 248.078 58.4265 247.8 58.3444 247.787C58.2623 247.775 58.1108 247.768 58.0287 247.787C56.7029 246.554 56.5072 244.215 58.3444 243.367C60.7372 242.267 60.7877 243.955 61.8105 244.316H61.8168Z" fill="#7336BA"/>
<path d="M140.733 216.067C144.9 215.302 143.656 221.353 140.101 220.171C138.321 219.583 138.82 216.415 140.733 216.067Z" fill="#8641AD"/>
<path d="M136.03 215.071C139.275 214.23 139.414 218.89 136.977 219.174C134.704 219.44 133.801 215.646 136.03 215.071Z" fill="#0B0D1C"/>
<path d="M174.189 244.133C176.91 243.621 177.314 247.8 175.136 248.237C172.175 248.831 172.131 244.519 174.189 244.133Z" fill="#0B0D1C"/>
<path d="M81.2217 235.895C80.0411 234.346 79.3403 234.023 80.906 232.424C84.2964 230.571 85.8937 235.364 81.2217 235.895Z" fill="#AE879C"/>
<path d="M87.1449 187.905C89.9734 187.064 90.0618 190.934 88.4076 191.377C86.0211 192.016 85.2951 188.456 87.1449 187.905Z" fill="#8641AD"/>
<path d="M97.2434 253.497C97.0098 254.066 97.3254 256.033 94.718 255.71C94.6927 255.445 93.7078 254.869 94.0866 253.339C94.5286 251.581 96.9782 251.474 97.2434 253.497Z" fill="#7336BA"/>
<path d="M81.1532 192.009C83.9564 191.194 84.0763 196.379 81.1532 195.481C79.8589 195.082 79.8463 192.389 81.1532 192.009Z" fill="#454FB1"/>
<path d="M61.7517 187.273C61.7138 186.83 61.5434 186.438 61.436 186.008C63.2164 181.943 66.2974 186.413 63.4879 187.589C62.7682 187.886 61.8401 187.26 61.7517 187.273Z" fill="#454FB1"/>
<path d="M129.091 217.916C130.329 217.726 131.724 219.959 130.038 221.078C127.342 222.867 127.134 218.213 129.091 217.916Z" fill="#0B0D1C"/>
<path d="M119.1 254.017C120.918 253.739 121.076 256.976 119.415 257.179C117.585 257.394 117.585 254.251 119.1 254.017Z" fill="#7336BA"/>
<path d="M49.5204 181.17C51.8438 180.05 52.5319 184.869 49.8361 184.015C48.9522 183.737 48.6491 181.593 49.5204 181.17Z" fill="#454FB1"/>
<path d="M100.569 228.147C100.941 230.6 97.5827 230.6 98.0435 227.515C98.2077 227.515 100.241 226.01 100.569 228.147Z" fill="#7336BA"/>
<path d="M74.6881 207.489C74.7701 207.179 73.3622 206.288 75.0037 205.592C78.1605 204.833 78.4383 208.128 74.6881 207.489Z" fill="#454FB1"/>
<path d="M90.6107 210.651C92.1386 209.955 93.0604 213.053 91.5577 213.496C89.6637 214.053 89.8215 211.011 90.6107 210.651Z" fill="#7336BA"/>
<path d="M181.601 251.398C181.399 251.651 181.058 252.043 180.969 252.347C176.777 252.195 180.212 247.01 181.601 251.398Z" fill="#8641AD"/>
<path d="M160.312 242.868C162.067 242.274 163.146 244.474 161.574 245.081C159.409 245.916 158.859 243.361 160.312 242.868Z" fill="#454FB1"/>
<path d="M25.664 203.099C27.6591 202.441 27.8611 205.268 26.611 205.628C24.8054 206.147 24.5592 203.466 25.664 203.099Z" fill="#945F7D"/>
<path d="M163.469 232.125C165.35 231.214 165.824 234.237 164.416 234.654C162.635 235.179 162.616 232.536 163.469 232.125Z" fill="#10142C"/>
<path d="M144.935 275.018C146.109 274.796 147.378 276.731 145.882 277.231C143.691 277.958 143.464 275.296 144.935 275.018Z" fill="#7336BA"/>
<path d="M171.827 251.715C171.954 252.979 171.007 253.479 169.933 253.295C169.914 251.076 168.942 250.576 171.827 251.715Z" fill="#0B0D1C"/>
<path d="M155.899 240.655C158.317 239.941 157.61 242.931 156.214 242.868C155.04 242.811 154.731 241.003 155.899 240.655Z" fill="#454FB1"/>
<path d="M36.4911 217.012C38.0947 217.353 37.2298 220.028 35.5441 219.225C34.1993 218.58 35.6703 216.841 36.4911 217.012Z" fill="#7336BA"/>
<path d="M175.609 252.663C174.751 253.239 173.538 252.644 174.346 251.715C174.429 251.664 175.11 250.38 175.767 250.45C177.301 250.614 175.634 252.524 175.609 252.663Z" fill="#C6ACBA"/>
<path d="M162.777 261.09C164.317 260.628 164.797 262.064 164.04 262.671C162.303 264.062 161.161 261.583 162.777 261.09Z" fill="#A0718B"/>
<path d="M140.601 229.602C140.69 229.64 140.828 229.564 140.917 229.602C141.005 229.64 142.192 228.894 142.495 230.076C143.007 232.081 139.458 231.954 140.601 229.602Z" fill="#7336BA"/>
<path d="M125.777 222.02C126.705 224.72 122.993 224.246 124.199 222.02C124.767 221.995 124.912 221.685 125.777 222.02Z" fill="#FFEBF6"/>
<path d="M80.1493 252.033C83.4955 251.578 78.4826 255.979 79.0445 253.14C79.0571 253.064 80.0736 252.046 80.1493 252.033Z" fill="#7336BA"/>
<path d="M175.767 242.236C176.645 241.875 176.695 243.444 178.45 243.026C175.704 245.024 174.422 242.786 175.767 242.236Z" fill="#A0718B"/>
<path d="M169.776 233.389C171.133 232.94 171.708 234.585 170.723 234.97C169.536 235.432 168.867 233.693 169.776 233.389Z" fill="#A0718B"/>
<path d="M139.023 244.765C138.593 244.108 137.627 244.285 137.76 243.659C138 242.501 140.633 244.095 140.285 244.607C140.039 244.968 139.326 244.639 139.023 244.765Z" fill="#0B0D1C"/>
<path d="M72.1627 200.54L70.5843 201.804C69.6562 199.528 71.2977 200.211 72.1627 200.54Z" fill="#454FB1"/>
<path d="M145.488 231.499C147.495 231.1 146.1 233.497 144.856 232.763C144.358 232.466 145.33 231.53 145.488 231.499Z" fill="#7336BA"/>
<path d="M164.731 249.185C165.728 248.875 166.227 250.178 165.362 250.45C164.365 250.76 163.866 249.457 164.731 249.185Z" fill="#0B0D1C"/>
<path d="M139.023 244.765C139.717 245.834 137.817 245.96 137.76 245.872C137.11 244.86 138.915 244.81 139.023 244.765Z" fill="#0B0D1C"/>
<path d="M145.487 233.706H145.803L145.961 233.864V234.18L145.803 234.338L145.645 234.18L145.487 234.022L145.33 233.864L145.487 233.706Z" fill="#AA8197"/>
<path d="M290.575 175.359C290.594 175.568 290.575 175.783 290.575 175.991C290.562 176.87 289.868 176.864 289.943 177.414C291.282 178.344 290.808 179.343 290.89 179.469C288.081 184.471 285.24 177.99 288.365 175.682C288.466 175.606 288.725 174.417 290.575 175.365V175.359Z" fill="#7336BA"/>
<path d="M265.24 229.245C263.005 227.348 264.439 226.539 264.609 225.458C264.628 225.356 264.59 225.243 264.609 225.141C266.92 224.446 268.239 226.438 267.45 228.461C267.116 229.315 265.335 229.182 265.24 229.252V229.245Z" fill="#7336BA"/>
<path d="M240.286 254.236C240.197 254.413 240.374 254.988 240.286 255.185C238.726 258.523 238.284 256.481 237.129 256.133C236.491 253.787 238.322 251.523 240.286 254.236Z" fill="#7336BA"/>
<path d="M231.841 282.336C233.312 285.947 229.543 284.182 229.316 284.233L229 282.968C230.168 282.772 228.362 281.331 229.789 281.071C231.184 280.825 231.38 281.21 231.841 282.336Z" fill="#7336BA"/>
<path d="M208.092 263.4L208.408 264.033C207.783 264.083 206.369 265.702 206.514 263.716C208.155 263.267 208.016 263.432 208.092 263.4Z" fill="#454FB1"/>
<path d="M230.328 216.968C233.599 216.563 232.412 222.526 229.381 220.439C228.169 219.605 228.845 217.151 230.328 216.968Z" fill="#0B0D1C"/>
<path d="M237.582 210.018C240.556 209.063 239.988 213.186 238.214 213.49C235.84 213.901 236.111 210.493 237.582 210.018Z" fill="#8641AD"/>
<path d="M302.135 193.316C303.171 193.778 303.512 193.708 304.345 193C304.351 193.139 305.494 194.347 304.976 195.687C304.282 197.477 301.34 195.909 302.135 193.316Z" fill="#8641AD"/>
<path d="M204.784 250.766C206.634 250.627 206.766 253.624 205.415 253.928C203.18 254.427 202.682 250.931 204.784 250.766Z" fill="#AA8197"/>
<path d="M199.739 233.39C201.665 232.82 202.549 235.495 201.002 235.919C199.619 236.298 198.003 233.908 199.739 233.39Z" fill="#C6ACBA"/>
<path d="M247.52 186.008C247.949 186.097 247.955 186.356 248.151 186.641C248.858 187.665 248.157 187.861 248.151 188.222C245.171 188.462 244.685 185.414 247.52 186.008Z" fill="#7336BA"/>
<path d="M213.301 252.663C215.41 252.176 215.454 255.249 214.248 255.509C212.632 255.85 212.663 252.815 213.301 252.663Z" fill="#7336BA"/>
<path d="M281.707 175.114C283.942 174.381 283.633 177.404 282.339 177.644C280.653 177.954 280.697 175.45 281.707 175.114Z" fill="#10142C"/>
<path d="M236.951 204.327C238.902 203.423 239.426 206.502 237.898 206.857C236.547 207.173 235.897 204.814 236.951 204.327Z" fill="#ACACAF"/>
<path d="M238.529 217.6C239.508 217.6 240.228 219.63 239.161 220.129C237.475 220.92 236.679 217.606 238.529 217.6Z" fill="#0B0D1C"/>
<path d="M211.249 258.348C211.293 258.746 211.362 258.822 210.933 258.98C208.029 260.061 208.383 256.596 210.46 257.083C211.091 257.229 211.186 258.304 211.249 258.348Z" fill="#976481"/>
<path d="M224.81 232.441C224.311 232.707 224.45 233.623 223.232 233.389C222.266 231.866 224.273 229.962 224.81 232.441Z" fill="#0B0D1C"/>
<path d="M218.976 217.284C220.397 216.702 219.936 219.257 219.608 219.497C218.427 220.351 218.004 217.689 218.976 217.284Z" fill="#8641AD"/>
<path d="M239.792 191.061C241.099 190.795 241.257 192.604 240.423 192.958C239.306 193.432 238.479 191.333 239.792 191.061Z" fill="#8641AD"/>
<path d="M224.968 223.917C225.985 223.753 226.414 225.58 225.284 225.814C223.705 226.143 224.128 224.056 224.968 223.917Z" fill="#7336BA"/>
<path d="M227.961 227.705C226.767 227.736 227.455 226.99 227.645 226.44C230.669 226.004 228.03 227.585 227.961 227.705Z" fill="#7336BA"/>
<path d="M202.574 230.55C204.778 229.728 203.269 233.174 202.101 231.657C202.019 231.556 202.518 230.576 202.574 230.55Z" fill="#B896A8"/>
<path d="M262.495 159.792C263.506 159.014 263.72 161.17 262.811 161.056C262.072 160.962 262.224 160.007 262.495 159.792Z" fill="#0B0D1C"/>
<path d="M19.1567 185.866C16.1073 187.877 16.2778 184.108 16 183.336C18.1971 181.863 18.9863 185.695 19.1567 185.866Z" fill="#7336BA"/>
<path d="M263.916 147.474C263.783 146.823 264.194 146.506 264.232 145.893C266.075 144.774 266.631 147.145 266.441 147.632C265.905 148.985 264.055 147.455 263.916 147.474Z" fill="#697FD8"/>
<path d="M290.261 152.547H289.945C290.191 150.997 287.609 151.655 288.051 150.491C288.436 149.48 292.458 149.967 290.261 152.547Z" fill="#454FB1"/>
<path d="M261.397 188.222C261.321 188.867 261.864 188.999 261.713 189.328C261.195 190.454 258.922 190.757 259.503 188.538C259.711 188.506 260.147 188.038 261.397 188.222Z" fill="#7336BA"/>
<path d="M272.732 251C276.129 252.208 271.046 254.155 273.995 255.578C273.622 256.097 273.326 256.097 272.732 256.052C272.208 256.014 271.267 255.319 271.154 254.946C270.415 252.562 272.568 251.164 272.732 251Z" fill="#7336BA"/>
<path d="M17.8435 86.897C16.7071 87.9846 16.3094 87.3207 15.0025 87.2132C14.9456 86.2963 15.8864 85.6892 16.2652 85C20.0406 85.7651 17.8562 86.0497 17.8435 86.897Z" fill="#7336BA"/>
<path d="M16.5872 88.794C15.7159 88.6865 15.0467 87.7507 15.0088 87.2132C16.3094 87.3207 16.7134 87.9846 17.8499 86.897C17.8499 87.0551 19.3462 89.1292 16.5872 88.794Z" fill="#7336BA"/>
<path d="M259.818 196.436C261.252 198.459 260.425 197.688 260.45 198.333H258.556C258.568 198.08 257.779 196.55 257.609 196.12C257.552 195.974 257.666 195.62 257.609 195.487C259.471 193.925 259.654 196.202 259.818 196.436Z" fill="#454FB1"/>
<path d="M266.125 191.061L266.441 190.745C266.441 190.745 266.908 190.707 266.757 191.219C266.637 191.617 266.271 190.915 266.125 191.061Z" fill="#454FB1"/>
<path d="M124.83 43.233C124.085 43.4354 123.58 43.1002 122.936 42.9169C126.699 41.8229 124.874 42.9485 124.83 43.233Z" fill="#454FB1"/>
<path d="M122.055 223.628C121.518 223.577 121.108 224.134 120.318 223.944C119.353 223.217 119.573 222.743 119.529 222.679C120.71 222.072 122.288 222.072 122.055 223.628Z" fill="#0B0D1C"/>
<path d="M119.213 222.363C117.742 222.648 117.13 221.32 116.688 221.098C118.784 219.246 119.093 222.211 119.213 222.363Z" fill="#0B0D1C"/>
<path d="M117.004 211.936C116.84 212.233 116.726 216.628 114.163 211.62C114.327 211.632 115.293 210.026 117.004 211.936Z" fill="#7336BA"/>
<path d="M113.38 216.678C113.834 216.527 114.983 216.767 114.8 217.469C114.466 218.759 112.092 217.102 113.38 216.678Z" fill="#0B0D1C"/>
<path d="M61.7377 215.389C61.9145 216.312 61.4536 216.85 61.1063 217.602C60.999 217.83 60.8664 217.994 60.7907 218.235C59.1997 219.152 58.1895 218.772 57.9496 218.867C57.1099 218.481 57.0341 218.127 57.0026 217.286C56.9773 216.534 57.1351 215.642 57.6339 215.073C59.8815 212.512 61.4914 215.332 61.7314 215.389H61.7377Z" fill="#454FB1"/>
<path d="M87.6182 220.123C87.5361 219.946 87.0373 219.2 86.9868 219.175C87.3025 215.969 90.6234 218.194 89.3544 220.123C89.0071 220.648 87.7381 220.06 87.6182 220.123Z" fill="#0B0D1C"/>
<path d="M211.872 36.2382C207.851 39.0584 209.328 35.2138 209.031 34.025C210.515 33.8669 212.144 34.4423 211.872 36.2382Z" fill="#7336BA"/>
<path d="M22.5767 107.308C22.5136 107.346 22.4884 108.687 21.4719 108.257C19.7799 107.536 22.9177 105.247 19.1043 106.992C15.8276 108.491 20.7395 102.028 22.2611 104.621C22.5073 105.038 22.6146 106.619 22.5767 107.308Z" fill="#7336BA"/>
<path d="M268.02 104.513C267.887 104.74 267.938 104.696 267.704 104.829C265.993 105.815 266.845 104.001 266.757 103.88C267.47 103.33 268.013 103.583 268.02 104.513Z" fill="#454FB1"/>
<path d="M42.3571 123.148C46.1452 122.237 43.6261 128.535 41.4101 127.884C39.7875 127.403 41.1386 123.439 42.3571 123.148Z" fill="#7336BA"/>
<path d="M176.241 68.8174C175.818 68.6403 174.125 67.9511 174.031 67.8689C170.293 64.5807 177.667 65.0107 178.444 68.3431C179.119 71.2203 176.746 69.0324 176.234 68.8174H176.241Z" fill="#0B0D1C"/>
<path d="M161.337 21.1176C158.338 23.3624 157.606 21.2251 158.18 18.2721C162.12 17.0264 161.091 20.4221 161.337 21.1176Z" fill="#7336BA"/>
<path d="M204.784 60.2872C207.208 59.9963 206.173 64.0875 204.468 64.391C200.907 65.0234 203.357 60.4579 204.784 60.2872Z" fill="#8641AD"/>
<path d="M249.881 94.0856C252.369 93.4596 252.564 97.5002 250.512 97.8733C247.955 98.3475 248.031 94.5472 249.881 94.0856Z" fill="#7336BA"/>
<path d="M206.047 72.9213C208.237 72.3711 208.894 75.7857 206.994 76.3928C203.527 77.5057 204.279 73.3576 206.047 72.9213Z" fill="#0B0D1C"/>
<path d="M134.001 23.1379C137.341 22.1957 137.391 26.3818 134.948 26.6094C132.41 26.8497 134.209 25.3068 134.159 25.1867C134.096 25.0412 131.69 23.7829 134.001 23.1316V23.1379Z" fill="#7336BA"/>
<path d="M241.996 96.6149C244.603 95.8941 245.127 100.409 242.943 100.403C241.402 100.403 240.626 96.9943 241.996 96.6149Z" fill="#0B0D1C"/>
<path d="M51.2847 80.0677C51.3794 80.1625 51.9034 80.1246 51.916 81.0162C51.9286 82.1797 50.5776 84.4055 49.5485 84.1779C48.2479 83.887 49.4348 79.3721 51.2847 80.074V80.0677Z" fill="#7336BA"/>
<path d="M236.793 82.7162C236.8 85.2519 230.41 84.2654 235.215 79.8707C236.724 80.7876 234.369 80.7812 236.793 82.7162Z" fill="#8641AD"/>
<path d="M89.8245 16.0458C91.9079 15.5462 92.5266 19.2896 90.7715 19.8335C87.8925 20.7251 89.654 17.9554 89.6666 17.7784C89.6729 17.6645 88.063 16.4631 89.8245 16.0394V16.0458Z" fill="#454FB1"/>
<path d="M195.951 64.0812C199.07 63.12 196.753 65.6557 196.74 65.8201C196.728 66.0162 198.293 69.513 195.32 67.8752C194.512 67.4326 195.017 64.3721 195.951 64.0875V64.0812Z" fill="#0B0D1C"/>
<path d="M137.45 56.8156C137.987 57.3911 138.353 58.6494 137.766 59.345C137.785 59.8382 137.299 59.5853 137.135 59.6611C136.017 58.3459 136.08 56.7903 133.978 57.448C134.066 57.3152 133.075 56.8599 134.452 55.8671C134.862 55.6711 137.343 56.7018 137.45 56.8156Z" fill="#7336BA"/>
<path d="M28.2505 151C29.1281 150.975 30.9717 153.498 29.5132 154.162C27.4677 155.085 25.7315 151.07 28.2505 151Z" fill="#F5F4F4"/>
<path d="M115.372 55.2348C115.448 56.4236 113.503 58.7506 112.215 58.0803C112.146 56.4299 113.503 53.7551 115.372 55.2348Z" fill="#7336BA"/>
<path d="M115.372 55.2348C113.503 53.7551 112.146 56.4236 112.215 58.0803C108.73 56.2529 115.088 50.9602 115.372 55.2348Z" fill="#7336BA"/>
<path d="M95.9773 52.7054C98.1744 52.364 98.7679 55.9177 96.293 55.8671C93.9065 55.8102 95.7753 52.7371 95.9773 52.7054Z" fill="#7336BA"/>
<path d="M252.406 106.726C254.111 106.037 255.292 108.522 253.985 109.572C251.579 111.494 251.889 106.935 252.406 106.726Z" fill="#999A9D"/>
<path d="M158.418 41.336C158.639 41.3044 160.103 42.2719 160.154 42.4426C160.716 44.3965 158.007 45.775 157.629 44.3396C157.414 43.5176 158.853 43.5682 158.891 43.3911C158.923 43.2457 156.05 41.6459 158.418 41.336Z" fill="#454FB1"/>
<path d="M257.451 124.729C258.234 124.356 260.279 125.133 259.818 126.468C258.947 128.978 255.487 125.665 257.451 124.729Z" fill="#F8ECFF"/>
<path d="M229.066 77.98C230.17 77.9736 231.136 80.0224 229.697 80.5093C227.273 81.325 227.222 77.9989 229.066 77.98Z" fill="#0B0D1C"/>
<path d="M221.653 70.0821C221.59 72.3522 217.177 73.2817 218.812 70.0821H221.653Z" fill="#8641AD"/>
<path d="M8 122.837C8.29042 122.811 8.59978 122.489 8.63135 122.204C12.8109 120.832 9.06067 126.903 8.31567 124.576C7.96212 123.469 10.4054 124.095 8 122.837Z" fill="#454FB1"/>
<path d="M166.145 42.6007C166.063 42.6639 165.583 42.5374 165.514 42.6007C163.209 39.9765 168.437 39.635 167.408 42.1264C167.136 42.7904 166.221 42.5438 166.145 42.6007Z" fill="#454FB1"/>
<path d="M260.134 106.726C260.071 106.884 261.328 108.92 258.556 108.307C258.556 108.079 256.334 105.076 260.134 106.726Z" fill="#0B0D1C"/>
<path d="M172.295 44.8139C173.98 44.2574 174.7 46.0975 173.557 47.0271C172.389 47.9756 170.691 45.345 172.295 44.8139Z" fill="#7336BA"/>
<path d="M260.766 101.035L259.819 101.983C259.724 101.851 257.432 100.169 258.714 99.4541C260.305 98.5752 260.652 100.934 260.766 101.035Z" fill="#0B0D1C"/>
<path d="M78.6918 37.6328C78.6539 37.4051 77.7637 35.6662 78.0604 35.1034C79.9166 34.3699 80.7942 37.7845 78.6918 37.6328Z" fill="#454FB1"/>
<path d="M213.617 70.3982C215.902 70.2149 213.838 72.9908 213.301 72.9276C212.651 72.8454 211.975 70.531 213.617 70.3982Z" fill="#7336BA"/>
<path d="M225.599 85.2455C227.506 84.708 227.254 87.2374 226.231 87.4587C224.924 87.7369 224.394 85.587 225.599 85.2455Z" fill="#7336BA"/>
<path d="M243.574 93.1434C248.265 94.9772 243.018 96.6465 242.785 94.25C242.715 93.5102 246.244 94.7938 243.574 93.1434Z" fill="#0B0D1C"/>
<path d="M86.04 74.1859C86.0021 74.5274 86.1031 75.0017 86.04 75.1344C85.9958 75.223 84.6258 76.1462 84.3038 76.083C80.7304 75.3431 85.8506 74.2808 86.04 74.1859Z" fill="#454FB1"/>
<path d="M109.696 67.2366L107.487 67.8689C105.896 65.4913 109.564 65.8391 109.696 67.2366Z" fill="#7336BA"/>
<path d="M80.5217 66.9204C80.6543 66.8382 82.3211 67.6476 82.5736 68.027C84.4929 70.9357 79.0507 67.8373 80.5217 66.9204Z" fill="#0B0D1C"/>
<path d="M211.091 65.0297C212.991 64.7641 212.613 66.3197 211.722 66.6105C209.879 67.2113 209.45 65.2573 211.091 65.0297Z" fill="#0B0D1C"/>
<path d="M232.222 74.8183C234.318 74.6539 233.195 77.1453 231.591 76.7153C230.631 76.456 231.54 74.8752 232.222 74.8183Z" fill="#0B0D1C"/>
<path d="M213.514 21.094C214.675 20.5881 215.667 22.2701 214.776 22.6748C213.444 23.2755 212.301 21.6188 213.514 21.094Z" fill="#A77B92"/>
<path d="M171.985 55.8671C174.328 55.943 170.375 59.2248 170.565 56.9737C170.584 56.7777 171.897 55.8671 171.985 55.8671Z" fill="#0B0D1C"/>
<path d="M105.119 61.2357C106.464 60.793 106.944 62.4181 106.382 62.8165C105.384 63.5247 103.92 61.634 105.119 61.2357Z" fill="#454FB1"/>
<path d="M197.052 57.0009C198.921 57.4056 195.133 59.5998 195.001 58.4237C194.963 58.1012 196.869 56.963 197.052 57.0009Z" fill="#454FB1"/>
<path d="M169.775 52.7054C170.483 52.326 172.534 53.3251 172.143 53.812C171.436 54.6847 168.828 53.2113 169.775 52.7054Z" fill="#0B0D1C"/>
<path d="M226.547 70.0821C227.734 69.8671 228.472 70.9484 228.283 71.1887C227.525 72.1119 224.545 70.4425 226.547 70.0821Z" fill="#0B0D1C"/>
<path d="M259.948 58C260.017 58.5501 260.75 58.7525 260.263 59.5808C258.325 58.9359 256.475 58.2656 259.948 58Z" fill="#454FB1"/>
<path d="M76.4181 69.1336C76.8853 69.045 78.2238 69.475 78.1543 69.924C77.9397 71.2266 74.2652 69.5383 76.4181 69.1336Z" fill="#454FB1"/>
<path d="M107.487 67.8689L109.696 67.2365C109.804 68.4 108.093 68.8364 107.96 68.8174C107.076 68.6846 107.708 68.1977 107.487 67.8689Z" fill="#7336BA"/>
<path d="M151.953 54.9186C151.22 54.9566 151.031 55.5383 150.69 54.6025C152.736 53.4516 151.921 54.8175 151.953 54.9186Z" fill="#AA8197"/>
<path d="M119.47 51.0207C119.722 50.9891 119.849 50.8057 120.101 50.7046C119.078 53.588 119.552 51.0966 119.47 51.0207Z" fill="#7336BA"/>
<path d="M212.362 158.602C211.214 165.631 226.553 161.771 230.065 162.827C230.607 162.994 231.429 164.799 232.169 165.068C232.067 165.241 231.831 166.931 231.92 167.309C223.289 167.161 214.74 168.128 206.172 169.05C204.871 169.191 203.532 169.133 202.213 169.3C201.48 169.389 200.715 169.447 199.981 169.549C196.807 169.978 193.574 170.292 190.451 171.041C189.469 171.278 180.079 174.286 179.556 174.523C175.068 176.565 166.034 184.254 160.367 186.206C158.569 180.771 156.778 180.861 154.177 176.508C167.175 171.988 163.937 170.426 165.441 169.792C167.877 168.775 192.287 169.466 197.871 164.569C203.921 168.038 207.931 161.579 212.355 158.602H212.362Z" fill="#1E1E37"/>
<path d="M126.707 144.435L128.441 144.935C123.532 145.44 114.894 148.776 110.865 151.65L106.53 147.425L103.808 147.175V146.676C113.696 147.143 117.514 147.796 126.707 144.435Z" fill="#1E194F"/>
<path d="M104.669 158.359C104.528 158.628 103.139 162.962 102.686 164.076C96.6616 165.964 92.2819 166.688 85.977 165.817C83.7585 165.51 82.101 164.62 81.8906 164.575C80.8387 161.15 79.398 157.744 79.1685 154.134C87.6855 155.376 96.1579 157.079 104.669 158.359Z" fill="#1E194F"/>
<path d="M79.168 154.127C79.3975 157.738 80.8382 161.144 81.8901 164.569C79.2763 163.973 76.5351 163.877 74.0934 162.578C71.2884 159.94 70.262 156.067 68.0308 153.007C68.5025 152.373 77.6889 153.91 79.1743 154.127H79.168Z" fill="#1E194F"/>
<path d="M106.301 147.9L103.756 147.667L103.301 147.625V147.169V146.67V146.146L103.825 146.17C104.891 146.22 105.884 146.272 106.819 146.32C110.24 146.499 112.883 146.637 115.48 146.483C118.762 146.289 121.968 145.627 126.529 143.959C128.13 143.373 130.324 142.555 132.302 141.497C134.303 140.427 135.972 139.167 136.647 137.749L136.647 137.748C137.328 136.317 137.546 134.68 137.535 132.896C137.527 131.396 137.358 129.828 137.185 128.218C137.151 127.908 137.118 127.596 137.085 127.283C136.688 123.463 136.421 119.427 138.67 116.176M106.301 147.9L139.081 116.46M106.301 147.9L110.098 151.601C109.286 152.272 108.176 153.359 107.144 154.469C106.038 155.658 104.96 156.935 104.408 157.814C100.458 157.215 96.5148 156.526 92.5649 155.837L92.0066 155.74C87.7608 154.999 83.5071 154.261 79.241 153.639C79.0676 153.614 78.7827 153.569 78.4147 153.512C77.241 153.329 75.2219 153.014 73.2833 152.761C72.0094 152.595 70.7563 152.454 69.7876 152.394C69.3054 152.365 68.8782 152.354 68.5486 152.374C68.3854 152.383 68.2272 152.401 68.0909 152.435C67.9859 152.461 67.7671 152.524 67.625 152.713L67.4027 153.009L67.6203 153.308C68.4919 154.506 69.1729 155.824 69.873 157.179C70.0468 157.515 70.2217 157.854 70.401 158.193C71.2919 159.88 72.2813 161.569 73.7443 162.948L73.7935 162.994L73.8532 163.026C75.1367 163.706 76.4872 164.066 77.8236 164.332C78.4018 164.447 78.959 164.541 79.5081 164.634C80.2635 164.762 81.0036 164.888 81.7623 165.06C81.7622 165.061 81.7822 165.067 81.8358 165.09C81.8807 165.109 81.9337 165.132 81.9983 165.159C82.0298 165.173 82.0641 165.188 82.1015 165.204C82.3245 165.3 82.6296 165.429 83.0001 165.566C83.7401 165.841 84.7457 166.152 85.9017 166.312L85.9019 166.312C91.9861 167.152 96.3144 166.525 101.945 164.825C101.932 164.877 101.918 164.931 101.905 164.985L101.902 164.994L101.887 165.054C101.77 165.522 101.631 166.073 101.464 166.645C101.107 167.864 100.651 169.064 100.075 169.709L100.074 169.71C98.967 170.956 97.1167 171.727 94.7907 172.085C92.4758 172.441 89.7594 172.375 87.0082 172.01C84.2597 171.646 81.4963 170.986 79.0936 170.167C76.683 169.346 74.6686 168.375 73.3961 167.404L73.3955 167.404C71.7108 166.122 69.9969 164.227 68.7968 162.107C67.5939 159.982 66.9363 157.684 67.2751 155.577L67.3263 155.258L67.0572 155.08C61.1804 151.195 59.892 147.94 59.9167 145.505C59.9293 144.261 60.2829 143.174 60.6413 142.238C60.6997 142.085 60.7599 141.932 60.819 141.782C60.9357 141.486 61.0484 141.201 61.1349 140.947C61.2642 140.568 61.3721 140.163 61.3379 139.787M138.67 116.176L139.081 116.46M138.67 116.176C138.669 116.176 138.669 116.177 138.669 116.177L139.081 116.46M138.67 116.176C138.902 115.837 139.474 115.227 140.178 114.507C140.891 113.779 141.781 112.899 142.695 111.995L142.724 111.966C144.496 110.213 146.338 108.39 147.23 107.346M139.081 116.46C139.484 115.874 141.208 114.169 143.049 112.347C144.908 110.509 146.886 108.553 147.744 107.511M147.23 107.346L147.246 107.55L147.744 107.511M147.23 107.346L145.761 88.6585L145.74 88.3959L145.945 88.2303C146.137 88.0748 146.353 87.7601 146.566 87.25C146.774 86.7513 146.959 86.1161 147.12 85.3775C147.443 83.9014 147.658 82.0675 147.789 80.2069C147.92 78.349 147.964 76.479 147.948 74.9364C147.932 73.3782 147.854 72.1968 147.752 71.6907L147.744 107.511M147.23 107.346C147.275 107.293 147.318 107.242 147.359 107.193L147.744 107.511M61.3379 139.787C61.3379 139.787 61.3379 139.788 61.3379 139.788L60.8399 139.833L61.3379 139.787Z" fill="#312980" stroke="#312980"/>
<path d="M119.898 95.2131C121.32 95.9621 129.869 96.647 130.296 96.9543C130.443 97.0568 130.519 99.8287 130.417 100.059C130.181 100.635 122.385 101.948 120.759 106.275C119.65 109.22 119.242 126.658 119.274 131.382L111.725 131.754L110.61 125.416C117.138 121.421 115.729 112.805 117.54 106.275C122.346 100.853 123.443 102.786 119.892 95.2131H119.898Z" fill="#1E194F"/>
<path d="M106.53 88.4977C108.028 94.3488 107.71 100.418 107.518 106.397C105.07 102.408 104.917 92.6908 106.53 88.4977Z" fill="#312980"/>
<path d="M132.521 73.5818C133.203 76.3217 133.19 79.1 133.139 81.9103C117.731 87.6654 132.623 82.9026 132.521 73.5818Z" fill="#312980"/>
<path d="M175.724 205.591C176.922 208.958 180.237 212.517 181.168 216.403C184.451 220.487 187.537 227.062 190.08 231.94C188.805 232.285 187.403 232.381 186.121 232.689C180.333 223.112 175.341 213.055 169.782 203.356L175.724 205.597V205.591Z" fill="#454FB1"/>
<path d="M181.666 206.583C185.115 214.828 188.538 223.099 193.051 230.819C192.962 231.364 190.584 231.799 190.081 231.94C187.537 227.062 184.452 220.487 181.168 216.403C180.231 212.517 176.923 208.958 175.724 205.591C177.554 205.987 179.454 205.763 181.296 206.09C181.506 206.128 181.264 206.519 181.666 206.589V206.583Z" fill="#454FB1"/>
<path d="M149.478 184.459C150.88 184.657 152.289 184.836 153.686 185.08C147.247 190.252 157.632 194.477 162.349 194.9C163.318 194.752 165.071 195.95 165.817 196.641C167.411 198.113 168.635 201.353 169.776 203.356C175.335 213.061 180.327 223.112 186.115 232.689C185.051 232.945 179.524 234.686 178.937 234.302C171.669 220.846 162.33 208.791 152.57 197.134C144.652 196.001 143.906 190.719 139.82 185.323C139.093 184.369 138.895 185.035 138.832 184.952C138.207 184.183 137.429 183.185 137.098 182.218C141.108 183.575 145.315 183.87 149.478 184.459Z" fill="#1E194F"/>
<path d="M154.184 176.501C156.785 180.848 158.57 180.765 160.374 186.2C160.571 186.802 162.299 193.747 162.356 194.157C162.388 194.4 162.337 194.656 162.356 194.906C157.632 194.484 147.248 190.265 153.693 185.086C152.297 184.843 150.888 184.663 149.485 184.465L147.254 178.499C149.485 177.775 152.099 177.238 154.184 176.508V176.501Z" fill="#7336BA"/>
<path d="M147.254 178.492L149.485 184.459C145.328 183.876 141.114 183.575 137.104 182.218C137.104 181.495 146.049 178.883 147.254 178.486V178.492Z" fill="#7336BA"/>
<path d="M202.212 169.293C202.595 170.861 199.547 172.75 198.005 174.638C196.124 176.943 194.008 180.349 191.566 183.338C190.552 184.58 189.379 184.779 189.092 185.329C188.009 187.378 188.99 191.488 188.844 191.795C188.71 192.083 183.565 194.221 189.711 194.9C189.775 194.906 190.438 194.247 190.948 194.4C192.433 197.358 198.285 196.11 201.594 196.391C210.608 193.824 219.999 192.173 228.21 187.442C228.133 187.813 229.204 188.325 225.978 192.909C224.544 191.846 222.785 194.503 219.17 196.142C215.166 197.96 209.728 198.997 206.79 200.117C203.29 201.455 201.454 205.552 188.219 204.092C181.78 203.382 174.302 200.354 167.921 198.869C167.978 196.014 167.519 194.528 165.817 196.628C165.071 195.943 163.325 194.74 162.349 194.887C162.33 194.644 162.381 194.381 162.349 194.138C164.013 194.49 164.976 192.397 166.187 191.654C167.519 190.835 170.605 189.919 171.88 189.17C178.841 185.06 197.558 170.618 199.114 170.029C199.407 169.92 200.089 170.9 199.981 169.53C200.708 169.434 201.473 169.37 202.212 169.28V169.293Z" fill="#7336BA"/>
<path d="M206.172 169.043C207.906 169.767 205.573 170.919 205.184 171.655C204.929 172.129 204.642 175.183 200.976 179.113C202.487 182.576 200.052 184.068 201.474 186.321C202.972 188.69 210.896 187.192 213.235 186.443C213.548 186.341 213.733 185.048 219.177 183.959C220.484 181.77 223.461 180.586 224.87 179.484C226.062 178.556 227.694 174.894 229.823 176.501C231.168 174.581 233.616 173.576 233.661 170.785C233.852 172.519 233.597 174.485 232.424 175.88C234.018 179.945 230.416 183.844 227.968 186.821C227.841 187.109 228.261 187.224 228.217 187.442C220.006 192.173 210.622 193.824 201.601 196.391C198.292 196.116 192.44 197.358 190.955 194.4C190.438 194.247 189.782 194.906 189.718 194.9C183.572 194.215 188.717 192.077 188.851 191.795C188.991 191.488 188.016 187.378 189.1 185.329C189.393 184.779 190.559 184.587 191.573 183.338C194.008 180.349 196.125 176.937 198.012 174.638C199.555 172.75 202.602 170.861 202.219 169.293C203.539 169.127 204.884 169.184 206.178 169.043H206.172Z" fill="#7336BA"/>
<path d="M231.92 167.308C232.016 167.712 233.399 168.48 233.654 170.791C233.609 173.582 231.161 174.587 229.816 176.508C227.693 174.901 226.055 178.563 224.863 179.491C223.454 180.592 220.47 181.776 219.17 183.966C213.726 185.06 213.541 186.353 213.228 186.449C210.889 187.192 202.965 188.696 201.467 186.328C200.045 184.074 202.486 182.583 200.969 179.12C204.635 175.189 204.928 172.135 205.177 171.662C205.566 170.925 207.905 169.773 206.165 169.05C214.733 168.128 223.282 167.161 231.914 167.308H231.92Z" fill="#7336BA"/>
<path d="M225.979 192.915C218.756 203.19 214.185 199.432 209.021 200.872C198.266 209.041 196.411 209.035 181.666 206.589C181.264 206.525 181.5 206.128 181.296 206.09C179.46 205.763 177.56 205.987 175.724 205.59L169.783 203.35C168.635 201.353 167.411 198.113 165.824 196.635C167.526 194.535 167.985 196.014 167.927 198.875C174.309 200.36 181.793 203.388 188.226 204.099C201.46 205.558 203.29 201.461 206.796 200.123C209.735 198.997 215.173 197.96 219.176 196.148C222.791 194.509 224.551 191.852 225.985 192.915H225.979Z" fill="#501495"/>
<path d="M199.988 169.543C200.096 170.913 199.414 169.927 199.121 170.042C197.565 170.631 178.848 185.073 171.886 189.183C170.611 189.938 167.526 190.847 166.193 191.667C164.982 192.416 164.02 194.503 162.356 194.151C162.298 193.747 160.571 186.795 160.373 186.193C166.034 184.241 175.074 176.552 179.562 174.51C180.085 174.273 189.475 171.265 190.457 171.028C193.581 170.279 196.813 169.965 199.988 169.536V169.543Z" fill="#501495"/>
<path d="M222.268 105.654C221.356 105.462 221.433 106.096 221.522 106.896C213.783 107.082 222.045 101.845 213.598 95.085C213.464 94.5665 213.891 94.3681 213.846 94.2144C218.698 95.77 221.184 99.9951 220.776 105.027C221.254 105.334 221.758 105.379 222.262 105.648L222.268 105.654Z" fill="#454FB1"/>
<path d="M222.269 105.654C222.919 106 225.016 105.392 225.488 110.5L228.707 112.741C228.574 115.289 231.991 117.44 232.424 119.699C232.628 120.749 232.207 123.182 232.424 123.925C232.501 124.181 233.763 125.077 233.91 125.416C235.816 129.718 237.977 133.847 236.632 138.591C240.571 142.79 240.686 152.463 238.863 157.732C236.957 163.224 232.443 164.633 232.176 165.068C231.436 164.799 230.614 162.994 230.072 162.827C226.565 161.771 211.221 165.631 212.368 158.602C212.528 157.636 216.365 153.558 217.322 152.636C223.467 149.211 230.767 148.661 237.129 146.049C236.893 145.684 236.179 145.505 236.141 145.428C235.057 143.45 232.813 132.682 232.424 129.641C231.678 128.47 227.93 130.947 225.985 130.633C229.128 127.913 231.238 129.007 230.939 125.166C230.48 119.283 221.765 108.989 221.529 106.896C221.44 106.096 221.363 105.462 222.275 105.654H222.269Z" fill="#454FB1"/>
<path d="M217.315 152.636C217.366 152.585 217.086 151.989 217.934 151.394C223.652 148.392 229.791 146.561 236.128 145.428C236.173 145.504 236.88 145.684 237.116 146.049C230.754 148.661 223.461 149.211 217.309 152.636H217.315Z" fill="#454FB1"/>
<path d="M194.046 76.0657C198.534 78.3126 210.124 85.1624 212.368 89.3683C213.216 90.9495 213.369 92.5435 213.853 94.2144C213.898 94.368 213.477 94.5665 213.605 95.085C222.051 101.839 213.789 107.082 221.529 106.896C221.765 108.989 230.479 119.283 230.938 125.166C231.238 129.007 229.128 127.913 225.985 130.633C227.929 130.947 231.671 128.463 232.424 129.641C232.813 132.682 235.057 143.45 236.14 145.428C229.804 146.561 223.664 148.392 217.946 151.394C217.092 151.996 217.379 152.591 217.328 152.636C216.378 153.558 212.534 157.636 212.374 158.602C207.956 161.579 203.94 168.038 197.89 164.569C192.306 169.466 167.896 168.768 165.46 169.792C163.956 170.42 167.194 171.988 154.196 176.508C152.105 177.231 149.491 177.775 147.266 178.499C146.055 178.889 137.11 181.507 137.117 182.231C137.448 183.198 138.226 184.196 138.851 184.964C134.401 191.59 112.745 186.482 108.028 182.724C104.655 180.042 101.882 174.126 100.479 170.042C101.793 168.563 102.405 164.825 102.711 164.076C103.163 162.962 104.547 158.622 104.693 158.359C105.554 156.752 109.347 152.745 110.884 151.644C114.913 148.776 123.551 145.44 128.46 144.928C132.712 144.487 136.263 144.896 140.464 145.428C142.026 144.794 143.486 143.814 145.041 143.187C150.23 141.1 155.432 139.231 160.641 137.221C162.929 136.337 165.339 135.512 167.449 134.238C164.702 134.641 161.846 134.711 159.276 133.489C157.281 134.295 148.892 135.377 148.26 135.729C147.967 135.524 146.801 133.745 146.775 133.617C146.386 131.542 149.249 109.137 151.728 105.776C151.983 98.7019 151.218 78.4983 152.474 73.4602C152.57 73.0697 153.711 70.6883 153.96 70.3554C159.009 63.5632 182.054 70.7139 188.991 73.5882C190.527 74.222 192.522 75.2975 194.065 76.0721L194.046 76.0657Z" fill="#616CD0"/>
<path d="M168.049 104.655C172.027 103.446 176.642 103.1 177.458 98.1898C178.364 92.7548 175.877 88.4977 170.771 86.6284L184.018 86.2571C185.931 91.9482 180.557 93.7215 182.654 101.544C178.013 106.07 179.906 114.335 179.065 115.34C178.982 115.436 176.687 115.916 176.591 115.839C175.023 114.533 180.742 112.299 168.049 104.649V104.655Z" fill="#454FB1"/>
<path d="M177.459 98.1962C176.643 103.106 172.027 103.452 168.049 104.662C167.163 104.124 166.009 104.662 167.182 100.187C174.966 100.161 176.981 95.1298 177.459 98.1962Z" fill="#454FB1"/>
<path d="M161.737 113.605C163.465 113.714 159.187 115.301 159.634 119.2C159.889 121.415 164.268 125.211 166.194 126.287C170.427 128.649 175.973 128.361 170.65 128.771C151.231 124.821 159.768 113.483 161.737 113.605Z" fill="#454FB1"/>
<path d="M187.11 134.487C186.485 131.178 184.598 129.328 186.122 126.037C186.485 125.749 187.174 124.392 188.226 123.553C193.345 119.443 204.667 118.221 205.183 118.957C205.266 119.072 205.222 121.703 205.062 121.818C204.125 122.497 193.797 121.005 187.11 134.5V134.487Z" fill="#4F588F"/>
<path d="M187.11 134.487L182.284 131.504C168.31 132.522 177.618 131.735 183.273 128.271C184.286 127.65 185.191 126.773 186.122 126.031C184.605 129.321 186.486 131.178 187.11 134.481V134.487Z" fill="#2A3970"/>
<path d="M156.657 158.359C156.867 160.465 145.035 164.812 143.167 165.318C142.778 165.427 142.402 164.441 142.179 165.817C140.407 165.606 139.342 165.983 137.602 166.316C137.551 166.323 137.162 165.747 136.614 166.195C136.486 166.892 137.289 166.054 137.602 166.316C137.755 166.444 137.2 167.008 137.602 167.309C136.263 167.686 132.419 168.262 131.781 168.551C129.225 169.716 127.542 174.792 121.505 172.155C123.845 170.791 127.172 165.945 126.331 163.576C132.706 162.488 139.176 161.944 145.641 161.835C149.485 160.184 153.814 155.754 154.802 158.353C155.414 158.301 156.051 158.423 156.657 158.353V158.359Z" fill="#454FB1"/>
<path d="M179.932 155.126C176.165 155.446 166.825 157.079 163.223 158.109C157.652 159.703 152.316 163.154 147.381 164.825C144.953 165.644 140.618 166.47 137.602 167.309C137.2 167.008 137.755 166.444 137.602 166.316C139.349 165.99 140.407 165.606 142.179 165.817C142.403 164.441 142.779 165.426 143.168 165.318C145.042 164.805 156.874 160.465 156.657 158.359C157.046 158.314 161.834 156.624 164.205 156.118C166.819 155.568 177.676 153.801 178.938 153.135C178.632 155.12 179.983 154.268 179.926 155.126H179.932Z" fill="#454FB1"/>
<path d="M186.122 154.128L185.134 152.886C186.874 152.591 190.859 150.479 192.682 150.152C196.628 149.441 202.327 151.336 203.825 146.42C206.924 146.401 212.91 144.365 211.004 145.671C210.532 145.991 205.54 147.367 203.08 150.395C194.505 151.669 194.327 150.555 186.122 154.128Z" fill="#454FB1"/>
<path d="M185.128 152.886L186.117 154.127C185.613 154.345 184.459 155.024 184.261 155.619C183.12 155.561 180.506 155.075 179.926 155.12C179.984 154.268 178.632 155.113 178.938 153.129C179.971 152.585 180.589 151.413 181.042 150.395L181.66 150.517C182.476 152.489 182.948 153.244 185.128 152.879V152.886Z" fill="#454FB1"/>
<path d="M209.27 129.27C209.939 129.513 204.246 141.075 201.097 139.961L209.27 129.27Z" fill="#454FB1"/>
<path d="M221.402 118.579L221.771 118.95L218.68 124.296C206.93 120.468 214.466 125.294 221.402 118.579Z" fill="#454FB1"/>
<path d="M137.595 166.31C137.283 166.041 136.479 166.886 136.607 166.188C137.155 165.74 137.55 166.323 137.595 166.31Z" fill="#454FB1"/>
</svg>
