<svg width="314" height="362" viewBox="0 0 314 362" fill="none" xmlns="http://www.w3.org/2000/svg">
<g clip-path="url(#clip0_1170_2043)">
<path d="M160.473 215.602C158.494 215.781 156.93 215.485 156.105 216.927C155.943 217.211 155.479 217.242 155.143 217.043C154.784 216.826 154.784 216.438 154.991 216.184C155.754 215.234 156.151 214.211 156.081 213.025C156.05 212.495 156.407 212.164 156.969 211.947C157.96 211.566 158.915 211.125 159.892 210.715C160.234 210.57 160.615 210.538 160.881 210.81C161.15 211.089 161.07 211.434 160.814 211.68C159.67 212.77 159.066 213.94 160.473 215.602Z" fill="#374093"/>
<path d="M59.0043 54.3598C57.7151 53.9517 57.0925 52.5973 55.5811 52.8774C54.4658 53.0788 53.7817 54.2528 52.5038 54.0547C52.0345 53.3446 52.6288 53.1025 53.0453 52.8485C53.7213 52.4344 54.3015 51.9768 54.7757 51.3456C55.429 50.4648 56.017 49.1536 57.6466 50.3147C57.7 50.3478 57.8218 50.321 57.9057 50.3088C58.5996 50.1959 59.3719 49.2826 59.9551 50.3843C60.3342 51.109 60.0553 51.8659 59.4997 52.4212C58.9242 52.9976 59.6256 53.6921 59.0161 54.3686L59.0043 54.3598Z" fill="#374093"/>
<path d="M298.778 115.873C300.111 117.49 301.594 116.966 303.183 116.442C303.459 118.103 302.009 119.023 301.567 120.265C301.435 120.643 300.999 120.624 300.655 120.515C299.508 120.153 298.398 120.164 297.258 120.563C296.918 120.68 296.53 120.434 296.45 120.097C296.401 119.902 296.562 119.645 296.694 119.454C296.776 119.329 296.961 119.231 297.128 119.173C298.773 118.627 299.302 117.613 298.769 115.87L298.778 115.873Z" fill="#374093"/>
<path d="M255.356 46.2677C254.491 46.8483 254.445 47.7633 253.987 48.7699C252.813 47.6212 251.297 47.9232 249.706 47.5105C251.403 46.0609 252.847 44.849 255.356 46.2677Z" fill="#ECE1C5"/>
<path d="M24.4693 86.8873C26.0302 86.1662 27.5361 85.4863 29.1113 86.5813C29.4739 86.8369 29.7266 87.175 29.697 87.595C29.6595 88.1384 29.0968 88.0268 28.7316 88.2008C26.8173 89.1047 25.8009 87.6474 24.4693 86.8873Z" fill="#374093"/>
<path d="M184.463 59.6669C183.344 61.5843 183.348 61.5625 181.155 61.4218C180.536 61.3788 179.899 61.5167 179.273 61.523C178.922 61.5242 178.529 61.4543 178.504 61.0288C178.482 60.642 178.796 60.5012 179.163 60.3934C180.81 59.9137 182.422 59.2669 184.463 59.6669Z" fill="#ECE1C5"/>
<path d="M205.942 189.878C205.375 190.162 204.935 190.459 204.448 190.613C203.819 190.815 203.033 191.218 202.607 190.397C202.314 189.82 202.269 189.168 202.843 188.619C203.427 188.059 204.088 188.126 204.782 188.402C205.412 188.655 205.602 189.205 205.944 189.883L205.942 189.878Z" fill="#374093"/>
<path d="M260.45 27.9599C263.404 28.0589 263.619 26.6065 263.898 25.0762C266.265 25.9884 266.594 27.6822 267.966 28.8448C268.386 29.1973 268.093 29.5074 267.739 29.6895C266.558 30.2967 265.894 31.1271 265.724 32.2404C265.671 32.5715 265.109 32.6938 264.613 32.5264C264.325 32.4315 264.084 32.1399 263.912 31.9131C263.796 31.7682 263.78 31.5653 263.806 31.4029C264.09 29.8158 263.073 28.7416 260.44 27.9644L260.45 27.9599Z" fill="#374093"/>
<path d="M54.287 211.861C54.2882 210.219 54.3103 208.645 56.7224 208.213C57.2823 208.116 57.8841 208.156 58.4214 208.461C59.1174 208.854 58.6254 209.196 58.6321 209.584C58.6566 211.611 56.1071 211.385 54.287 211.861Z" fill="#374093"/>
<path d="M116.167 74.9246C118.019 77.0439 117.993 77.0259 116.465 78.5574C116.029 78.9878 115.822 79.5528 115.447 80.0209C115.234 80.2821 114.901 80.5264 114.323 80.2591C113.798 80.0151 113.804 79.6877 113.886 79.343C114.259 77.799 114.389 76.1691 116.167 74.9246Z" fill="#ECE1C5"/>
<path d="M79.367 104.706C78.8301 97.0409 80.2481 89.5842 82.4576 82.2258C85.803 71.053 91.1445 60.6848 98.4065 51.109C99.2188 50.0403 100.169 49.0637 101.057 48.044C101.215 49.0022 101.47 49.9543 101.525 50.9125C101.848 56.8091 103.707 62.3617 106.288 67.73C109.888 75.199 115.952 80.9727 122.829 86.0708C126.993 89.1604 131.399 92.0165 136.465 93.9022L136.52 93.9391C136.575 94.1725 136.733 94.2953 137.009 94.2892C137.009 94.2892 137.188 94.412 137.181 94.412C137.181 94.6209 137.277 94.7191 137.525 94.67C139.211 96.1442 140.21 98.0175 141.263 99.8541C142.509 103.165 143.101 106.604 143.658 110.044C143.514 112.759 144.016 115.449 143.589 118.207C142.543 124.982 140.333 131.358 136.348 137.218C135.075 137.383 134.386 136.591 133.595 135.922C129.341 132.291 125.334 128.452 121.721 124.306C117.949 119.982 114.355 115.535 111.464 110.677C108.064 104.958 104.966 99.1293 103.067 92.8519C102.853 92.1517 102.543 91.476 102.241 90.8065C102.069 90.4257 102.179 89.7378 101.043 90.008C101.298 91.4576 101.415 92.9747 101.848 94.4059C104.292 102.409 108.25 109.829 113.24 116.794C117.825 123.195 122.994 129.196 129.21 134.435C130.263 135.326 131.33 136.216 131.516 137.617C128.239 138.151 125.004 138.839 121.714 139.318C114.493 140.362 107.823 139.251 101.766 135.682C93.361 130.725 87.7854 123.68 83.5865 115.64C81.7486 112.12 80.6542 108.392 79.367 104.713V104.706Z" fill="#55248C"/>
<path d="M155.305 36.3553C163.868 41.9325 170.49 49.0329 175.618 57.2451C183.045 69.1366 186.617 81.9064 186.638 95.5361C186.666 111.242 182.363 125.891 173.725 139.552C173.284 140.252 172.892 140.995 172.204 141.542C171.419 138.808 171.632 135.977 171.371 133.2C171.026 129.607 170.737 125.983 170.572 122.365C170.462 119.976 170.586 117.501 170.056 115.161C169.388 112.212 169.423 109.221 169.251 106.291C169.003 102.041 168.411 97.7841 168.528 93.5091C168.548 92.7659 168.521 92.0104 167.461 91.3839C167.461 96.2363 167.461 100.837 167.461 105.437C167.461 106.082 167.392 106.746 167.537 107.372C168.356 111.021 168.018 114.737 168.466 118.416C168.81 121.291 168.335 124.245 168.638 127.132C169.147 131.935 169.691 136.732 169.636 141.56C169.333 141.505 169.03 141.456 168.727 141.4H168.686C168.617 141.136 168.425 141.001 168.142 140.97V140.915C167.97 140.639 167.86 140.307 167.619 140.086C163.854 136.683 160.502 132.973 157.445 129.054C153.749 124.306 150.989 119.135 148.855 113.705C146.267 107.127 144.58 100.358 143.782 93.4108C143.204 88.3926 143.176 83.4235 144.401 78.4728C146.115 71.5628 149.24 65.1073 152.338 58.6394C154.637 53.8362 156.117 48.8978 156 43.6032C155.945 41.1647 155.263 38.7999 155.305 36.3676V36.3553Z" fill="#55248C"/>
<path d="M262.741 77.8217C263.044 78.0244 263.251 78.2947 263.257 78.6325C263.333 84.7502 263.34 90.8679 261.764 96.8812C259.974 97.0102 259.382 98.2202 258.962 99.4794C256.601 106.574 252.829 113.085 248.72 119.46C245.911 123.809 242.635 127.832 238.58 131.352C233.7 135.59 228.338 139.244 222.494 142.346C213.002 147.383 202.876 149.582 191.863 147.874C190.803 147.708 189.777 147.315 188.669 147.414C188.648 146.75 188.772 146.154 189.323 145.632C192.544 142.592 195.242 139.115 198.739 136.321C202.153 133.587 205.278 130.59 208.686 127.863C212.644 124.7 216.67 121.61 220.883 118.717C221.489 118.299 222.315 118.017 222.15 116.794C220.47 117.802 218.901 118.637 217.455 119.626C210.427 124.429 204.136 129.976 197.652 135.326C194.602 137.838 191.966 140.706 189.35 143.581C188.634 144.373 187.953 145.301 186.659 145.497C185.495 139.14 185.261 132.777 187.01 126.487C188.304 121.819 190.816 117.593 193.528 113.465C198.092 106.537 204.115 100.984 212.396 97.563C213.208 97.2252 213.958 96.7522 214.736 96.3468C215.356 96.3837 216.003 96.5188 216.45 95.9599C218.405 95.3088 220.388 94.7621 222.404 94.2892C226.789 93.2634 231.27 92.7168 235.703 91.9367C241.485 90.9232 247.247 89.7439 252.409 87.0843C256.642 84.9038 259.974 81.8818 262.191 77.9507C262.376 77.9077 262.562 77.8647 262.748 77.8217H262.741ZM226.472 114.724C224.311 114.958 223.871 115.253 223.313 116.715C224.483 116.34 225.371 115.812 226.472 114.724ZM229.776 112.249C228.599 112.519 227.395 112.753 226.858 114.331C228.372 113.883 229.143 113.146 229.776 112.249Z" fill="#55248C"/>
<path d="M67.6926 190.747C61.7522 184.875 58.1728 177.959 56.3832 170.263C56.1973 169.477 56.0665 168.684 55.9082 167.892C56.8856 167.603 57.8837 167.751 58.875 167.788C62.3236 167.917 65.7584 167.745 69.1519 167.173C72.2632 166.651 75.347 166.049 78.4927 165.662C86.2366 164.71 93.9804 164.317 101.752 165.331C106.178 165.908 110.136 167.536 113.309 170.306C118.974 175.257 122.388 181.135 121.81 188.462C121.727 189.507 121.762 190.563 121.734 191.613C119.573 191.362 117.535 190.649 115.546 189.973C110.473 188.247 105.338 186.779 100.024 185.766C95.1437 184.838 90.2289 184.667 84.6465 184.9C86.0851 185.447 86.9387 185.741 87.9574 185.803C90.3804 185.944 92.8309 186.03 95.2125 186.435C100.175 187.277 105.056 188.432 109.84 189.924C112.731 190.827 115.546 191.945 118.554 192.559C119.607 192.774 120.674 193.069 121.191 194.076C120.303 195.815 118.919 197.184 117.26 198.358C116.999 198.425 116.723 198.468 116.482 198.566C110.074 201.226 103.493 202.688 96.2932 201.902C91.1926 201.343 86.3536 200.206 81.7486 198.296C78.9745 197.148 76.2005 196.024 73.8808 194.064C72.4009 192.811 70.8934 191.484 69.0624 190.551C68.4636 190.244 68.0712 190.274 67.6926 190.753V190.747Z" fill="#55248C"/>
<path d="M243.158 163.93C249.711 161.627 253.696 156.854 257.558 151.885C256.987 155.221 256.126 158.384 254.963 161.479C251.487 170.742 245.987 178.93 238.477 186.042C237.486 186.982 236.502 187.94 235.276 188.659C234.54 188.966 233.748 189.2 233.074 189.587C229.556 191.601 225.825 193.217 222.026 194.758C217.531 196.583 212.864 197.909 208.004 198.345C199.703 199.095 191.622 197.75 183.719 195.465C183.995 195.029 184.415 194.746 184.897 194.494C189.956 191.859 194.967 189.175 200.253 186.884C207.894 183.573 215.665 180.564 223.671 178.033C224.504 177.769 225.433 177.652 226.059 176.559C223.478 177.056 221.179 177.585 218.956 178.358C215.762 179.47 212.582 180.6 209.408 181.767C202.14 184.445 195.056 187.418 188.373 191.128C187.23 191.761 186.136 192.51 184.69 192.51C188.297 183.923 194.437 177.062 202.738 171.755C206.421 169.403 210.317 167.223 214.901 166.584C220.002 165.877 225.13 165.54 230.32 166.062C233.728 166.406 237.162 166.203 240.377 164.864L240.398 164.858C241.017 164.919 241.588 164.864 242.001 164.379L242.029 164.372C242.504 164.428 242.889 164.293 243.165 163.93H243.158ZM227.484 176.239C227.422 176.221 227.347 176.166 227.298 176.184C227.078 176.239 227.064 176.331 227.271 176.424C227.319 176.442 227.415 176.424 227.464 176.387C227.491 176.368 227.477 176.295 227.484 176.245V176.239Z" fill="#55248C"/>
<path d="M188.662 147.408C189.77 147.309 190.796 147.702 191.856 147.868C202.869 149.582 213.002 147.377 222.487 142.34C228.331 139.238 233.693 135.584 238.574 131.345C242.628 127.826 245.904 123.803 248.713 119.454C252.829 113.078 256.601 106.568 258.955 99.4732C259.375 98.2141 259.96 97.004 261.757 96.8751C261.612 100.376 260.456 103.699 259.368 107.016C255.651 118.379 249.539 128.551 239.854 136.775C228.441 146.474 214.819 151.363 199.001 151.019C194.967 150.933 190.872 150.73 187.058 149.244C187.595 148.63 188.125 148.016 188.662 147.401V147.408Z" fill="#32679D"/>
<path d="M155.305 36.3553C155.264 38.7876 155.945 41.1524 156 43.5909C156.124 48.8855 154.644 53.8239 152.338 58.6271C149.241 65.095 146.109 71.5505 144.401 78.4605C143.176 83.4112 143.204 88.3803 143.782 93.3985C144.58 100.345 146.267 107.114 148.855 113.693C150.989 119.122 153.742 124.3 157.446 129.042C160.502 132.967 163.854 136.671 167.619 140.074C167.86 140.289 167.97 140.62 168.142 140.903C167.151 141.222 166.662 140.547 166.07 140.074C165.004 139.214 163.95 138.342 162.863 137.5C159.593 134.976 156.296 132.384 153.997 129.091C149.991 123.361 146.212 117.501 144.567 110.787C144.45 110.314 144.14 110.118 143.665 110.038C143.107 106.598 142.515 103.159 141.27 99.8479C142.288 99.074 141.937 98.0237 141.793 97.1269C141.063 92.7045 141.146 88.3127 141.793 83.878C142.116 81.6484 142.426 79.4187 142.791 77.1952C143.307 74.075 144.319 71.053 145.345 68.0617C146.873 63.5962 148.435 59.1308 150.473 54.8067C152.187 51.1704 153.694 47.4298 154.259 43.4926C154.534 41.5824 154.348 39.6168 154.417 37.6759C154.438 37.1231 154.1 36.2939 155.319 36.3553H155.305Z" fill="#F2AEC1"/>
<path d="M184.69 192.51C183.616 193.751 182.109 194.476 180.601 195.188C180.237 192.621 181.083 190.195 182.123 187.91C185.117 181.331 189.536 175.564 195.463 170.797C200.164 167.02 205.506 164.078 211.942 163.543C216.966 163.126 222.074 163.169 226.996 164.452C230.534 165.374 234.037 165.754 237.665 164.95C238.525 164.759 239.468 164.888 240.37 164.864C237.162 166.203 233.721 166.399 230.313 166.062C225.123 165.539 219.995 165.877 214.895 166.584C210.31 167.222 206.414 169.403 202.732 171.755C194.43 177.062 188.297 183.923 184.683 192.51H184.69Z" fill="#F2AEC1"/>
<path d="M131.509 137.604C132.913 137.647 133.849 138.256 134.303 139.453C129.767 140.583 125.238 141.677 120.516 142.076C102.949 143.562 88.1501 135.792 82.0927 119.927C80.2135 115.007 79.064 109.952 79.36 104.706C80.6403 108.386 81.7416 112.114 83.5795 115.634C87.7715 123.674 93.354 130.719 101.759 135.676C107.816 139.251 114.486 140.356 121.707 139.312C125.004 138.833 128.239 138.145 131.509 137.611V137.604Z" fill="#32679D"/>
<path d="M122.726 192.209C122.395 192.007 122.065 191.81 121.734 191.607C121.755 190.557 121.727 189.5 121.81 188.456C122.388 181.129 118.974 175.25 113.309 170.3C110.136 167.53 106.178 165.902 101.752 165.325C93.9804 164.311 86.2365 164.704 78.4927 165.656C75.3469 166.043 72.2632 166.645 69.1519 167.167C65.7583 167.738 62.3235 167.91 58.8749 167.781C57.8837 167.745 56.8856 167.597 55.9082 167.886C55.8324 167.272 55.7636 166.651 55.6672 165.865C60.1139 166.67 64.1063 165.091 68.2501 164.655C72.6211 164.194 77.0127 163.703 81.308 162.886C84.8942 162.204 88.5287 162.284 92.0805 162.247C99.4871 162.174 106.845 163.052 113.343 166.743C121.645 171.461 125.307 181.202 123.455 188.647C123.166 189.82 122.966 191.018 122.726 192.203V192.209Z" fill="#F2AEC1"/>
<path d="M180.484 196.81C181.503 196.251 182.377 195.397 183.726 195.465C191.622 197.743 199.71 199.089 208.011 198.345C212.864 197.909 217.538 196.583 222.033 194.758C225.832 193.217 229.563 191.601 233.081 189.586C233.762 189.2 234.547 188.966 235.283 188.659C233.858 190.373 231.848 191.497 229.983 192.737C223.279 197.191 215.872 200.274 207.571 201.435C198.801 202.663 190.452 201.607 182.735 197.492C182.033 197.117 181.386 196.656 180.491 196.81H180.484Z" fill="#32679D"/>
<path d="M214.723 96.3468C213.945 96.7584 213.201 97.2252 212.382 97.563C204.101 100.984 198.078 106.537 193.515 113.465C190.796 117.587 188.29 121.819 186.996 126.487C185.248 132.783 185.482 139.14 186.645 145.497C186.514 146.29 186.308 147.039 185.454 147.481C184.394 144.392 184.036 141.228 183.671 138.016C182.632 128.913 185.895 120.947 190.768 113.25C193.886 108.324 198.161 104.27 202.876 100.64C206.476 97.864 210.544 95.5361 215.287 94.4305C215.101 95.0692 214.915 95.7142 214.729 96.353L214.723 96.3468Z" fill="#F2AEC1"/>
<path d="M182.749 209.512C188.793 212.264 195.304 212.43 201.864 212.221C210.648 211.944 218.398 208.873 225.805 204.973C234.719 200.28 241.878 193.99 247.281 186.104C248.74 183.972 250.372 181.939 252.038 179.912C251.494 182.111 250.31 184.058 249.064 185.975C240.549 199.132 227.987 207.786 211.845 212.307C203.592 214.622 195.208 214.364 186.9 212.288C185.165 211.852 183.465 211.232 182.15 210.034C182.35 209.856 182.543 209.678 182.742 209.506L182.749 209.512Z" fill="#8884BF"/>
<path d="M67.6927 190.747C68.0713 190.262 68.4636 190.238 69.0625 190.545C70.8935 191.478 72.4009 192.805 73.8809 194.058C76.2006 196.017 78.9746 197.142 81.7486 198.29C86.3605 200.2 91.1996 201.337 96.2933 201.896C103.493 202.682 110.074 201.22 116.482 198.56C116.723 198.462 116.999 198.419 117.26 198.352C114.321 201.417 110.418 203.057 106.199 204.131C99.5079 205.833 92.8998 205.2 86.4706 203.063C79.2844 200.667 73.2751 196.724 68.2365 191.583C68.0024 191.343 67.8716 191.036 67.6858 190.754L67.6927 190.747Z" fill="#32679D"/>
<path d="M73.3644 125.013C71.086 120.302 70.0535 115.296 69.0967 110.284C67.9472 104.295 67.4997 98.2509 67.9885 92.1885C68.7112 83.3252 70.2049 74.5786 73.6811 66.1883C74.0321 66.2374 74.3832 66.2804 74.7342 66.3296C73.3988 70.2545 72.4696 74.2654 71.7193 78.2947C70.5697 84.5045 69.8814 90.7574 69.964 97.0655C70.0397 103.214 71.0309 109.27 72.2699 115.302C72.9376 118.551 73.6122 121.8 74.2799 125.044C73.977 125.031 73.6742 125.013 73.3644 125.001V125.013Z" fill="#8884BF"/>
<path d="M136.458 93.8961C131.392 92.0104 126.986 89.1481 122.822 86.0647C115.945 80.9666 109.874 75.1929 106.281 67.7239C103.693 62.3555 101.841 56.8029 101.518 50.9063C101.463 49.9481 101.215 48.9961 101.05 48.0379C101.215 47.5342 101.765 47.307 101.931 47.7799C102.316 48.9224 102.55 50.1263 102.619 51.3179C102.867 55.5683 104.354 59.5301 106.219 63.3567C109.31 69.6955 114.018 75.0577 119.359 80.0391C124.185 84.5352 129.533 88.4479 135.067 92.1885C135.728 92.6308 136.348 93.0914 136.458 93.8899V93.8961Z" fill="#F2AEC1"/>
<path d="M268.682 60.9735C270.932 66.0409 272.178 71.3417 272.949 76.7223C273.424 80.0084 273.851 83.3129 273.927 86.6236C274.058 92.5571 273.149 98.3984 271.194 104.092C269.893 107.888 268.413 111.623 266.623 115.259C266.1 116.328 265.453 117.353 264.441 118.226C265.612 115.093 266.72 111.942 267.959 108.834C271.277 100.481 272.681 91.8937 271.972 83.0611C271.469 76.7653 270.561 70.5125 268.661 64.407C268.372 63.4734 268.207 62.5091 267.986 61.5632C268.22 61.3666 268.454 61.1762 268.688 60.9797L268.682 60.9735Z" fill="#51419C"/>
<path d="M262.39 175.981C262.177 175.705 261.998 175.582 261.998 175.465C262.191 169.98 261.812 164.477 262.817 159.016C264.861 147.954 273.865 139.803 286.014 138.102C288.389 137.77 288.471 137.776 291.321 138.722C289.731 138.876 288.169 139.152 286.606 139.435C274.298 141.665 266.162 149.312 264.221 160.435C263.464 164.759 263.251 169.114 263.072 173.469C263.037 174.305 263.147 175.201 262.39 175.981Z" fill="#51419C"/>
<path d="M146.762 192.086C146.384 180.785 141.538 171.227 132.521 163.353C129.657 160.859 126.229 159.268 122.072 159.262C120.468 159.262 119.015 159.624 117.742 160.478C115.367 162.069 115.202 164.2 117.288 166.068C117.59 166.338 118.12 166.442 118.093 166.952C115.257 166.651 113.784 164.422 114.796 161.928C115.897 159.213 119.649 157.376 123.235 157.831C127.117 158.328 130.559 159.772 133.395 162.155C141.737 169.163 146.095 177.965 147.616 187.971C147.822 189.322 147.829 190.723 147.217 192.043C147.065 192.05 146.914 192.062 146.769 192.08L146.762 192.086Z" fill="#51419C"/>
<path d="M43.8071 171.24C46.409 176.479 48.8802 181.774 51.8882 186.847C54.5659 191.368 57.7529 195.575 61.5388 199.408C66.1507 204.082 71.6918 207.651 78.1141 210.12C77.8938 210.507 77.4601 210.513 77.0609 210.568C72.7106 209.438 69.0555 207.215 65.5656 204.733C59.4256 200.366 55.0408 194.734 51.2205 188.727C48.2194 184.009 45.8584 179.003 43.7245 173.924C43.4423 173.248 43.3321 172.517 43.1394 171.811C43.3666 171.62 43.5868 171.43 43.8071 171.246V171.24Z" fill="#8C88C2"/>
<path d="M262.191 77.9507C259.974 81.8879 256.636 84.9038 252.409 87.0843C247.24 89.75 241.485 90.9232 235.703 91.9367C231.27 92.7168 226.789 93.2696 222.404 94.2892C220.388 94.7621 218.405 95.3088 216.45 95.9599C215.363 95.0385 216.719 94.3383 216.726 93.5153C219.864 93.1897 222.852 92.2684 225.929 91.7033C229.715 91.0092 233.507 90.438 237.355 90.0572C243.048 89.4859 248.52 88.0056 253.194 85.0082C255.404 83.5955 257.71 82.0968 259.3 79.9531C259.96 79.0686 260.738 78.0429 262.198 77.9569L262.191 77.9507Z" fill="#F2AEC1"/>
<path d="M139.748 157.8C141.655 159.152 142.639 161.105 143.81 162.904C148.442 170.036 151.767 177.603 152.992 185.815C153.825 191.355 153.935 196.902 152.49 202.418C151.464 202.295 151.87 201.674 151.918 201.306C153.288 190.41 151.01 180.066 145.998 170.146C144.546 167.272 142.922 164.471 141.159 161.731C140.533 160.761 139.762 159.833 139.562 158.679C139.624 158.384 139.686 158.095 139.748 157.8Z" fill="#8C88C2"/>
<path d="M239.902 156.713C247.026 151.793 252.809 145.774 258.529 139.717C262.755 135.246 268.021 132.285 274.237 130.602C276.749 129.92 279.33 129.466 281.939 129.183C282.786 129.091 283.722 128.858 284.672 129.675C281.044 130.172 277.637 130.744 274.312 131.714C268.172 133.501 263.216 136.751 259.114 141.124C256.67 143.728 254.35 146.437 251.707 148.863C248.259 152.027 244.7 155.147 239.902 156.707V156.713Z" fill="#51419C"/>
<path d="M85.7823 152.745C78.6786 151.787 73.2338 148.274 68.6357 143.636C61.7591 136.689 58.2348 128.379 56.7136 119.313C56.4727 117.869 56.5828 116.414 57.044 114.909C57.1679 115.861 57.1954 116.831 57.4226 117.765C59.1572 124.73 61.1465 131.603 65.5244 137.727C68.1814 141.45 71.4028 144.711 75.2782 147.432C79.1398 150.141 83.5727 151.701 88.4255 152.34C87.6546 153.052 86.6565 152.579 85.7823 152.751V152.745Z" fill="#51419C"/>
<path d="M138.991 58.4122C139.975 55.0585 141.207 51.7601 141.944 48.345C144.167 38.0506 144.133 27.8114 141.152 17.6214C141.042 17.2344 140.967 16.8352 140.891 16.4421C140.877 16.3683 140.939 16.2885 141.015 16.049C142.116 16.9334 142.488 18.0759 142.935 19.1631C144.03 21.8411 144.553 24.642 144.821 27.449C145.861 38.3085 144.511 48.8794 139.659 58.9834C139.438 58.793 139.218 58.6026 138.998 58.4122H138.991Z" fill="#8C88C2"/>
<path d="M234.664 81.9862C231.965 82.6926 229.79 82.6066 227.622 82.6373C221.358 82.7233 215.142 83.1594 209.271 85.3338C204.859 86.9676 200.88 89.1297 198.436 92.9993C198.374 93.1037 198.14 93.1222 197.617 93.3187C198.168 91.4699 199.07 90.0756 200.371 88.8656C202.732 86.6728 205.574 85.0942 208.679 83.9456C216.932 80.899 225.447 80.2787 234.664 81.9801V81.9862Z" fill="#8884BF"/>
<path d="M111.512 25.9687C110.659 32.4488 109.881 38.935 110.053 45.4827C110.163 49.7823 110.741 53.9897 112.228 58.0928C112.421 58.6272 112.497 59.1923 112.627 59.7451C112.38 59.9907 112.132 60.2303 111.884 60.476C110.039 57.6321 109.33 54.4627 108.814 51.281C107.699 44.371 108.119 37.4793 109.44 30.6246C109.743 29.046 110.349 27.5166 110.817 25.9687C111.051 25.9687 111.285 25.9687 111.519 25.9687H111.512Z" fill="#8884BF"/>
<path d="M129.01 243.123C129.747 238.012 130.71 232.926 131.068 227.779C131.461 222.122 130.628 216.68 127.496 211.643C127.751 211.441 127.998 211.232 128.246 211.029C130.986 213.941 132.142 217.442 132.452 221.09C133.03 227.89 132.5 234.634 130.153 241.194C129.939 241.796 130.242 242.484 129.829 243.067C129.554 243.086 129.286 243.104 129.01 243.123Z" fill="#8C88C2"/>
<path d="M18.2008 172.259C19.2333 174.034 19.8046 175.859 20.789 177.523C20.8578 177.64 20.8578 177.922 20.789 177.953C19.3021 178.61 18.9235 180.005 18.0631 181.086C17.6639 181.589 16.8861 181.54 16.4937 180.907C15.9774 180.072 15.7709 179.114 15.0826 178.334C14.7866 178.002 15.2547 177.597 15.4956 177.271C16.6176 175.742 17.6501 174.176 18.1939 172.259H18.2008Z" fill="#55248C"/>
<path d="M35.2029 87.6309C35.8017 85.9357 36.7241 84.7687 35.5677 83.5218C35.3405 83.2761 35.492 82.883 35.8293 82.6864C36.1941 82.4776 36.5933 82.6311 36.7723 82.9014C37.4469 83.9026 38.3417 84.6335 39.5876 85.0451C40.1452 85.2293 40.3448 85.6531 40.3448 86.1998C40.3448 87.1641 40.4205 88.1223 40.4549 89.0867C40.4687 89.4245 40.3517 89.75 39.9662 89.8606C39.5739 89.9712 39.2503 89.7685 39.0989 89.4613C38.4312 88.0916 37.4675 87.1334 35.2029 87.6309Z" fill="#55248C"/>
<path d="M288.589 117.243C286.854 118.035 286.558 119.46 285.932 120.867C284.61 119.982 283.564 118.883 281.409 118.877C283.433 117.274 284.445 115.64 285.209 113.373C286.055 115.13 286.606 116.653 288.589 117.243Z" fill="#8884BF"/>
<path d="M52.6386 145.7C52.9208 147.665 53.1755 149.465 54.3457 151.345C52.0467 151.339 50.7113 152.278 49.6925 154.397C49.1005 152.475 50.0229 150.921 47.9028 149.895C50.8352 149.269 51.5992 147.45 52.6455 145.706L52.6386 145.7Z" fill="#8884BF"/>
<path d="M241.058 68.1108C241.988 67.2141 243.626 67.2386 243.936 65.8873C244.17 64.8923 243.234 63.8665 243.943 62.896C244.858 62.7916 244.872 63.3751 244.968 63.8174C245.127 64.536 245.367 65.1932 245.829 65.832C246.476 66.7165 247.591 67.7177 245.753 68.5961C245.698 68.6268 245.677 68.7373 245.657 68.811C245.498 69.4253 246.132 70.4203 244.769 70.4633C243.874 70.4879 243.206 69.9596 242.855 69.284C242.49 68.5838 241.499 68.8847 241.045 68.117L241.058 68.1108Z" fill="#55248C"/>
<path d="M83.0151 240.586C80.8262 241.04 80.778 242.465 80.6885 243.976C78.8713 243.546 78.4996 241.992 77.3983 241.139C77.061 240.881 77.2537 240.53 77.5015 240.291C78.3275 239.492 78.7543 238.577 78.7956 237.484C78.8094 237.158 79.2155 236.937 79.5941 237.005C79.8143 237.042 80.014 237.275 80.1585 237.459C80.2549 237.576 80.2824 237.766 80.2755 237.926C80.1861 239.492 81.0189 240.328 83.022 240.58L83.0151 240.586Z" fill="#55248C"/>
<path d="M191.36 48.4003C190.08 48.1792 189.598 46.9876 188.386 47.0674C187.946 47.092 187.815 46.6989 187.836 46.3733C187.939 44.6719 187.299 43.0811 186.37 40.9866C188.565 41.9878 189.398 43.5418 191.023 44.1314C191.099 44.1621 191.154 44.4754 191.078 44.5737C190.156 45.8328 191.298 47.0428 191.367 48.4003H191.36Z" fill="#8C88C2"/>
<path d="M111.877 60.476C112.125 60.2303 112.373 59.9907 112.621 59.7451C113.261 60.1382 113.398 60.7892 113.701 61.3605C115.188 64.1921 116.943 66.8639 119.421 69.112C119.917 69.5665 120.447 70.0088 120.605 70.6722L120.626 70.6537C116.289 68.2275 113.564 64.708 111.884 60.4698L111.877 60.476Z" fill="#928DC4"/>
<path d="M122.801 11.5467C124.405 11.3501 125.231 12.2162 126.394 12.0196C127.275 11.8722 127.179 13.1129 127.778 13.6105C128.115 13.8869 127.448 14.2001 127.172 14.495C126.277 15.4531 125.293 16.3683 124.839 17.6889C125.169 16.3622 123.483 15.5084 123.758 14.6792C124.164 13.4692 123.717 12.683 122.801 11.5528V11.5467Z" fill="#55248C"/>
<path d="M67.0593 46.0785C68.0849 46.2136 68.2914 47.0183 68.9729 47.2271C69.8333 47.4912 70.1224 47.9335 69.6681 48.6767C69.3583 49.1742 69.7576 49.5919 69.8471 50.0525C69.9916 50.7958 69.7782 51.5697 68.8352 51.0107C68.0987 50.5685 67.1557 51.7785 67.2658 51.023C67.4654 49.6287 64.9943 48.8978 66.3572 47.3868C66.6738 47.0367 66.8115 46.5637 67.0593 46.0846V46.0785Z" fill="#8641AD"/>
<path d="M240.639 228.682C239.696 228.043 239.847 226.888 239.069 226.201C238.801 225.961 238.952 225.531 239.276 225.371C240.639 224.69 240.79 223.271 241.933 221.833C242.249 224.542 242.642 226.741 240.639 228.688V228.682Z" fill="#55248C"/>
<path d="M267.243 192.651C268.213 190.876 267.766 189.273 267.752 187.652C268.799 188.555 269.501 189.556 270.492 190.348C271.531 191.183 269.996 192.08 270.815 192.995C269.384 193.131 268.503 192.179 267.243 192.658V192.651Z" fill="#55248C"/>
<path d="M262.349 176.626C262.604 180.189 261.372 183.377 259.286 186.35C258.921 184.544 260.174 183.094 260.669 181.491C261.172 179.857 260.642 177.971 262.349 176.632V176.626Z" fill="#374093"/>
<path d="M36.5795 202.725C38.2315 203.566 39.8767 203.966 40.4274 205.618C40.8128 206.766 40.5306 207.11 39.2503 207.049C38.1489 206.994 37.0614 206.957 37.3436 205.495C37.5157 204.617 36.49 203.935 36.5795 202.731V202.725Z" fill="#8641AD"/>
<path d="M125.383 154.361C124.708 153.464 124.495 152.647 125.369 151.646C126.002 150.921 126.69 150.147 126.725 149.091C126.739 148.642 127.076 148.071 127.757 148.274C128.425 148.47 128.191 149.054 128.115 149.514C127.826 151.382 127.303 153.151 125.383 154.367V154.361Z" fill="#928DC4"/>
<path d="M85.7822 152.745C86.6564 152.573 87.6614 153.046 88.4255 152.334C92.2664 152.463 96.0729 151.983 99.9001 151.842C95.2745 153.126 90.6006 153.869 85.7822 152.745Z" fill="#374093"/>
<path d="M171.405 11C174.998 11.8169 175.088 11.9091 175.783 15.232C174.399 14.7836 172.754 14.9249 172.623 13.0392C172.575 12.3697 171.543 12.0073 171.405 11.0061V11Z" fill="#8641AD"/>
<path d="M171.729 232.472C171.474 231.532 170.552 231.133 169.698 230.359C171.343 229.849 171.632 228.485 172.685 227.343C173.505 229.309 174.179 230.973 171.729 232.472Z" fill="#8C88C2"/>
<path d="M203.392 243.503C202.78 243.417 202.318 243.049 202.47 242.539C202.78 241.464 203.096 240.42 203.007 239.284C202.972 238.891 203.53 238.62 204.012 238.921C205.203 239.671 205.519 242.121 204.583 243.055C204.273 243.362 203.902 243.565 203.399 243.51L203.392 243.503Z" fill="#55248C"/>
<path d="M221.282 26.9023C221.406 28.4686 221.509 29.9735 219.761 30.8334C219.355 31.03 218.908 31.1037 218.488 30.9132C217.944 30.6676 218.281 30.2499 218.247 29.8813C218.075 27.9527 219.974 27.6947 221.282 26.9023Z" fill="#55248C"/>
<path d="M185.991 168.985C184.463 167.308 184.484 167.321 185.496 165.576C185.785 165.085 185.895 164.508 186.136 163.992C186.273 163.703 186.501 163.408 186.948 163.556C187.354 163.691 187.375 164.004 187.34 164.348C187.182 165.89 187.21 167.468 185.991 168.985Z" fill="#8C88C2"/>
<path d="M138.991 58.4122C139.211 58.6026 139.432 58.793 139.652 58.9834C138.909 61.7474 137.449 64.1736 135.315 66.2804L135.336 66.2988C135.322 65.7399 135.295 65.1687 135.584 64.6466C136.713 62.5705 137.855 60.4944 138.991 58.4122Z" fill="#374093"/>
<path d="M128.246 211.029C127.998 211.232 127.744 211.441 127.496 211.643C125.623 209.475 123.331 207.933 119.724 207.829C122.973 206.576 126.153 207.897 128.253 211.023L128.246 211.029Z" fill="#374093"/>
<path d="M227.402 156.443C226.073 154.434 226.768 152.751 227.98 150.853C229.095 152.948 229.46 154.723 227.402 156.443Z" fill="#8641AD"/>
<path d="M289.552 50.3228C289.36 48.2652 290.729 47.3991 292.691 46.8647C292.586 48.7524 291.539 49.9051 289.552 50.3228Z" fill="#55248C"/>
<path d="M58.0283 100.001C59.0195 100.075 59.1434 100.775 59.6666 100.868C61.5595 101.205 61.8004 102.213 61.0639 103.724C60.3549 103.853 59.1572 103.57 58.9989 103.281C58.4689 102.323 58.345 101.193 58.0352 100.001H58.0283Z" fill="#8641AD"/>
<path d="M43.6626 135.123C43.5937 134.546 43.4629 134.067 43.4974 133.606C43.5387 133.01 43.4354 132.205 44.4473 132.181C45.1563 132.169 45.8446 132.39 46.1819 133.078C46.5261 133.778 46.1957 134.294 45.6381 134.754C45.1287 135.172 44.4886 135.111 43.6557 135.123H43.6626Z" fill="#55248C"/>
<path d="M193.377 102.035C192.624 100.949 192.751 99.6063 193.756 98.0052C195.38 100.143 195.38 100.198 193.377 102.035Z" fill="#8641AD"/>
<path d="M214.605 54.2293C215.686 54.3153 216.849 55.1506 216.622 55.642C216.264 56.4036 215.659 57.067 214.626 56.9687C213.779 56.8889 213.463 56.2132 213.532 55.5376C213.6 54.9234 213.814 54.2661 214.599 54.2293H214.605Z" fill="#55248C"/>
<path d="M268.682 60.9735C268.448 61.1701 268.214 61.3605 267.98 61.557C266.761 59.7082 266.155 57.6628 265.171 55.2919C267.009 56.6678 268.165 58.6701 268.675 60.9735H268.682Z" fill="#374093"/>
<path d="M265.357 27.6824C266.176 27.836 266.444 28.2475 266.734 28.6529C267.195 29.2917 267.181 29.8691 266.41 30.2806C265.687 30.6614 264.903 30.858 264.173 30.3174C263.781 30.0226 263.753 29.5497 264.152 29.2855C264.751 28.8801 264.951 28.2843 265.364 27.6947L265.357 27.6824Z" fill="#55248C"/>
<path d="M77.054 210.562C77.4532 210.507 77.8868 210.501 78.1071 210.114C80.2754 210.55 82.3473 211.385 84.8666 211.127C82.7741 212.374 80.241 212.141 77.054 210.562Z" fill="#374093"/>
<path d="M114.259 218.406C115.126 218.044 115.587 218.922 116.324 218.762C116.716 218.676 117.226 218.529 117.315 219.168C117.391 219.714 117.639 220.255 117.597 220.789C117.563 221.268 116.145 221.379 115.808 220.832C115.312 220.034 114.397 219.413 114.252 218.406H114.259Z" fill="#928DC4"/>
<path d="M134.29 53.9406C133.402 52.4173 133.594 51.3424 135.219 50.6299C136.189 52.6691 136.183 52.706 134.29 53.9406Z" fill="#8641AD"/>
<path d="M74.7343 66.3357C74.3833 66.2866 74.0322 66.2436 73.6812 66.1944C74.2731 64.4439 74.8926 62.6995 76.5378 61.4464L76.5102 61.4219C76.4758 63.2154 75.7875 64.8247 74.7343 66.3296V66.3357Z" fill="#374093"/>
<path d="M43.8071 171.24C43.5868 171.43 43.3597 171.62 43.1394 171.805C41.9623 170.257 41.742 168.469 41.5149 166.67C42.9742 167.923 43.277 169.624 43.8071 171.24Z" fill="#374093"/>
<path d="M216.719 93.5153C216.719 94.3383 215.356 95.0385 216.443 95.9599C215.996 96.5188 215.349 96.3837 214.729 96.3468C214.915 95.708 215.101 95.0631 215.287 94.4243C215.982 93.46 215.872 92.1701 216.884 90.9908C217.359 92.0902 216.87 92.7905 216.719 93.5091V93.5153Z" fill="#8641AD"/>
<path d="M209.649 75.9791C208.954 76.0159 208.617 75.6781 208.507 75.1683C208.321 74.3145 208.796 73.7863 209.711 73.6327C210.317 73.5344 210.785 73.8415 210.833 74.3882C210.895 75.1621 210.537 75.7702 209.649 75.9791Z" fill="#55248C"/>
<path d="M129.01 243.123C129.286 243.104 129.554 243.086 129.829 243.067C129.582 244.965 129.017 246.771 127.923 248.436C128.074 246.624 128.136 244.806 129.01 243.129V243.123Z" fill="#374093"/>
<path d="M182.749 209.512C182.549 209.69 182.357 209.868 182.157 210.04C180.161 209.567 179.796 207.946 178.791 206.779C178.963 206.644 179.128 206.508 179.3 206.373C180.45 207.417 181.599 208.462 182.749 209.506V209.512Z" fill="#374093"/>
<path d="M111.512 25.9687C111.278 25.9687 111.044 25.9687 110.81 25.9687C110.831 24.169 111.726 22.6396 112.703 21.1286C112.669 22.8177 112.297 24.4331 111.512 25.9687Z" fill="#374093"/>
<path d="M296.972 83.5095C296.972 84.265 297.041 84.8117 296.959 85.346C296.862 85.9664 296.449 86.3779 295.678 86.1507C294.983 85.948 294.735 85.4197 294.935 84.8301C295.176 84.1053 295.795 83.6938 296.979 83.5095H296.972Z" fill="#8641AD"/>
<path d="M62.4819 215.728C63.1634 215.857 63.893 216.029 63.9825 216.821C64.0444 217.368 63.659 217.743 63.0395 217.792C62.1928 217.859 61.6352 217.442 61.532 216.723C61.4632 216.219 61.766 215.796 62.4819 215.728Z" fill="#55248C"/>
<path d="M251.735 204.131C251.68 204.66 251.411 205.083 250.771 205.065C249.828 205.04 249.642 204.42 249.69 203.726C249.732 203.155 250.165 202.878 250.771 202.928C251.576 202.989 251.714 203.536 251.728 204.131H251.735Z" fill="#8641AD"/>
<path d="M73.3645 125.013C73.6674 125.025 73.9702 125.044 74.28 125.056C75.0441 125.983 74.927 127.064 74.9202 128.145C73.9634 127.261 73.5572 126.18 73.3714 125.013H73.3645Z" fill="#374093"/>
<path d="M79.3808 138.034C79.546 138.139 79.6561 138.176 79.6767 138.237C79.897 138.784 80.8607 139.091 80.3789 139.846C80.1724 140.172 79.7249 140.153 79.4427 139.975C78.6511 139.472 78.5961 138.845 79.3739 138.034H79.3808Z" fill="#8641AD"/>
<path d="M146.762 192.086C146.914 192.074 147.065 192.062 147.21 192.05C147.416 192.959 146.935 193.634 146.164 194.807C145.978 193.456 146.088 192.719 146.762 192.08V192.086Z" fill="#374093"/>
<path d="M253.29 136.554C253.153 136.886 252.898 137.089 252.492 137.052C252.203 137.021 251.962 136.837 252.017 136.579C252.1 136.235 252.43 136.063 252.815 136.081C253.111 136.093 253.27 136.284 253.283 136.554H253.29Z" fill="#8641AD"/>
<path d="M139.748 157.8C139.686 158.095 139.624 158.384 139.562 158.679C138.736 157.985 138.213 157.149 138.055 156.142L138.027 156.166C138.84 156.51 139.466 157.008 139.741 157.806L139.748 157.8Z" fill="#374093"/>
<path d="M241.994 164.379C241.581 164.87 241.01 164.925 240.391 164.858C240.783 164.323 241.396 164.366 241.994 164.379Z" fill="#F2AEC1"/>
<path d="M120.599 70.6721L120.998 70.7827C120.936 70.7704 120.881 70.7581 120.819 70.7397C120.75 70.7151 120.681 70.6844 120.619 70.6537L120.599 70.6721Z" fill="#928DC4"/>
<path d="M127.516 249.842L127.42 250.026L127.358 249.824L127.516 249.842Z" fill="#374093"/>
<path d="M113.295 19.55L113.337 19.7405L113.199 19.7159L113.295 19.55Z" fill="#374093"/>
<path d="M243.158 163.93C242.883 164.293 242.497 164.422 242.022 164.372C242.284 163.986 242.69 163.893 243.158 163.93Z" fill="#F2AEC1"/>
<path d="M181.021 156.044C181.042 155.884 181.124 155.761 181.276 155.675C181.331 155.878 181.228 155.988 181.021 156.044Z" fill="#A272B1"/>
<path d="M116.606 260.499C116.4 260.204 116.627 260.155 116.875 260.112C116.833 260.266 116.744 260.395 116.606 260.499Z" fill="#9358A3"/>
<path d="M115.47 259.707C115.47 259.873 115.395 260.001 115.236 260.087C115.34 259.971 115.415 259.842 115.47 259.707Z" fill="#9358A3"/>
<path d="M138.062 156.136C137.986 156.105 137.841 156.062 137.848 156.037C137.876 155.89 137.952 155.933 138.034 156.154L138.062 156.13V156.136Z" fill="#374093"/>
<path d="M76.531 61.4465C76.5654 61.385 76.5998 61.3236 76.6342 61.2683C76.5929 61.3236 76.5447 61.3728 76.5034 61.428L76.531 61.4526V61.4465Z" fill="#374093"/>
<path d="M262.741 77.8218C262.555 77.8648 262.369 77.9078 262.184 77.9507C262.28 77.6068 262.459 77.5208 262.741 77.8218Z" fill="#F2AEC1"/>
<path d="M137.009 94.283C136.733 94.2953 136.575 94.1725 136.52 93.9329C136.685 94.0496 136.85 94.1663 137.009 94.283Z" fill="#F2AEC1"/>
<path d="M134.118 256.992C134.118 257.305 133.946 257.514 133.622 257.618C133.67 257.336 133.835 257.127 134.118 256.992Z" fill="#A272B1"/>
<path d="M135.316 66.2805C135.281 66.3361 135.24 66.3917 135.205 66.4411C135.247 66.3917 135.295 66.3422 135.337 66.2928L135.316 66.2743V66.2805Z" fill="#374093"/>
<path d="M137.525 94.67C137.284 94.7191 137.181 94.6209 137.181 94.412C137.325 94.4612 137.442 94.5471 137.525 94.67Z" fill="#F2AEC1"/>
<path d="M169.616 142.076C169.147 142.033 168.672 141.996 168.721 141.407C169.024 141.456 169.326 141.511 169.629 141.566C169.629 141.738 169.622 141.91 169.616 142.082V142.076Z" fill="#F2AEC1"/>
<path d="M168.686 141.394C168.308 141.45 168.135 141.296 168.135 140.97C168.425 141.007 168.617 141.136 168.686 141.394Z" fill="#F2AEC1"/>
<path d="M226.472 114.731C225.371 115.818 224.483 116.346 223.313 116.721C223.871 115.259 224.311 114.964 226.472 114.731Z" fill="#9358A3"/>
<path d="M229.776 112.255C229.143 113.152 228.372 113.889 226.858 114.338C227.395 112.753 228.606 112.526 229.776 112.255Z" fill="#9358A3"/>
<path d="M227.484 176.239C227.484 176.288 227.491 176.362 227.464 176.381C227.415 176.411 227.319 176.436 227.271 176.417C227.064 176.331 227.078 176.233 227.298 176.178C227.354 176.166 227.422 176.215 227.484 176.233V176.239Z" fill="#9358A3"/>
<path fill-rule="evenodd" clip-rule="evenodd" d="M266.756 351.922L266.758 351.922C267.923 352.164 269.089 352.406 270.258 352.627L270.299 352.651C270.79 352.745 271.287 352.816 271.784 352.887H271.785C273.017 353.064 274.242 353.239 275.331 353.751C268.716 353.518 262.218 352.326 255.761 350.925C251.748 350.606 247.969 349.439 244.238 348.192C236.433 345.576 228.579 343.106 220.683 340.723C214.764 338.936 209.147 336.51 204.191 332.965C203.285 332.317 202.364 331.687 201.443 331.058C199.059 329.429 196.679 327.802 194.588 325.853C194.488 325.76 194.325 325.72 194.09 325.664L194.09 325.664C193.953 325.631 193.792 325.592 193.604 325.533C193.663 326.084 193.717 326.62 193.771 327.147L193.771 327.148L193.771 327.149C193.89 328.332 194.004 329.465 194.161 330.595C194.43 332.56 194.605 334.535 194.78 336.511L194.78 336.512L194.78 336.512L194.78 336.512L194.78 336.513C195.09 340.008 195.4 343.504 196.227 346.945C197.238 351.165 199.042 355.115 201.465 358.843C201.777 359.322 202.087 359.802 202.424 360.322L202.429 360.33C202.759 360.841 203.115 361.391 203.523 362.018C200.653 360.581 199.345 358.48 198.071 356.355C194.506 350.428 193.556 343.966 193.212 337.376C193.189 336.95 193.167 336.523 193.145 336.097C192.999 333.298 192.854 330.496 192.537 327.708C192.248 325.116 191.346 322.726 189.295 320.675C186.287 317.659 183.595 314.422 181.496 310.792C179.734 307.739 177.111 305.276 174.034 303.194C171.596 301.543 169.044 300.045 166.492 298.549L166.492 298.548L166.491 298.548C164.202 297.205 161.914 295.863 159.71 294.41C155.917 291.911 152.393 289.134 150.059 285.369C149.288 284.663 148.779 283.815 148.435 282.881C148.406 282.845 148.377 282.808 148.349 282.771L148.325 282.739L148.283 282.685C148.234 282.619 148.184 282.553 148.132 282.488L148.083 282.424C147.576 281.751 147.065 281.074 146.859 280.265C145.861 280.406 145.867 281.1 145.895 281.745C146.042 285.456 145.942 289.165 145.842 292.875C145.75 296.275 145.659 299.675 145.757 303.077C145.813 305.089 146.675 306.929 147.527 308.749L147.527 308.749C147.616 308.941 147.706 309.132 147.795 309.324C148.084 309.944 148.82 310.46 149.467 310.872C149.75 311.051 150.031 311.233 150.313 311.416L150.313 311.416C151.718 312.326 153.13 313.24 154.747 313.838C159.015 315.423 161.899 318.47 164.742 321.504C168.356 325.361 171.364 329.593 174.007 334.028C174.253 334.439 174.435 334.882 174.652 335.408C174.768 335.691 174.895 335.998 175.046 336.338C173.827 335.775 173.308 335.035 172.786 334.291L172.761 334.255C169.381 329.464 165.802 324.809 161.568 320.564C159.442 318.427 157.156 316.529 154.362 315.11C153.198 314.518 152.064 313.881 150.934 313.246L150.934 313.246L150.934 313.246L150.934 313.246L150.934 313.246C150.399 312.946 149.865 312.646 149.33 312.352C148.831 312.937 149.03 313.399 149.226 313.855C149.255 313.921 149.283 313.987 149.309 314.053C150.638 317.407 152.193 320.675 153.845 323.912C154.128 324.463 154.327 325.045 154.526 325.628L154.526 325.628L154.526 325.628C154.618 325.897 154.709 326.165 154.809 326.43C155.25 326.842 155.566 327.315 155.704 327.874C156.449 328.704 156.716 329.691 156.984 330.682C157.092 331.083 157.201 331.485 157.342 331.878C157.184 331.701 157.021 331.526 156.859 331.352L156.858 331.351C156.077 330.511 155.303 329.678 154.995 328.58C154.895 328.421 154.797 328.26 154.7 328.099L154.699 328.099L154.699 328.098L154.699 328.098L154.699 328.098C154.601 327.936 154.503 327.775 154.403 327.616C154.052 327.382 153.825 327.081 153.804 326.676C151.097 322.263 149.201 317.563 147.301 312.851C146.94 311.955 146.579 311.06 146.212 310.165C143.913 304.549 144.19 298.916 144.472 293.189L144.472 293.188L144.488 292.859L144.505 292.519C144.739 287.771 144.911 283.01 144.532 278.256C144.517 278.068 144.482 277.879 144.447 277.689C144.35 277.166 144.252 276.639 144.58 276.125C144.408 275.471 144.234 274.818 144.061 274.166C143.887 273.513 143.713 272.86 143.541 272.206C143.162 272.059 142.811 272.12 142.481 272.335C142.486 272.569 142.494 272.803 142.502 273.037C142.548 274.372 142.594 275.707 142.152 277H142.271C141.521 280.348 140.124 283.492 138.527 286.582C137.668 288.243 136.845 289.919 136.021 291.595L136.021 291.595L136.021 291.595L136.021 291.596L136.02 291.596C134.771 294.139 133.522 296.68 132.153 299.167C131.002 301.255 129.615 303.242 128.23 305.227L128.23 305.227L128.23 305.227L128.229 305.228L128.229 305.228L128.229 305.228C127.842 305.783 127.455 306.338 127.073 306.894C123.886 311.55 123.459 316.218 126.543 321.108C129.255 325.413 131.458 329.946 133.447 334.547C134.39 336.727 135.257 338.951 134.417 341.414C131.898 333.607 128.085 326.316 123.659 319.099C121.786 322.373 122.523 335.935 124.898 344.516C125.444 345.092 125.514 345.807 125.588 346.559C125.597 346.641 125.605 346.724 125.614 346.807C125.433 346.566 125.209 346.353 124.986 346.14L124.986 346.139C124.504 345.679 124.022 345.22 123.975 344.485C122.275 340.695 121.731 336.684 121.353 332.674C120.926 328.159 120.864 323.626 121.291 319.105C121.807 313.694 123.583 308.651 127.032 304.137L127.018 304.13C130.046 300.169 132.318 295.869 134.417 291.483C135.165 289.921 135.964 288.378 136.763 286.835L136.763 286.835L136.763 286.835L136.763 286.835L136.763 286.835C138.252 283.96 139.741 281.085 140.895 278.084H140.815C140.781 277.654 140.911 277.267 141.256 276.954L141.4 272.728C141.145 272.415 141.159 272.102 141.4 271.788C141.364 271.64 141.327 271.492 141.291 271.344L141.225 271.075L141.223 271.068L141.137 270.717L141.049 270.357C140.636 270.124 140.312 270.253 140.044 270.572C139.259 275.646 137.27 280.32 134.166 284.62C134.137 284.658 134.109 284.698 134.081 284.737C134.043 284.79 134.005 284.844 133.967 284.898C133.673 285.317 133.381 285.733 132.911 286.023C133.064 286.192 132.126 287.379 127.779 291.675C127.589 292.273 127.51 292.299 127.315 292.363C127.262 292.381 127.2 292.401 127.125 292.437C126.891 292.842 126.581 293.186 126.12 293.401L126.14 293.53L126.016 293.604C125.844 293.769 125.679 293.929 125.507 294.089C125.335 294.255 125.156 294.427 124.977 294.592L124.13 295.661L124.144 295.655C123.601 296.663 122.711 297.395 121.821 298.127C121.458 298.425 121.096 298.723 120.757 299.039C120.544 299.242 120.262 299.39 119.966 299.328C119.98 299.494 119.918 299.691 119.808 299.899C119.697 300.292 119.401 300.532 118.982 300.655C117.903 301.745 116.852 302.855 115.801 303.964C113.464 306.432 111.129 308.898 108.498 311.14C106.103 313.179 103.439 314.794 100.396 315.925C93.6299 318.443 86.8842 321.029 80.5445 324.333C75.8569 326.778 71.3552 329.499 66.8603 332.226C64.9536 333.387 64.4029 334.898 64.2928 336.747C64.2699 337.123 64.248 337.5 64.226 337.876C64.0689 340.564 63.9119 343.251 63.453 345.923C62.6339 350.721 60.5344 355.069 57.781 359.203C57.2717 359.965 56.6453 360.665 55.6128 361.205C55.5563 360.096 56.0551 359.212 56.5402 358.352C56.587 358.269 56.6337 358.186 56.6797 358.104C60.2247 351.709 62.2002 344.959 62.5926 337.834C62.5963 337.769 62.6002 337.703 62.6041 337.638C62.6287 337.223 62.6536 336.804 62.6476 336.384C62.6435 336.303 62.5867 336.224 62.4803 336.075C62.4104 335.977 62.319 335.85 62.2071 335.672C59.2373 337.593 56.5279 339.762 53.8264 341.925C52.1135 343.296 50.4038 344.665 48.633 345.966C43.9178 349.431 40.7859 353.97 37.7847 358.601L37 358.159C39.127 352.182 43.3603 347.514 48.5779 343.491C53.1003 340.008 57.6571 336.563 62.2759 333.184C65.1556 331.07 68.2948 329.265 71.4296 327.462C71.7193 327.296 72.0088 327.129 72.2982 326.962C72.4053 326.9 72.521 326.844 72.6391 326.787C73.1509 326.541 73.7102 326.271 73.8332 325.353C70.6129 325.571 67.6402 326.494 64.6866 327.411C62.5705 328.068 60.4642 328.722 58.2835 329.112C58.3296 328.649 58.6992 328.393 59.0566 328.145C59.126 328.097 59.1949 328.049 59.261 328C59.7497 327.638 60.2797 327.318 60.8373 327.06C65.6419 324.862 70.653 323.308 76.1391 323.32C77.7085 323.326 79.1954 323.043 80.5858 322.386C86.9943 319.364 93.6093 316.76 100.341 314.377C104.864 312.78 108.078 309.666 111.265 306.564C112.081 305.772 112.856 304.949 113.632 304.126C114.953 302.725 116.273 301.323 117.791 300.077C117.9 299.987 118.009 299.889 118.118 299.79C118.47 299.473 118.83 299.149 119.25 299.046H119.264C119.236 299.033 119.209 299.015 119.202 298.996C119.119 298.751 119.305 298.603 119.532 298.493C120.64 297.197 121.928 296.048 123.277 294.961C123.332 294.887 123.387 294.813 123.442 294.74C123.605 294.521 123.766 294.305 123.931 294.089C124.426 293.247 125.218 292.639 126.016 292.043C126.027 292.025 126.037 292.007 126.047 291.989C126.235 291.656 126.425 291.32 126.973 291.466C126.973 291.46 127.049 291.46 127.049 291.46C127.093 291.306 129.211 288.812 130.528 287.425C130.562 287.201 130.774 287.008 131.006 286.837L130.972 286.788C130.982 286.791 130.991 286.796 130.999 286.8C131.008 286.805 131.016 286.809 131.027 286.812L131.481 286.297C131.701 285.99 131.921 285.69 132.14 285.39L132.142 285.387C132.401 284.989 132.66 284.59 132.919 284.19C133.601 283.138 134.284 282.085 134.978 281.039C137.256 277.611 138.344 273.822 139.335 269.995L139.358 269.897L139.378 269.811L139.397 269.731L139.403 269.705L139.424 269.614L139.459 269.467C139.481 269.303 139.5 269.137 139.52 268.971L139.52 268.97L139.52 268.969C139.538 268.818 139.556 268.666 139.576 268.515C139.588 268.462 139.601 268.409 139.613 268.356L139.637 268.256L139.658 268.163L139.659 268.16C139.686 268.042 139.714 267.924 139.741 267.808C139.728 267.641 139.715 267.473 139.703 267.306C139.689 267.125 139.676 266.944 139.662 266.763L139.662 266.758C139.636 266.408 139.61 266.058 139.583 265.708C140.154 264.344 140.368 262.944 140.257 261.476C140.058 258.847 140.271 256.212 140.581 253.38C138.729 253.656 137.408 254.234 136.582 255.567C135.976 256.549 135.322 257.508 134.276 258.183C133.024 260.022 131.163 261.318 129.314 262.606L129.312 262.607L129.312 262.607C129.098 262.756 128.885 262.905 128.673 263.054C127.833 263.65 127.723 264.111 128.06 265.063C129.113 268.017 128.432 270.879 127.069 273.643C126.598 272.964 126.743 272.296 126.888 271.63C126.921 271.478 126.954 271.326 126.979 271.174C127.262 269.491 127.489 267.796 127.262 266.107C127.096 264.891 126.312 264.651 125.203 265.419C123.249 266.776 121.734 268.478 120.426 270.345C120.315 270.506 120.219 270.678 120.121 270.852C119.811 271.402 119.488 271.976 118.657 272.317C118.758 270.271 120.012 268.821 121.242 267.399C121.356 267.267 121.47 267.136 121.583 267.004C122.739 265.652 124.205 264.547 125.747 263.546C128.535 261.74 131.22 259.842 133.636 257.643H133.642C133.966 257.538 134.138 257.33 134.138 257.016C134.151 256.9 134.206 256.749 134.262 256.595C134.442 256.098 134.637 255.56 133.519 255.972C131.202 256.829 128.769 257.326 126.337 257.824C123.574 258.389 120.812 258.953 118.224 260.044C117.962 260.153 117.649 260.159 117.335 260.166H117.335H117.335H117.335H117.334H117.334C117.186 260.169 117.038 260.172 116.895 260.186C116.893 260.183 116.891 260.18 116.889 260.176C116.882 260.165 116.874 260.152 116.874 260.143C116.634 260.186 116.413 260.241 116.62 260.53C116.533 260.592 116.448 260.663 116.364 260.734C116.181 260.887 115.996 261.042 115.78 261.113C110.802 262.724 106.972 265.766 103.14 268.811L103.139 268.812C102.44 269.367 101.741 269.921 101.036 270.468C98.0483 272.777 94.9163 274.939 91.3438 276.561C91.6452 276.298 91.9429 276.03 92.2408 275.762C92.943 275.13 93.6461 274.498 94.4001 273.92C96.4555 272.337 98.5269 270.771 100.599 269.204L100.6 269.203L100.602 269.201L100.604 269.2L100.606 269.199C102.125 268.05 103.645 266.9 105.159 265.744C108.201 263.417 111.526 261.482 115.243 260.118C115.401 260.032 115.477 259.903 115.477 259.737C115.347 259.718 115.216 259.699 115.085 259.68C114.987 259.667 114.89 259.653 114.792 259.639C114.563 259.607 114.334 259.575 114.107 259.541C109.661 260.259 105.138 260.401 100.65 260.456C97.2223 260.499 95.054 261.844 93.5052 264.356C93.4352 264.47 93.3685 264.586 93.3018 264.702L93.3016 264.703C93.0407 265.157 92.7789 265.613 92.3075 265.941C91.5366 267.673 89.9396 268.742 88.2945 269.706C83.7223 272.384 79.1278 275.039 74.5355 277.692L74.5325 277.694C72.869 278.655 71.2058 279.616 69.544 280.578C68.8764 281.291 68.1467 281.905 66.8044 282.273C67.2932 281.106 67.7957 280.351 68.897 280.025C71.7218 277.675 74.9628 275.852 78.2021 274.031L78.2036 274.03L78.2047 274.029L78.2058 274.029L78.2066 274.028C79.1731 273.485 80.1394 272.942 81.0944 272.384C83.366 271.058 85.6513 269.755 87.971 268.496C89.1385 267.864 90.0252 266.988 90.9126 266.111C91.171 265.856 91.4294 265.601 91.6949 265.351C91.8496 264.736 92.2004 264.196 92.5588 263.644C92.9659 263.018 93.3827 262.376 93.5328 261.592C92.2665 261.394 91.1522 261.739 90.0504 262.08L90.0502 262.08L90.0501 262.08L90.0499 262.08L90.0497 262.08C89.5107 262.247 88.9747 262.413 88.4253 262.514C86.9109 263.361 85.2245 263.73 83.4899 264.037C84.5568 262.999 85.727 262.182 87.317 262.004L87.3721 261.992C87.6337 261.635 88.0191 261.525 88.4734 261.549H88.4872C88.7626 261.205 89.1343 261.07 89.5955 261.119C92.872 259.768 96.3963 259.461 99.9206 259.24C101.065 259.168 102.209 259.099 103.354 259.031C109.62 258.656 115.887 258.281 122.085 257.305C122.427 257.25 122.77 257.198 123.114 257.146L123.114 257.146L123.114 257.146L123.115 257.146L123.115 257.146L123.115 257.146L123.116 257.146L123.116 257.146L123.116 257.146C124.821 256.887 126.553 256.624 128.328 256.021C127.341 255.334 126.208 255.267 125.102 255.202C124.042 255.139 123.006 255.078 122.147 254.473C122.264 254.117 122.491 253.89 122.891 253.853C124.997 253.669 127.138 253.693 128.955 254.713C130.29 255.456 131.419 255.432 132.775 254.946C133.228 254.783 133.683 254.625 134.138 254.466L134.14 254.465L134.142 254.465L134.144 254.464L134.146 254.463L134.146 254.463L134.146 254.463C135.71 253.919 137.275 253.373 138.75 252.637C140.237 251.888 141.2 250.868 141.662 249.326C143.321 243.774 145.668 238.424 148.049 233.092C148.669 231.71 148.827 230.267 148.924 228.823C149.158 225.427 148.951 222.036 148.284 218.676C147.1 212.706 143.493 207.94 138.895 203.671C134.503 199.586 129.327 196.527 123.51 194.298L123.426 194.265L123.362 194.24C122.653 193.963 121.977 193.699 121.211 194.101C120.695 193.094 119.628 192.799 118.575 192.584C116.461 192.152 114.442 191.472 112.425 190.792L112.425 190.792L112.425 190.792L112.425 190.792L112.425 190.792C111.572 190.504 110.719 190.217 109.86 189.949C105.076 188.456 100.196 187.302 95.233 186.46C93.2073 186.115 91.1318 186.002 89.0658 185.888C88.7027 185.868 88.34 185.849 87.9778 185.827C86.9591 185.766 86.1056 185.471 84.6669 184.924C90.2494 184.691 95.1641 184.863 100.044 185.791C105.358 186.804 110.494 188.272 115.567 189.998L115.8 190.077C117.715 190.729 119.678 191.396 121.755 191.638C121.92 191.739 122.085 191.839 122.25 191.939C122.302 191.97 122.355 192.002 122.407 192.033C122.435 192.051 122.464 192.068 122.493 192.086L122.603 192.153L122.746 192.24C128.962 194.764 134.709 197.866 139.569 202.27C146.535 208.578 150.823 215.888 151.14 224.862C151.152 225.141 151.201 225.42 151.25 225.7L151.271 225.82C151.275 225.846 151.326 225.863 151.418 225.894C151.475 225.913 151.548 225.938 151.636 225.973C152.171 225.708 152.321 225.207 152.469 224.715C152.522 224.536 152.576 224.358 152.648 224.192C154.871 219.068 156.539 213.791 158.207 208.518L158.208 208.517C158.435 207.798 158.662 207.079 158.891 206.361C159.275 205.154 159.637 203.94 159.998 202.725C160.801 200.026 161.604 197.327 162.663 194.709C165.203 188.438 164.563 182.363 162.291 176.196C159.806 169.452 156.199 163.261 151.601 157.493C146.446 151.019 140.994 144.785 134.324 139.478C133.87 138.28 132.933 137.672 131.529 137.629C131.345 136.241 130.296 135.354 129.252 134.472L129.223 134.447C123.008 129.208 117.838 123.207 113.254 116.807C108.263 109.841 104.305 102.422 101.862 94.4182C101.562 93.4299 101.414 92.4005 101.267 91.3808L101.267 91.3807L101.267 91.3801C101.201 90.9234 101.135 90.4686 101.056 90.0203C101.97 89.8028 102.078 90.206 102.174 90.5702V90.5702C102.198 90.6585 102.22 90.7445 102.254 90.8188L102.287 90.8925C102.58 91.5379 102.875 92.1896 103.08 92.8642C104.98 99.1416 108.077 104.971 111.478 110.689C114.369 115.548 117.962 119.995 121.734 124.319C125.348 128.465 129.354 132.304 133.608 135.934C133.707 136.018 133.805 136.104 133.903 136.19L133.905 136.191L133.905 136.192C134.583 136.789 135.249 137.375 136.361 137.23C135.806 138.39 136.599 139.049 137.392 139.709L137.392 139.709C137.464 139.769 137.536 139.829 137.607 139.889C140.953 142.727 144.036 145.761 146.9 149.011C149.922 152.444 152.827 155.945 155.518 159.581C159.944 165.552 163.296 171.958 164.762 179.065C164.781 179.157 164.798 179.251 164.816 179.344L164.816 179.346C164.933 179.979 165.053 180.628 165.616 181.184C165.663 181.111 165.702 181.056 165.733 181.012C165.789 180.932 165.82 180.887 165.829 180.84C167.867 170.656 169.285 160.398 169.815 150.061C169.826 149.855 169.837 149.649 169.848 149.442V149.442C169.979 146.997 170.112 144.529 169.636 142.088L169.636 142.087C169.643 141.916 169.65 141.744 169.65 141.572C169.702 137.01 169.219 132.476 168.736 127.937L168.736 127.937L168.652 127.144C168.504 125.738 168.541 124.316 168.578 122.894C168.617 121.398 168.656 119.903 168.479 118.428C168.299 116.941 168.246 115.448 168.193 113.956C168.116 111.756 168.038 109.558 167.55 107.384C167.441 106.911 167.454 106.415 167.466 105.923V105.922V105.921V105.921V105.92C167.47 105.762 167.474 105.606 167.474 105.45V91.3962C168.535 92.0227 168.562 92.7782 168.541 93.5214C168.463 96.4026 168.706 99.2754 168.949 102.144V102.144V102.144V102.144V102.144C169.066 103.532 169.183 104.918 169.264 106.303C169.304 106.974 169.332 107.648 169.361 108.323L169.361 108.325C169.457 110.601 169.555 112.9 170.07 115.173C170.46 116.895 170.495 118.69 170.531 120.47V120.47V120.471C170.544 121.11 170.557 121.747 170.586 122.378C170.751 125.996 171.04 129.62 171.384 133.213C171.469 134.108 171.504 135.01 171.539 135.912C171.612 137.806 171.686 139.702 172.217 141.554C171.797 142.455 171.804 143.404 171.811 144.353L171.811 144.398C171.901 153.015 171.164 161.578 169.739 170.097L169.718 170.223L169.69 170.384L169.69 170.385L169.688 170.399C169.501 171.484 169.313 172.579 169.538 173.685C168.853 173.966 168.946 174.455 169.04 174.943C169.056 175.03 169.073 175.116 169.085 175.201C169.72 174.818 169.719 174.265 169.591 173.681C170.25 173.546 170.375 173.08 170.494 172.632C170.535 172.481 170.574 172.332 170.634 172.198C171.697 169.81 172.891 167.483 174.276 165.236L174.275 165.208L174.398 165.028C174.424 164.98 174.45 164.931 174.477 164.882C174.628 164.602 174.786 164.31 175.039 164.084L177.084 161.074C178.735 156.761 181.3 153.23 183.831 149.748C184.382 148.991 184.93 148.236 185.468 147.475C186.321 147.033 186.528 146.283 186.659 145.491C187.812 145.316 188.479 144.56 189.117 143.837L189.17 143.777L189.238 143.7C189.275 143.658 189.313 143.616 189.35 143.575C191.966 140.7 194.602 137.832 197.651 135.32C199.003 134.205 200.345 133.081 201.688 131.958L201.688 131.958C206.79 127.69 211.892 123.422 217.455 119.62C218.431 118.952 219.464 118.354 220.55 117.726C221.071 117.424 221.605 117.115 222.15 116.788C222.29 117.829 221.713 118.188 221.164 118.53L221.164 118.53L221.164 118.53C221.068 118.59 220.973 118.649 220.883 118.711C216.67 121.604 212.644 124.693 208.686 127.857C206.982 129.22 205.349 130.652 203.714 132.084C202.081 133.516 200.446 134.948 198.739 136.315C196.618 138.01 194.79 139.957 192.961 141.904L192.961 141.904C191.776 143.167 190.59 144.43 189.323 145.626C188.772 146.148 188.648 146.744 188.669 147.408C188.4 147.715 188.133 148.022 187.867 148.329C187.6 148.636 187.333 148.943 187.065 149.25C185.845 149.209 185.326 149.959 184.821 150.689L184.821 150.69C184.728 150.824 184.635 150.958 184.539 151.087C183.713 152.188 182.927 153.315 182.142 154.442C181.854 154.855 181.566 155.269 181.276 155.681C181.124 155.767 181.042 155.89 181.021 156.05C179.647 158.686 177.803 162.199 176.229 164.484C175.978 165.427 175.422 166.243 174.872 167.05L174.872 167.05C174.465 167.647 174.062 168.239 173.787 168.875C173.002 170.674 172.135 172.437 171.26 174.2C170.913 174.9 170.657 175.63 170.402 176.359C170.013 177.466 169.626 178.572 168.92 179.568C167.75 181.72 167.274 184.06 166.805 186.365C166.733 186.72 166.661 187.073 166.587 187.424C165.155 194.18 162.921 200.724 160.685 207.274C160.394 208.126 160.103 208.978 159.813 209.831C159.775 209.946 159.724 210.059 159.674 210.171C159.587 210.364 159.5 210.555 159.483 210.753C159.459 211.004 159.343 211.279 159.226 211.552C158.967 212.162 158.709 212.768 159.483 213.111C160.228 213.444 160.656 212.792 161.045 212.201L161.045 212.201C161.158 212.028 161.269 211.86 161.383 211.723C164.68 207.761 168.411 204.156 172.451 200.79C173.781 199.687 175.26 198.76 176.739 197.833C178.068 196.999 179.396 196.166 180.615 195.207C182.122 194.494 183.63 193.769 184.704 192.529C185.959 192.529 186.949 191.964 187.936 191.401C188.086 191.315 188.236 191.23 188.386 191.147C195.07 187.437 202.153 184.464 209.422 181.786C212.595 180.619 215.775 179.489 218.969 178.377C221.193 177.603 223.492 177.075 226.073 176.577C225.535 177.516 224.774 177.735 224.042 177.945L224.042 177.945C223.922 177.98 223.802 178.014 223.685 178.051C215.679 180.582 207.908 183.592 200.267 186.902C195.623 188.915 191.192 191.231 186.753 193.55C186.139 193.871 185.525 194.192 184.91 194.513C184.428 194.764 184.008 195.047 183.733 195.483C182.708 195.432 181.957 195.912 181.209 196.391L181.208 196.392C180.972 196.543 180.736 196.694 180.491 196.828C179.401 197.664 178.239 198.419 177.076 199.175C175.463 200.224 173.848 201.273 172.424 202.541C167.536 206.883 163.007 211.447 159.325 216.698C153.581 224.89 149.888 233.861 146.193 242.836C145.522 244.466 144.851 246.097 144.167 247.723C143.504 249.299 143.177 250.953 142.85 252.607C142.736 253.183 142.623 253.759 142.495 254.332C142.047 256.31 142.68 257.796 144.525 258.933C144.941 259.185 145.321 259.478 145.701 259.771C145.868 259.9 146.035 260.029 146.205 260.155C150.287 262.237 154.658 262.71 159.235 262.028C160.474 261.525 161.789 261.512 163.11 261.555H164.177C165.187 261.381 166.188 261.481 167.188 261.581C167.525 261.615 167.861 261.649 168.197 261.672C168.466 261.684 168.645 261.881 168.452 262.157C168.47 262.161 168.49 262.163 168.511 262.165C168.527 262.167 168.544 262.168 168.561 262.169C168.632 262.174 168.7 262.179 168.713 262.207C168.824 262.414 168.801 262.411 168.641 262.389C168.602 262.384 168.555 262.377 168.5 262.372C164.907 262.041 161.355 262.243 157.769 263.306C163.331 264.553 168.032 267.016 172.479 270.824C170.827 270.768 169.713 270.13 168.622 269.505C167.913 269.099 167.213 268.698 166.38 268.466C166.303 272.426 168.952 274.755 171.645 277.121C172.31 277.706 172.978 278.293 173.608 278.907C172.382 279.423 171.529 278.821 170.779 278.176C167.991 275.787 165.568 273.152 165.203 269.559C164.99 267.458 163.737 266.445 161.61 265.91C158.668 265.167 155.744 264.379 152.816 263.589L152.813 263.589C152.015 263.373 151.216 263.158 150.417 262.944C148.772 262.501 147.127 262.047 145.764 261.046C144.932 260.641 144.095 260.237 143.196 259.802L142.35 259.393C141.641 260.806 141.607 262.164 142.618 263.404C144.14 265.259 144.856 267.378 145.386 269.577C145.603 269.97 145.814 270.366 146.025 270.763L146.026 270.763L146.026 270.764L146.026 270.764C146.742 272.109 147.459 273.455 148.442 274.669C148.566 274.737 148.641 274.835 148.669 274.964C148.929 275.159 149.191 275.353 149.453 275.547L149.454 275.547C150.065 275.999 150.676 276.451 151.264 276.923C151.429 277.052 151.56 277.212 151.581 277.372C151.581 277.28 151.629 277.212 151.739 277.224C151.877 277.242 152.007 277.325 152.136 277.407C152.163 277.425 152.19 277.442 152.218 277.459C152.242 277.473 152.266 277.488 152.29 277.501C155.78 279.079 159.483 280.148 163.207 281.186C167.064 282.261 170.744 283.73 174.423 285.199L174.423 285.199L174.423 285.199L174.424 285.2L174.424 285.2L174.425 285.2L174.426 285.2L174.427 285.201L174.427 285.201C175.71 285.713 176.992 286.225 178.281 286.72C182.563 288.36 186.906 289.552 191.67 288.409C193.408 287.991 195.22 287.79 197.019 287.591C197.2 287.571 197.381 287.551 197.562 287.531C199.586 287.304 201.63 287.138 203.53 288.299C200.283 288.144 197.142 288.732 193.96 289.328C190.464 289.983 186.918 290.647 183.127 290.344C185.082 292.248 187.306 293.213 189.646 293.999C192.021 294.791 194.402 295.565 196.812 296.278C198.762 296.853 200.686 297.498 202.611 298.142C206.026 299.286 209.443 300.429 213.008 301.192C213.531 301.303 214.06 301.395 214.596 301.488L214.597 301.488L214.597 301.488C216.096 301.749 217.642 302.017 219.203 302.746C213.8 303.2 209.085 301.781 204.397 300.252C201.723 299.379 199.046 298.508 196.282 297.609L196.244 297.597L196.207 297.585L196.206 297.584C194.618 297.068 193.001 296.542 191.339 296.001C191.604 297.632 192.307 298.877 192.994 300.093L193.085 300.253C193.118 300.312 193.151 300.371 193.184 300.43C195.566 304.668 199.358 307.77 203.626 310.454C205.738 311.781 207.879 313.075 209.981 314.347L209.984 314.348L209.988 314.35L210.011 314.364C210.975 314.947 211.93 315.525 212.871 316.099C210.971 316.087 209.216 315.245 207.529 314.318C201.947 311.253 196.578 307.96 193.081 302.795C191.945 301.118 191.064 299.343 190.438 297.488C190.011 296.229 189.364 295.442 187.904 294.945C185.172 294.011 182.756 292.611 181.007 290.4C179.865 288.95 178.115 288.219 176.371 287.489L176.371 287.489L176.148 287.396C169.911 284.786 163.517 282.519 156.929 280.689C155.367 280.259 153.88 279.651 152.537 278.803C152.461 278.754 152.377 278.707 152.292 278.66C151.853 278.413 151.379 278.146 151.615 277.513C151.601 277.494 151.591 277.476 151.583 277.457C151.577 277.444 151.573 277.431 151.57 277.417C151.569 277.412 151.568 277.407 151.567 277.402C151.574 277.55 151.484 277.703 151.243 277.845C150.903 278.092 150.766 277.899 150.629 277.707C150.617 277.69 150.604 277.672 150.592 277.655C150.577 277.636 150.563 277.617 150.548 277.599C150.41 277.509 150.27 277.42 150.13 277.331L150.129 277.33L150.128 277.33L150.128 277.329C149.3 276.803 148.47 276.275 147.988 275.425L147.795 275.271C147.575 275.105 147.356 274.938 147.137 274.771L147.136 274.77L147.135 274.769L147.133 274.768C146.916 274.601 146.699 274.435 146.48 274.27C145.97 274.948 146.247 275.556 146.523 276.16C146.612 276.355 146.7 276.549 146.762 276.745C147.453 278.895 148.634 280.841 149.815 282.785C150.246 283.496 150.678 284.206 151.085 284.927C151.754 285.589 152.404 286.265 153.054 286.941L153.055 286.942C154.69 288.644 156.326 290.346 158.271 291.818C160.85 293.768 163.641 295.427 166.436 297.089L166.437 297.089L166.848 297.334C170.317 299.398 173.759 301.486 176.939 303.894C179.496 305.825 181.21 308.303 182.93 310.789C183.442 311.529 183.955 312.27 184.49 312.997C189.439 319.729 195.469 325.613 202.745 330.441L203.097 330.675L203.481 330.932C206.57 332.995 209.652 335.052 213.153 336.577C216.528 338.05 220.065 339.135 223.601 340.22C225.624 340.841 227.647 341.461 229.639 342.154C234.636 343.893 239.592 344.605 244.934 344.255L245.51 344.217C248.668 344.012 251.756 343.811 254.825 342.971C261 341.282 267.318 341.294 273.658 342.179C273.927 342.212 274.188 342.317 274.444 342.42C274.485 342.437 274.526 342.454 274.567 342.47C274.597 342.482 274.627 342.493 274.656 342.504C274.676 342.515 274.682 342.558 274.694 342.645C274.7 342.682 274.706 342.726 274.715 342.779C274.721 342.818 274.729 342.862 274.739 342.91C272.808 342.782 270.904 342.925 269.002 343.067H269.002H269.002H269.002H269.001C267.527 343.178 266.054 343.288 264.572 343.272C261.11 343.235 257.675 343.573 254.357 344.402C250.922 345.256 247.474 345.76 243.901 345.588C243.821 345.584 243.739 345.577 243.656 345.569L243.656 345.569C243.222 345.53 242.741 345.487 242.222 345.889C242.791 346.446 243.529 346.671 244.25 346.89C244.335 346.916 244.419 346.942 244.502 346.968C244.594 346.996 244.685 347.025 244.775 347.056C248.513 348.297 252.34 349.267 256.264 349.949C256.736 350.031 257.197 350.156 257.657 350.282L257.789 350.318L257.933 350.357C258.072 350.394 258.21 350.43 258.349 350.465C261.191 350.768 263.974 351.345 266.754 351.921L266.755 351.922L266.755 351.922L266.756 351.922L266.756 351.922ZM169.591 173.681L169.588 173.666L169.572 173.672L169.561 173.676C169.553 173.679 169.546 173.682 169.538 173.685L169.54 173.69L169.569 173.685L169.591 173.681ZM168.49 176.944C168.492 177.137 168.494 177.329 168.473 177.517C169.205 177.095 169.135 176.509 169.065 175.922V175.921V175.921V175.921V175.921C169.044 175.747 169.023 175.574 169.023 175.404C168.477 175.841 168.484 176.393 168.49 176.944ZM158.659 213.718C158.578 213.797 158.498 213.875 158.423 213.934V213.941L158.349 214.06C157.787 214.973 157.215 215.9 157.149 217.307C158.359 216.406 158.793 215.403 159.214 214.429C159.255 214.333 159.296 214.238 159.338 214.143C159.51 213.836 159.483 213.474 159.139 213.4C159.015 213.37 158.837 213.545 158.659 213.718L158.659 213.718ZM133.945 273.091C135.611 270.492 137.532 268.054 139.555 265.677V265.683C139.583 266.033 139.609 266.383 139.634 266.733C139.66 267.084 139.686 267.434 139.714 267.784C139.686 267.901 139.659 268.019 139.631 268.137L139.629 268.145L139.629 268.145C139.602 268.261 139.575 268.376 139.548 268.49C139.445 268.312 139.342 268.14 139.239 267.968C138.525 268.713 137.951 269.547 137.377 270.381L137.377 270.381C136.678 271.396 135.978 272.412 135.026 273.269C134.826 273.76 134.448 274.123 133.994 274.436C133.56 275.222 132.899 275.836 132.156 276.389L132.094 275.742L132.089 275.692L132.032 275.087C132.464 274.658 132.897 274.223 133.329 273.788L133.333 273.785C133.471 273.623 133.613 273.464 133.755 273.304C133.819 273.233 133.882 273.162 133.945 273.091ZM130.372 276.574L130.359 276.573C130.779 275.959 131.337 275.462 132.025 275.087L132.087 275.737L132.101 275.887L132.149 276.389C132.115 276.554 132.006 276.652 131.823 276.683L131.832 276.684C130.846 277.537 129.862 278.393 128.878 279.249L128.876 279.25L128.875 279.251C124.087 283.416 119.298 287.582 114.183 291.444C110.246 294.417 105.538 295.399 100.63 295.928C93.822 296.665 87.3929 298.55 81.1083 300.915C80.2335 301.242 80.0802 301.789 79.8718 302.534L79.8624 302.567C78.8643 306.13 76.6547 309.14 74.1561 312.014C74.1641 309.813 75.2934 307.998 76.4745 306.101C77.3166 304.748 78.1851 303.352 78.6922 301.744C76.8177 302.182 74.973 302.406 73.17 302.625L73.1698 302.625C70.4708 302.953 67.8653 303.27 65.3935 304.275C62.2202 305.565 59.7353 307.444 58.2072 310.276C57.9416 310.767 57.6318 311.235 57.2651 311.789L57.265 311.789L57.2642 311.79C57.0894 312.054 56.9017 312.338 56.6997 312.653C56.7961 312.223 56.8167 312.125 56.8374 312.02C58.097 305.854 61.7453 302.635 68.7182 301.394C69.8981 301.185 71.0899 301.046 72.2818 300.907L72.2823 300.907L72.2826 300.907L72.2828 300.907C73.9622 300.71 75.6416 300.514 77.288 300.123C79.9244 299.502 82.4712 298.667 84.9975 297.776C87.5305 296.886 90.0843 296.087 92.9822 295.461C91.0487 294.007 88.7953 293.511 86.527 293.012C85.2583 292.732 83.985 292.452 82.7603 292.003C83.586 291.127 84.5039 291.166 85.3978 291.204C85.4503 291.206 85.5027 291.208 85.555 291.21C87.9711 291.302 90.1875 292.046 92.2388 293.096C94.9509 294.484 97.6629 294.73 100.809 294.374C106.419 293.735 111.265 292.021 115.402 288.551H115.408C116.509 287.628 117.635 286.732 118.76 285.836C120.544 284.416 122.326 282.996 124.006 281.475C125.981 279.688 128.149 278.103 130.372 276.574ZM123.628 295.385C123.697 295.44 123.772 295.489 123.855 295.538C123.772 295.495 123.697 295.446 123.628 295.385Z" fill="url(#paint0_linear_1170_2043)"/>
<path d="M127.138 291.051C127.138 291.008 127.062 290.952 127.014 290.909C126.959 290.952 126.869 290.989 126.869 291.032C126.869 291.075 126.945 291.13 126.993 291.173C127.048 291.13 127.138 291.094 127.138 291.051Z" fill="#374093"/>
<path d="M159.338 214.137C158.87 215.2 158.478 216.311 157.149 217.3C157.218 215.832 157.838 214.886 158.423 213.934C158.726 214.002 159.035 214.07 159.338 214.143V214.137Z" fill="#374093"/>
<path d="M169.023 175.404C169.023 176.147 169.423 176.97 168.473 177.517C168.555 176.792 168.287 175.994 169.023 175.404Z" fill="#A880B9"/>
<path d="M169.588 173.666C169.719 174.255 169.726 174.814 169.085 175.201C169.003 174.624 168.721 173.991 169.588 173.666Z" fill="#A880B9"/>
<path d="M159.338 214.137C159.035 214.07 158.726 214.002 158.423 213.928C158.664 213.738 158.96 213.351 159.139 213.394C159.483 213.468 159.51 213.83 159.338 214.137Z" fill="white"/>
</g>
<path d="M300.585 180.002C300.796 178.313 300.556 176.805 302.037 175.7C303.065 174.929 303.53 175.025 303.973 176.1C304.352 177.026 304.744 177.933 303.13 178.279C302.159 178.486 301.864 179.597 300.591 180L300.585 180.002Z" fill="#374093"/>
<path d="M312.081 151.077C311.496 151.052 310.987 150.862 311 150.285C311.021 149.627 311.303 149.019 312.198 149.001C312.873 148.982 313.437 149.259 313.458 149.934C313.485 150.727 312.838 150.979 312.074 151.083L312.081 151.077Z" fill="#55248C"/>
<path d="M8.12248 119.895C6.79395 120.576 4.62163 120.127 4.06748 121.436C3.65153 122.398 4.78585 123.695 3.74195 124.509C2.5155 124.38 2.55895 123.776 2.47779 123.297C2.34362 122.517 2.09329 121.779 1.54859 121.003C0.783131 119.926 -0.591402 118.609 1.94144 118.181C2.0178 118.164 2.05692 118.055 2.09213 117.985C2.36728 117.394 1.6318 116.208 3.44574 116.516C4.63633 116.722 5.46688 117.438 5.86147 118.224C6.27174 119.038 7.61948 118.985 8.1414 119.892L8.12248 119.895Z" fill="#374093"/>
<path d="M146.808 0.441618C147.047 1.47363 148.229 2.12273 149.281 3.1392C147.043 3.23765 146.515 4.56467 144.996 5.46668C144.116 3.2341 143.397 1.34833 146.808 0.441618Z" fill="#ECE1C5"/>
<defs>
<linearGradient id="paint0_linear_1170_2043" x1="171.068" y1="89.959" x2="171.068" y2="362.018" gradientUnits="userSpaceOnUse">
<stop stop-color="#8641AD"/>
<stop offset="0.511183" stop-color="#374093"/>
<stop offset="1" stop-color="#374093" stop-opacity="0"/>
</linearGradient>
<clipPath id="clip0_1170_2043">
<rect width="282" height="351" fill="white" transform="translate(15 11)"/>
</clipPath>
</defs>
</svg>
