<svg width="393" height="418" viewBox="0 0 393 418" fill="none" xmlns="http://www.w3.org/2000/svg">
<path d="M74.2276 128.157C42.826 125.963 0.328125 160.344 0.328125 160.344V418H394.13V128.157C394.13 128.157 363.868 148.338 343.222 144.908C310.265 139.431 328.904 82.602 296.911 72.9787C273.738 66.0082 258.689 93.9368 236.15 85.131C213.47 76.2706 221.195 45.9747 199.693 34.5509C151.061 8.71497 191.032 161.422 135.975 160.344C108.787 159.812 101.355 130.052 74.2276 128.157Z" fill="url(#paint0_linear_342_2029)"/>
<path d="M0.328125 160.344C0.328125 160.344 42.826 125.963 74.2276 128.157C101.355 130.052 108.787 159.812 135.975 160.344C191.032 161.422 151.061 8.71497 199.693 34.5509C221.195 45.9747 213.47 76.2706 236.15 85.131C258.689 93.9368 273.738 66.0082 296.911 72.9787C328.904 82.602 310.265 139.431 343.222 144.908C363.868 148.338 394.13 128.157 394.13 128.157" stroke="#8740AC" stroke-width="3" stroke-linecap="round"/>
<path d="M0 89.7293C0 89.7293 32.8119 113.593 55.1783 111.735C83.1207 109.414 84.6371 69.7698 112.656 68.709C145.938 67.4488 145.485 132.391 177.687 123.887C195.773 119.112 195.276 97.1873 213.159 91.6999C244.158 82.1877 252.603 137.907 284.759 133.741C311.322 130.298 311.024 89.4636 337.639 86.4449C360.417 83.8612 368.184 99.2541 394.459 106.48" stroke="url(#paint1_linear_342_2029)" stroke-width="3" stroke-linecap="round"/>
<g filter="url(#filter0_d_342_2029)">
<circle cx="12" cy="12" r="12" transform="matrix(-1 0 0 1 208 20)" fill="url(#paint2_linear_342_2029)"/>
<circle cx="12" cy="12" r="10" transform="matrix(-1 0 0 1 208 20)" stroke="white" stroke-width="4"/>
</g>
<defs>
<filter id="filter0_d_342_2029" x="159" y="0" width="74" height="74" filterUnits="userSpaceOnUse" color-interpolation-filters="sRGB">
<feFlood flood-opacity="0" result="BackgroundImageFix"/>
<feColorMatrix in="SourceAlpha" type="matrix" values="0 0 0 0 0 0 0 0 0 0 0 0 0 0 0 0 0 0 127 0" result="hardAlpha"/>
<feOffset dy="5"/>
<feGaussianBlur stdDeviation="12.5"/>
<feColorMatrix type="matrix" values="0 0 0 0 0 0 0 0 0 0 0 0 0 0 0 0 0 0 0.1 0"/>
<feBlend mode="normal" in2="BackgroundImageFix" result="effect1_dropShadow_342_2029"/>
<feBlend mode="normal" in="SourceGraphic" in2="effect1_dropShadow_342_2029" result="shape"/>
</filter>
<linearGradient id="paint0_linear_342_2029" x1="197.229" y1="31.6064" x2="197.229" y2="271" gradientUnits="userSpaceOnUse">
<stop stop-color="#9626BD" stop-opacity="0.39"/>
<stop offset="0.9999" stop-color="#FF5CEF" stop-opacity="0"/>
<stop offset="1" stop-color="#FF44EC" stop-opacity="0"/>
</linearGradient>
<linearGradient id="paint1_linear_342_2029" x1="197.23" y1="68.6909" x2="197.23" y2="133.964" gradientUnits="userSpaceOnUse">
<stop stop-color="#2E41CF"/>
<stop offset="1" stop-color="#4E5BBA"/>
</linearGradient>
<linearGradient id="paint2_linear_342_2029" x1="12" y1="0" x2="12" y2="24" gradientUnits="userSpaceOnUse">
<stop stop-color="#8740AC"/>
<stop offset="1" stop-color="#E85CFF"/>
</linearGradient>
</defs>
</svg>
