<svg width="353" height="384" viewBox="0 0 353 384" fill="none" xmlns="http://www.w3.org/2000/svg">
<path d="M0 24C0 10.7452 10.7452 0 24 0H329C342.255 0 353 10.7452 353 24V355C353 368.255 342.255 379 329 379H24C10.7452 379 0 368.255 0 355V24Z" fill="#0B0D1C" fill-opacity="0.8"/>
<path d="M83.2137 110.425C82.6297 110.425 82.0497 110.349 81.4737 110.197C80.8977 110.037 80.4097 109.813 80.0097 109.525L80.7657 108.037C81.0857 108.269 81.4577 108.453 81.8817 108.589C82.3057 108.725 82.7337 108.793 83.1657 108.793C83.6537 108.793 84.0377 108.697 84.3177 108.505C84.5977 108.313 84.7377 108.049 84.7377 107.713C84.7377 107.393 84.6137 107.141 84.3657 106.957C84.1177 106.773 83.7177 106.681 83.1657 106.681H82.2777V105.397L84.6177 102.745L84.8337 103.441H80.4297V101.881H86.3097V103.141L83.9817 105.793L82.9977 105.229H83.5617C84.5937 105.229 85.3737 105.461 85.9017 105.925C86.4297 106.389 86.6937 106.985 86.6937 107.713C86.6937 108.185 86.5697 108.629 86.3217 109.045C86.0737 109.453 85.6937 109.785 85.1817 110.041C84.6697 110.297 84.0137 110.425 83.2137 110.425ZM91.1913 110.425C90.5033 110.425 89.8873 110.257 89.3433 109.921C88.7993 109.577 88.3713 109.081 88.0593 108.433C87.7473 107.785 87.5913 107.001 87.5913 106.081C87.5913 105.161 87.7473 104.377 88.0593 103.729C88.3713 103.081 88.7993 102.589 89.3433 102.253C89.8873 101.909 90.5033 101.737 91.1913 101.737C91.8873 101.737 92.5033 101.909 93.0393 102.253C93.5833 102.589 94.0113 103.081 94.3233 103.729C94.6353 104.377 94.7913 105.161 94.7913 106.081C94.7913 107.001 94.6353 107.785 94.3233 108.433C94.0113 109.081 93.5833 109.577 93.0393 109.921C92.5033 110.257 91.8873 110.425 91.1913 110.425ZM91.1913 108.781C91.5193 108.781 91.8033 108.689 92.0433 108.505C92.2913 108.321 92.4833 108.029 92.6193 107.629C92.7633 107.229 92.8353 106.713 92.8353 106.081C92.8353 105.449 92.7633 104.933 92.6193 104.533C92.4833 104.133 92.2913 103.841 92.0433 103.657C91.8033 103.473 91.5193 103.381 91.1913 103.381C90.8713 103.381 90.5873 103.473 90.3393 103.657C90.0993 103.841 89.9073 104.133 89.7633 104.533C89.6273 104.933 89.5593 105.449 89.5593 106.081C89.5593 106.713 89.6273 107.229 89.7633 107.629C89.9073 108.029 90.0993 108.321 90.3393 108.505C90.5873 108.689 90.8713 108.781 91.1913 108.781ZM98.3426 110.425C97.7586 110.425 97.1786 110.349 96.6026 110.197C96.0266 110.037 95.5386 109.813 95.1386 109.525L95.8946 108.037C96.2146 108.269 96.5866 108.453 97.0106 108.589C97.4346 108.725 97.8626 108.793 98.2946 108.793C98.7826 108.793 99.1666 108.697 99.4466 108.505C99.7266 108.313 99.8666 108.049 99.8666 107.713C99.8666 107.393 99.7426 107.141 99.4946 106.957C99.2466 106.773 98.8466 106.681 98.2946 106.681H97.4066V105.397L99.7466 102.745L99.9626 103.441H95.5586V101.881H101.439V103.141L99.1106 105.793L98.1266 105.229H98.6906C99.7226 105.229 100.503 105.461 101.031 105.925C101.559 106.389 101.823 106.985 101.823 107.713C101.823 108.185 101.699 108.629 101.451 109.045C101.203 109.453 100.823 109.785 100.311 110.041C99.7986 110.297 99.1426 110.425 98.3426 110.425ZM111.384 103.729C111.896 103.729 112.348 103.833 112.74 104.041C113.14 104.241 113.452 104.553 113.676 104.977C113.908 105.393 114.024 105.929 114.024 106.585V110.281H112.152V106.873C112.152 106.353 112.044 105.969 111.828 105.721C111.612 105.473 111.308 105.349 110.916 105.349C110.644 105.349 110.4 105.413 110.184 105.541C109.968 105.661 109.8 105.845 109.68 106.093C109.56 106.341 109.5 106.657 109.5 107.041V110.281H107.628V106.873C107.628 106.353 107.52 105.969 107.304 105.721C107.096 105.473 106.796 105.349 106.404 105.349C106.132 105.349 105.888 105.413 105.672 105.541C105.456 105.661 105.288 105.845 105.168 106.093C105.048 106.341 104.988 106.657 104.988 107.041V110.281H103.116V103.825H104.904V105.589L104.568 105.073C104.792 104.633 105.108 104.301 105.516 104.077C105.932 103.845 106.404 103.729 106.932 103.729C107.524 103.729 108.04 103.881 108.48 104.185C108.928 104.481 109.224 104.937 109.368 105.553L108.708 105.373C108.924 104.869 109.268 104.469 109.74 104.173C110.22 103.877 110.768 103.729 111.384 103.729ZM117.874 110.377C117.322 110.377 116.79 110.313 116.278 110.185C115.774 110.049 115.374 109.881 115.078 109.681L115.702 108.337C115.998 108.521 116.346 108.673 116.746 108.793C117.154 108.905 117.554 108.961 117.946 108.961C118.378 108.961 118.682 108.909 118.858 108.805C119.042 108.701 119.134 108.557 119.134 108.373C119.134 108.221 119.062 108.109 118.918 108.037C118.782 107.957 118.598 107.897 118.366 107.857C118.134 107.817 117.878 107.777 117.598 107.737C117.326 107.697 117.05 107.645 116.77 107.581C116.49 107.509 116.234 107.405 116.002 107.269C115.77 107.133 115.582 106.949 115.438 106.717C115.302 106.485 115.234 106.185 115.234 105.817C115.234 105.409 115.35 105.049 115.582 104.737C115.822 104.425 116.166 104.181 116.614 104.005C117.062 103.821 117.598 103.729 118.222 103.729C118.662 103.729 119.11 103.777 119.566 103.873C120.022 103.969 120.402 104.109 120.706 104.293L120.082 105.625C119.77 105.441 119.454 105.317 119.134 105.253C118.822 105.181 118.518 105.145 118.222 105.145C117.806 105.145 117.502 105.201 117.31 105.313C117.118 105.425 117.022 105.569 117.022 105.745C117.022 105.905 117.09 106.025 117.226 106.105C117.37 106.185 117.558 106.249 117.79 106.297C118.022 106.345 118.274 106.389 118.546 106.429C118.826 106.461 119.106 106.513 119.386 106.585C119.666 106.657 119.918 106.761 120.142 106.897C120.374 107.025 120.562 107.205 120.706 107.437C120.85 107.661 120.922 107.957 120.922 108.325C120.922 108.725 120.802 109.081 120.562 109.393C120.322 109.697 119.974 109.937 119.518 110.113C119.07 110.289 118.522 110.377 117.874 110.377Z" fill="#7336BA"/>
<path opacity="0.3" d="M81.5652 255.29L126.691 35.2202L177.758 199.636L221.138 95.7806L276.349 236.532L325.152 299.408" stroke="#7336BA" stroke-width="2" stroke-linecap="round"/>
<path d="M80.1404 123.99L339.362 123.99" stroke="#7336BA" stroke-width="2" stroke-linecap="round"/>
<path d="M79.1521 48.7537L338.374 48.7537" stroke="#454FB1" stroke-linecap="round" stroke-dasharray="2 6"/>
<path d="M64.0217 20V364.728H340.022" stroke="#454FB1"/>
<path d="M77.1521 322.552L336.374 322.552" stroke="#454FB1" stroke-linecap="round" stroke-dasharray="2 6"/>
<path d="M82.8839 383.837V377.137L83.2039 377.477H81.2339V376.837H83.6039V383.837H82.8839Z" fill="#454FB1"/>
<path d="M129.71 383.837V383.327L132.62 380.477C132.887 380.217 133.087 379.99 133.22 379.797C133.353 379.597 133.443 379.41 133.49 379.237C133.537 379.063 133.56 378.9 133.56 378.747C133.56 378.34 133.42 378.02 133.14 377.787C132.867 377.553 132.46 377.437 131.92 377.437C131.507 377.437 131.14 377.5 130.82 377.627C130.507 377.753 130.237 377.95 130.01 378.217L129.5 377.777C129.773 377.457 130.123 377.21 130.55 377.037C130.977 376.863 131.453 376.777 131.98 376.777C132.453 376.777 132.863 376.853 133.21 377.007C133.557 377.153 133.823 377.37 134.01 377.657C134.203 377.943 134.3 378.28 134.3 378.667C134.3 378.893 134.267 379.117 134.2 379.337C134.14 379.557 134.027 379.79 133.86 380.037C133.7 380.277 133.463 380.55 133.15 380.857L130.48 383.477L130.28 383.197H134.62V383.837H129.71Z" fill="#454FB1"/>
<path d="M181.161 383.897C180.654 383.897 180.174 383.817 179.721 383.657C179.274 383.49 178.914 383.27 178.641 382.997L178.991 382.427C179.218 382.66 179.521 382.853 179.901 383.007C180.288 383.16 180.708 383.237 181.161 383.237C181.741 383.237 182.184 383.11 182.491 382.857C182.804 382.603 182.961 382.263 182.961 381.837C182.961 381.41 182.808 381.07 182.501 380.817C182.201 380.563 181.724 380.437 181.071 380.437H180.571V379.907L182.731 377.197L182.831 377.477H178.931V376.837H183.431V377.347L181.271 380.057L180.921 379.827H181.191C182.031 379.827 182.658 380.013 183.071 380.387C183.491 380.76 183.701 381.24 183.701 381.827C183.701 382.22 183.608 382.573 183.421 382.887C183.234 383.2 182.951 383.447 182.571 383.627C182.198 383.807 181.728 383.897 181.161 383.897Z" fill="#454FB1"/>
<path d="M227.187 381.997V381.477L230.897 376.837H231.697L228.017 381.477L227.627 381.357H233.257V381.997H227.187ZM231.137 383.837V381.997L231.157 381.357V379.737H231.857V383.837H231.137Z" fill="#454FB1"/>
<path d="M279.694 383.897C279.194 383.897 278.717 383.817 278.264 383.657C277.811 383.49 277.451 383.27 277.184 382.997L277.534 382.427C277.754 382.66 278.054 382.853 278.434 383.007C278.821 383.16 279.237 383.237 279.684 383.237C280.277 383.237 280.727 383.107 281.034 382.847C281.347 382.58 281.504 382.233 281.504 381.807C281.504 381.507 281.431 381.25 281.284 381.037C281.144 380.817 280.904 380.647 280.564 380.527C280.224 380.407 279.757 380.347 279.164 380.347H277.674L278.034 376.837H281.864V377.477H278.324L278.694 377.127L278.384 380.067L278.014 379.707H279.324C280.031 379.707 280.597 379.793 281.024 379.967C281.451 380.14 281.757 380.383 281.944 380.697C282.137 381.003 282.234 381.363 282.234 381.777C282.234 382.17 282.141 382.53 281.954 382.857C281.767 383.177 281.487 383.43 281.114 383.617C280.741 383.803 280.267 383.897 279.694 383.897Z" fill="#454FB1"/>
<path d="M328.858 383.897C328.238 383.897 327.715 383.76 327.288 383.487C326.862 383.207 326.538 382.807 326.318 382.287C326.098 381.76 325.988 381.13 325.988 380.397C325.988 379.603 326.122 378.94 326.388 378.407C326.662 377.867 327.038 377.46 327.518 377.187C327.998 376.913 328.555 376.777 329.188 376.777C329.502 376.777 329.802 376.807 330.088 376.867C330.375 376.927 330.628 377.023 330.848 377.157L330.558 377.737C330.378 377.617 330.172 377.533 329.938 377.487C329.705 377.433 329.458 377.407 329.198 377.407C328.445 377.407 327.842 377.647 327.388 378.127C326.942 378.607 326.718 379.323 326.718 380.277C326.718 380.423 326.725 380.607 326.738 380.827C326.758 381.04 326.798 381.253 326.858 381.467L326.608 381.277C326.682 380.93 326.825 380.637 327.038 380.397C327.252 380.15 327.518 379.963 327.838 379.837C328.158 379.71 328.508 379.647 328.888 379.647C329.355 379.647 329.765 379.733 330.118 379.907C330.472 380.08 330.748 380.323 330.948 380.637C331.148 380.95 331.248 381.32 331.248 381.747C331.248 382.18 331.145 382.56 330.938 382.887C330.732 383.207 330.445 383.457 330.078 383.637C329.718 383.81 329.312 383.897 328.858 383.897ZM328.828 383.287C329.162 383.287 329.455 383.227 329.708 383.107C329.968 382.98 330.172 382.803 330.318 382.577C330.465 382.343 330.538 382.073 330.538 381.767C330.538 381.307 330.378 380.94 330.058 380.667C329.745 380.393 329.318 380.257 328.778 380.257C328.418 380.257 328.105 380.323 327.838 380.457C327.572 380.59 327.362 380.773 327.208 381.007C327.055 381.233 326.978 381.493 326.978 381.787C326.978 382.04 327.048 382.283 327.188 382.517C327.328 382.743 327.535 382.93 327.808 383.077C328.088 383.217 328.428 383.287 328.828 383.287Z" fill="#454FB1"/>
<path d="M131 36.8958C131 39.725 129.209 42.0186 127 42.0186C124.791 42.0186 123 39.725 123 36.8958C123 34.0665 124.791 31.7729 127 31.7729C129.209 31.7729 131 34.0665 131 36.8958Z" fill="#E4766F"/>
<g filter="url(#filter0_b_1431_2250)">
<path d="M322 300.474C322 303.303 323.791 305.596 326 305.596C328.209 305.596 330 303.303 330 300.474C330 297.644 328.209 295.351 326 295.351C323.791 295.351 322 297.644 322 300.474Z" fill="#4CC9F0"/>
</g>
<path d="M21.1476 347.898V347.388L24.0576 344.538C24.3242 344.278 24.5242 344.052 24.6576 343.858C24.7909 343.658 24.8809 343.472 24.9276 343.298C24.9742 343.125 24.9976 342.962 24.9976 342.808C24.9976 342.402 24.8576 342.082 24.5776 341.848C24.3042 341.615 23.8976 341.498 23.3576 341.498C22.9442 341.498 22.5776 341.562 22.2576 341.688C21.9442 341.815 21.6742 342.012 21.4476 342.278L20.9376 341.838C21.2109 341.518 21.5609 341.272 21.9876 341.098C22.4142 340.925 22.8909 340.838 23.4176 340.838C23.8909 340.838 24.3009 340.915 24.6476 341.068C24.9942 341.215 25.2609 341.432 25.4476 341.718C25.6409 342.005 25.7376 342.342 25.7376 342.728C25.7376 342.955 25.7042 343.178 25.6376 343.398C25.5776 343.618 25.4642 343.852 25.2976 344.098C25.1376 344.338 24.9009 344.612 24.5876 344.918L21.9176 347.538L21.7176 347.258H26.0576V347.898H21.1476ZM29.7316 347.958C29.1916 347.958 28.7116 347.818 28.2916 347.538C27.8716 347.252 27.5416 346.845 27.3016 346.318C27.0616 345.785 26.9416 345.145 26.9416 344.398C26.9416 343.652 27.0616 343.015 27.3016 342.488C27.5416 341.955 27.8716 341.548 28.2916 341.268C28.7116 340.982 29.1916 340.838 29.7316 340.838C30.2716 340.838 30.7516 340.982 31.1716 341.268C31.5916 341.548 31.9216 341.955 32.1616 342.488C32.4083 343.015 32.5316 343.652 32.5316 344.398C32.5316 345.145 32.4083 345.785 32.1616 346.318C31.9216 346.845 31.5916 347.252 31.1716 347.538C30.7516 347.818 30.2716 347.958 29.7316 347.958ZM29.7316 347.298C30.145 347.298 30.505 347.188 30.8116 346.968C31.1183 346.742 31.3583 346.415 31.5316 345.988C31.705 345.555 31.7916 345.025 31.7916 344.398C31.7916 343.772 31.705 343.245 31.5316 342.818C31.3583 342.385 31.1183 342.058 30.8116 341.838C30.505 341.612 30.145 341.498 29.7316 341.498C29.3316 341.498 28.975 341.612 28.6616 341.838C28.3483 342.058 28.105 342.385 27.9316 342.818C27.7583 343.245 27.6716 343.772 27.6716 344.398C27.6716 345.025 27.7583 345.555 27.9316 345.988C28.105 346.415 28.3483 346.742 28.6616 346.968C28.975 347.188 29.3316 347.298 29.7316 347.298ZM36.3527 347.958C35.8127 347.958 35.3327 347.818 34.9127 347.538C34.4927 347.252 34.1627 346.845 33.9227 346.318C33.6827 345.785 33.5627 345.145 33.5627 344.398C33.5627 343.652 33.6827 343.015 33.9227 342.488C34.1627 341.955 34.4927 341.548 34.9127 341.268C35.3327 340.982 35.8127 340.838 36.3527 340.838C36.8927 340.838 37.3727 340.982 37.7927 341.268C38.2127 341.548 38.5427 341.955 38.7827 342.488C39.0294 343.015 39.1527 343.652 39.1527 344.398C39.1527 345.145 39.0294 345.785 38.7827 346.318C38.5427 346.845 38.2127 347.252 37.7927 347.538C37.3727 347.818 36.8927 347.958 36.3527 347.958ZM36.3527 347.298C36.7661 347.298 37.1261 347.188 37.4327 346.968C37.7394 346.742 37.9794 346.415 38.1527 345.988C38.3261 345.555 38.4127 345.025 38.4127 344.398C38.4127 343.772 38.3261 343.245 38.1527 342.818C37.9794 342.385 37.7394 342.058 37.4327 341.838C37.1261 341.612 36.7661 341.498 36.3527 341.498C35.9527 341.498 35.5961 341.612 35.2827 341.838C34.9694 342.058 34.7261 342.385 34.5527 342.818C34.3794 343.245 34.2927 343.772 34.2927 344.398C34.2927 345.025 34.3794 345.555 34.5527 345.988C34.7261 346.415 34.9694 346.742 35.2827 346.968C35.5961 347.188 35.9527 347.298 36.3527 347.298ZM47.2138 342.598C47.6405 342.598 48.0105 342.682 48.3238 342.848C48.6438 343.008 48.8905 343.255 49.0638 343.588C49.2438 343.922 49.3338 344.342 49.3338 344.848V347.898H48.6238V344.918C48.6238 344.365 48.4905 343.948 48.2238 343.668C47.9638 343.382 47.5938 343.238 47.1138 343.238C46.7538 343.238 46.4405 343.315 46.1738 343.468C45.9138 343.615 45.7105 343.832 45.5638 344.118C45.4238 344.398 45.3538 344.738 45.3538 345.138V347.898H44.6438V344.918C44.6438 344.365 44.5105 343.948 44.2438 343.668C43.9772 343.382 43.6038 343.238 43.1238 343.238C42.7705 343.238 42.4605 343.315 42.1938 343.468C41.9272 343.615 41.7205 343.832 41.5738 344.118C41.4338 344.398 41.3638 344.738 41.3638 345.138V347.898H40.6538V342.648H41.3338V344.068L41.2238 343.818C41.3838 343.438 41.6405 343.142 41.9938 342.928C42.3538 342.708 42.7772 342.598 43.2638 342.598C43.7772 342.598 44.2138 342.728 44.5738 342.988C44.9338 343.242 45.1672 343.625 45.2738 344.138L44.9938 344.028C45.1472 343.602 45.4172 343.258 45.8038 342.998C46.1972 342.732 46.6672 342.598 47.2138 342.598ZM52.6693 347.948C52.236 347.948 51.826 347.888 51.4393 347.768C51.0526 347.642 50.7493 347.485 50.5293 347.298L50.8493 346.738C51.0626 346.898 51.336 347.038 51.6693 347.158C52.0026 347.272 52.3526 347.328 52.7193 347.328C53.2193 347.328 53.5793 347.252 53.7993 347.098C54.0193 346.938 54.1293 346.728 54.1293 346.468C54.1293 346.275 54.066 346.125 53.9393 346.018C53.8193 345.905 53.6593 345.822 53.4593 345.768C53.2593 345.708 53.036 345.658 52.7893 345.618C52.5426 345.578 52.296 345.532 52.0493 345.478C51.8093 345.425 51.5893 345.348 51.3893 345.248C51.1893 345.142 51.026 344.998 50.8993 344.818C50.7793 344.638 50.7193 344.398 50.7193 344.098C50.7193 343.812 50.7993 343.555 50.9593 343.328C51.1193 343.102 51.3526 342.925 51.6593 342.798C51.9726 342.665 52.3526 342.598 52.7993 342.598C53.1393 342.598 53.4793 342.645 53.8193 342.738C54.1593 342.825 54.4393 342.942 54.6593 343.088L54.3493 343.658C54.116 343.498 53.866 343.385 53.5993 343.318C53.3326 343.245 53.066 343.208 52.7993 343.208C52.326 343.208 51.976 343.292 51.7493 343.458C51.5293 343.618 51.4193 343.825 51.4193 344.078C51.4193 344.278 51.4793 344.435 51.5993 344.548C51.726 344.662 51.8893 344.752 52.0893 344.818C52.296 344.878 52.5193 344.928 52.7593 344.968C53.006 345.008 53.2493 345.058 53.4893 345.118C53.736 345.172 53.9593 345.248 54.1593 345.348C54.366 345.442 54.5293 345.578 54.6493 345.758C54.776 345.932 54.8393 346.162 54.8393 346.448C54.8393 346.755 54.7526 347.022 54.5793 347.248C54.4126 347.468 54.166 347.642 53.8393 347.768C53.5193 347.888 53.1293 347.948 52.6693 347.948Z" fill="#454FB1"/>
<path d="M22.9853 200.626C22.4787 200.626 21.9987 200.546 21.5453 200.386C21.0987 200.219 20.7387 199.999 20.4653 199.726L20.8153 199.156C21.042 199.389 21.3453 199.582 21.7253 199.736C22.112 199.889 22.532 199.966 22.9853 199.966C23.5653 199.966 24.0087 199.839 24.3153 199.586C24.6287 199.332 24.7853 198.992 24.7853 198.566C24.7853 198.139 24.632 197.799 24.3253 197.546C24.0253 197.292 23.5487 197.166 22.8953 197.166H22.3953V196.636L24.5553 193.926L24.6553 194.206H20.7553V193.566H25.2553V194.076L23.0953 196.786L22.7453 196.556H23.0153C23.8553 196.556 24.482 196.742 24.8953 197.116C25.3153 197.489 25.5253 197.969 25.5253 198.556C25.5253 198.949 25.432 199.302 25.2453 199.616C25.0587 199.929 24.7753 200.176 24.3953 200.356C24.022 200.536 23.552 200.626 22.9853 200.626ZM29.3299 200.626C28.7899 200.626 28.3099 200.486 27.8899 200.206C27.4699 199.919 27.1399 199.512 26.8999 198.986C26.6599 198.452 26.5399 197.812 26.5399 197.066C26.5399 196.319 26.6599 195.682 26.8999 195.156C27.1399 194.622 27.4699 194.216 27.8899 193.936C28.3099 193.649 28.7899 193.506 29.3299 193.506C29.8699 193.506 30.3499 193.649 30.7699 193.936C31.1899 194.216 31.5199 194.622 31.7599 195.156C32.0065 195.682 32.1299 196.319 32.1299 197.066C32.1299 197.812 32.0065 198.452 31.7599 198.986C31.5199 199.512 31.1899 199.919 30.7699 200.206C30.3499 200.486 29.8699 200.626 29.3299 200.626ZM29.3299 199.966C29.7432 199.966 30.1032 199.856 30.4099 199.636C30.7165 199.409 30.9565 199.082 31.1299 198.656C31.3032 198.222 31.3899 197.692 31.3899 197.066C31.3899 196.439 31.3032 195.912 31.1299 195.486C30.9565 195.052 30.7165 194.726 30.4099 194.506C30.1032 194.279 29.7432 194.166 29.3299 194.166C28.9299 194.166 28.5732 194.279 28.2599 194.506C27.9465 194.726 27.7032 195.052 27.5299 195.486C27.3565 195.912 27.2699 196.439 27.2699 197.066C27.2699 197.692 27.3565 198.222 27.5299 198.656C27.7032 199.082 27.9465 199.409 28.2599 199.636C28.5732 199.856 28.9299 199.966 29.3299 199.966ZM35.9509 200.626C35.4109 200.626 34.9309 200.486 34.5109 200.206C34.0909 199.919 33.7609 199.512 33.5209 198.986C33.2809 198.452 33.1609 197.812 33.1609 197.066C33.1609 196.319 33.2809 195.682 33.5209 195.156C33.7609 194.622 34.0909 194.216 34.5109 193.936C34.9309 193.649 35.4109 193.506 35.9509 193.506C36.4909 193.506 36.9709 193.649 37.3909 193.936C37.8109 194.216 38.1409 194.622 38.3809 195.156C38.6276 195.682 38.7509 196.319 38.7509 197.066C38.7509 197.812 38.6276 198.452 38.3809 198.986C38.1409 199.512 37.8109 199.919 37.3909 200.206C36.9709 200.486 36.4909 200.626 35.9509 200.626ZM35.9509 199.966C36.3643 199.966 36.7243 199.856 37.0309 199.636C37.3376 199.409 37.5776 199.082 37.7509 198.656C37.9243 198.222 38.0109 197.692 38.0109 197.066C38.0109 196.439 37.9243 195.912 37.7509 195.486C37.5776 195.052 37.3376 194.726 37.0309 194.506C36.7243 194.279 36.3643 194.166 35.9509 194.166C35.5509 194.166 35.1943 194.279 34.8809 194.506C34.5676 194.726 34.3243 195.052 34.1509 195.486C33.9776 195.912 33.8909 196.439 33.8909 197.066C33.8909 197.692 33.9776 198.222 34.1509 198.656C34.3243 199.082 34.5676 199.409 34.8809 199.636C35.1943 199.856 35.5509 199.966 35.9509 199.966ZM46.812 195.266C47.2387 195.266 47.6087 195.349 47.922 195.516C48.242 195.676 48.4887 195.922 48.662 196.256C48.842 196.589 48.932 197.009 48.932 197.516V200.566H48.222V197.586C48.222 197.032 48.0887 196.616 47.822 196.336C47.562 196.049 47.192 195.906 46.712 195.906C46.352 195.906 46.0387 195.982 45.772 196.136C45.512 196.282 45.3087 196.499 45.162 196.786C45.022 197.066 44.952 197.406 44.952 197.806V200.566H44.242V197.586C44.242 197.032 44.1087 196.616 43.842 196.336C43.5754 196.049 43.202 195.906 42.722 195.906C42.3687 195.906 42.0587 195.982 41.792 196.136C41.5254 196.282 41.3187 196.499 41.172 196.786C41.032 197.066 40.962 197.406 40.962 197.806V200.566H40.252V195.316H40.932V196.736L40.822 196.486C40.982 196.106 41.2387 195.809 41.592 195.596C41.952 195.376 42.3754 195.266 42.862 195.266C43.3754 195.266 43.812 195.396 44.172 195.656C44.532 195.909 44.7654 196.292 44.872 196.806L44.592 196.696C44.7454 196.269 45.0154 195.926 45.402 195.666C45.7954 195.399 46.2654 195.266 46.812 195.266ZM52.2675 200.616C51.8342 200.616 51.4242 200.556 51.0375 200.436C50.6508 200.309 50.3475 200.152 50.1275 199.966L50.4475 199.406C50.6608 199.566 50.9342 199.706 51.2675 199.826C51.6008 199.939 51.9508 199.996 52.3175 199.996C52.8175 199.996 53.1775 199.919 53.3975 199.766C53.6175 199.606 53.7275 199.396 53.7275 199.136C53.7275 198.942 53.6642 198.792 53.5375 198.686C53.4175 198.572 53.2575 198.489 53.0575 198.436C52.8575 198.376 52.6342 198.326 52.3875 198.286C52.1408 198.246 51.8942 198.199 51.6475 198.146C51.4075 198.092 51.1875 198.016 50.9875 197.916C50.7875 197.809 50.6242 197.666 50.4975 197.486C50.3775 197.306 50.3175 197.066 50.3175 196.766C50.3175 196.479 50.3975 196.222 50.5575 195.996C50.7175 195.769 50.9508 195.592 51.2575 195.466C51.5708 195.332 51.9508 195.266 52.3975 195.266C52.7375 195.266 53.0775 195.312 53.4175 195.406C53.7575 195.492 54.0375 195.609 54.2575 195.756L53.9475 196.326C53.7142 196.166 53.4642 196.052 53.1975 195.986C52.9308 195.912 52.6642 195.876 52.3975 195.876C51.9242 195.876 51.5742 195.959 51.3475 196.126C51.1275 196.286 51.0175 196.492 51.0175 196.746C51.0175 196.946 51.0775 197.102 51.1975 197.216C51.3242 197.329 51.4875 197.419 51.6875 197.486C51.8942 197.546 52.1175 197.596 52.3575 197.636C52.6042 197.676 52.8475 197.726 53.0875 197.786C53.3342 197.839 53.5575 197.916 53.7575 198.016C53.9642 198.109 54.1275 198.246 54.2475 198.426C54.3742 198.599 54.4375 198.829 54.4375 199.116C54.4375 199.422 54.3508 199.689 54.1775 199.916C54.0108 200.136 53.7642 200.309 53.4375 200.436C53.1175 200.556 52.7275 200.616 52.2675 200.616Z" fill="#454FB1"/>
<path d="M19.4735 25.16V24.64L23.1835 20H23.9835L20.3035 24.64L19.9135 24.52H25.5435V25.16H19.4735ZM23.4235 27V25.16L23.4435 24.52V22.9H24.1435V27H23.4235ZM28.9948 27.06C28.4548 27.06 27.9748 26.92 27.5548 26.64C27.1348 26.3533 26.8048 25.9467 26.5648 25.42C26.3248 24.8867 26.2048 24.2467 26.2048 23.5C26.2048 22.7533 26.3248 22.1167 26.5648 21.59C26.8048 21.0567 27.1348 20.65 27.5548 20.37C27.9748 20.0833 28.4548 19.94 28.9948 19.94C29.5348 19.94 30.0148 20.0833 30.4348 20.37C30.8548 20.65 31.1848 21.0567 31.4248 21.59C31.6715 22.1167 31.7948 22.7533 31.7948 23.5C31.7948 24.2467 31.6715 24.8867 31.4248 25.42C31.1848 25.9467 30.8548 26.3533 30.4348 26.64C30.0148 26.92 29.5348 27.06 28.9948 27.06ZM28.9948 26.4C29.4081 26.4 29.7681 26.29 30.0748 26.07C30.3815 25.8433 30.6215 25.5167 30.7948 25.09C30.9681 24.6567 31.0548 24.1267 31.0548 23.5C31.0548 22.8733 30.9681 22.3467 30.7948 21.92C30.6215 21.4867 30.3815 21.16 30.0748 20.94C29.7681 20.7133 29.4081 20.6 28.9948 20.6C28.5948 20.6 28.2381 20.7133 27.9248 20.94C27.6115 21.16 27.3681 21.4867 27.1948 21.92C27.0215 22.3467 26.9348 22.8733 26.9348 23.5C26.9348 24.1267 27.0215 24.6567 27.1948 25.09C27.3681 25.5167 27.6115 25.8433 27.9248 26.07C28.2381 26.29 28.5948 26.4 28.9948 26.4ZM35.6159 27.06C35.0759 27.06 34.5959 26.92 34.1759 26.64C33.7559 26.3533 33.4259 25.9467 33.1859 25.42C32.9459 24.8867 32.8259 24.2467 32.8259 23.5C32.8259 22.7533 32.9459 22.1167 33.1859 21.59C33.4259 21.0567 33.7559 20.65 34.1759 20.37C34.5959 20.0833 35.0759 19.94 35.6159 19.94C36.1559 19.94 36.6359 20.0833 37.0559 20.37C37.4759 20.65 37.8059 21.0567 38.0459 21.59C38.2925 22.1167 38.4159 22.7533 38.4159 23.5C38.4159 24.2467 38.2925 24.8867 38.0459 25.42C37.8059 25.9467 37.4759 26.3533 37.0559 26.64C36.6359 26.92 36.1559 27.06 35.6159 27.06ZM35.6159 26.4C36.0292 26.4 36.3892 26.29 36.6959 26.07C37.0025 25.8433 37.2425 25.5167 37.4159 25.09C37.5892 24.6567 37.6759 24.1267 37.6759 23.5C37.6759 22.8733 37.5892 22.3467 37.4159 21.92C37.2425 21.4867 37.0025 21.16 36.6959 20.94C36.3892 20.7133 36.0292 20.6 35.6159 20.6C35.2159 20.6 34.8592 20.7133 34.5459 20.94C34.2325 21.16 33.9892 21.4867 33.8159 21.92C33.6425 22.3467 33.5559 22.8733 33.5559 23.5C33.5559 24.1267 33.6425 24.6567 33.8159 25.09C33.9892 25.5167 34.2325 25.8433 34.5459 26.07C34.8592 26.29 35.2159 26.4 35.6159 26.4ZM46.477 21.7C46.9036 21.7 47.2736 21.7833 47.587 21.95C47.907 22.11 48.1536 22.3567 48.327 22.69C48.507 23.0233 48.597 23.4433 48.597 23.95V27H47.887V24.02C47.887 23.4667 47.7536 23.05 47.487 22.77C47.227 22.4833 46.857 22.34 46.377 22.34C46.017 22.34 45.7036 22.4167 45.437 22.57C45.177 22.7167 44.9736 22.9333 44.827 23.22C44.687 23.5 44.617 23.84 44.617 24.24V27H43.907V24.02C43.907 23.4667 43.7736 23.05 43.507 22.77C43.2403 22.4833 42.867 22.34 42.387 22.34C42.0336 22.34 41.7236 22.4167 41.457 22.57C41.1903 22.7167 40.9836 22.9333 40.837 23.22C40.697 23.5 40.627 23.84 40.627 24.24V27H39.917V21.75H40.597V23.17L40.487 22.92C40.647 22.54 40.9036 22.2433 41.257 22.03C41.617 21.81 42.0403 21.7 42.527 21.7C43.0403 21.7 43.477 21.83 43.837 22.09C44.197 22.3433 44.4303 22.7267 44.537 23.24L44.257 23.13C44.4103 22.7033 44.6803 22.36 45.067 22.1C45.4603 21.8333 45.9303 21.7 46.477 21.7ZM51.9324 27.05C51.4991 27.05 51.0891 26.99 50.7024 26.87C50.3158 26.7433 50.0124 26.5867 49.7924 26.4L50.1124 25.84C50.3258 26 50.5991 26.14 50.9324 26.26C51.2658 26.3733 51.6158 26.43 51.9824 26.43C52.4824 26.43 52.8424 26.3533 53.0624 26.2C53.2824 26.04 53.3924 25.83 53.3924 25.57C53.3924 25.3767 53.3291 25.2267 53.2024 25.12C53.0824 25.0067 52.9224 24.9233 52.7224 24.87C52.5224 24.81 52.2991 24.76 52.0524 24.72C51.8058 24.68 51.5591 24.6333 51.3124 24.58C51.0724 24.5267 50.8524 24.45 50.6524 24.35C50.4524 24.2433 50.2891 24.1 50.1624 23.92C50.0424 23.74 49.9824 23.5 49.9824 23.2C49.9824 22.9133 50.0624 22.6567 50.2224 22.43C50.3824 22.2033 50.6158 22.0267 50.9224 21.9C51.2358 21.7667 51.6158 21.7 52.0624 21.7C52.4024 21.7 52.7424 21.7467 53.0824 21.84C53.4224 21.9267 53.7024 22.0433 53.9224 22.19L53.6124 22.76C53.3791 22.6 53.1291 22.4867 52.8624 22.42C52.5958 22.3467 52.3291 22.31 52.0624 22.31C51.5891 22.31 51.2391 22.3933 51.0124 22.56C50.7924 22.72 50.6824 22.9267 50.6824 23.18C50.6824 23.38 50.7424 23.5367 50.8624 23.65C50.9891 23.7633 51.1524 23.8533 51.3524 23.92C51.5591 23.98 51.7824 24.03 52.0224 24.07C52.2691 24.11 52.5124 24.16 52.7524 24.22C52.9991 24.2733 53.2224 24.35 53.4224 24.45C53.6291 24.5433 53.7924 24.68 53.9124 24.86C54.0391 25.0333 54.1024 25.2633 54.1024 25.55C54.1024 25.8567 54.0158 26.1233 53.8424 26.35C53.6758 26.57 53.4291 26.7433 53.1024 26.87C52.7824 26.99 52.3924 27.05 51.9324 27.05Z" fill="#454FB1"/>
<defs>
<filter id="filter0_b_1431_2250" x="292" y="265.351" width="68" height="70.2456" filterUnits="userSpaceOnUse" color-interpolation-filters="sRGB">
<feFlood flood-opacity="0" result="BackgroundImageFix"/>
<feGaussianBlur in="BackgroundImageFix" stdDeviation="15"/>
<feComposite in2="SourceAlpha" operator="in" result="effect1_backgroundBlur_1431_2250"/>
<feBlend mode="normal" in="SourceGraphic" in2="effect1_backgroundBlur_1431_2250" result="shape"/>
</filter>
</defs>
</svg>
