<svg width="29" height="24" viewBox="0 0 29 22" fill="none" xmlns="http://www.w3.org/2000/svg">
    <path
        d="M15.9653 7.59289H18.8956L15.9653 10.5231H18.8956M20.3607 1.73242H24.2677L20.3607 5.6394H24.2677"
        stroke="#7336BA" stroke-width="1.5" stroke-linecap="round" stroke-linejoin="round" />
    <g filter="url(#filter0_d_683_1991)">
        <path
            d="M23.5349 11.5C23.5349 13.8962 22.583 16.1943 20.8886 17.8886C19.1943 19.583 16.8962 20.5349 14.5 20.5349V22C20.2989 22 25 17.2989 25 11.5H23.5349ZM14.5 20.5349C12.1038 20.5349 9.80574 19.583 8.11137 17.8886C6.417 16.1943 5.46512 13.8962 5.46512 11.5H4C4 17.2989 8.70107 22 14.5 22V20.5349ZM5.46512 11.5C5.46512 9.1038 6.417 6.80574 8.11137 5.11137C9.80574 3.417 12.1038 2.46512 14.5 2.46512V1C8.70107 1 4 5.70107 4 11.5H5.46512ZM17.9186 13.6977C16.4291 13.6977 15.0006 13.106 13.9473 12.0527C12.894 10.9994 12.3023 9.57092 12.3023 8.0814H10.8372C10.8372 9.9595 11.5833 11.7607 12.9113 13.0887C14.2393 14.4167 16.0405 15.1628 17.9186 15.1628V13.6977ZM22.7291 10.9813C22.2296 11.8105 21.5241 12.4964 20.6812 12.9724C19.8383 13.4483 18.8866 13.6982 17.9186 13.6977V15.1628C19.139 15.1634 20.3388 14.8486 21.4016 14.2487C22.4644 13.6488 23.354 12.7844 23.9842 11.7393L22.7291 10.9813ZM12.3023 8.0814C12.3019 7.11341 12.5518 6.16177 13.0278 5.31888C13.5037 4.47599 14.1895 3.7705 15.0187 3.27093L14.2607 2.01679C13.2157 2.64678 12.3513 3.53626 11.7514 4.59888C11.1516 5.6615 10.8366 6.86116 10.8372 8.0814H12.3023ZM14.5 2.46512C14.4009 2.46278 14.3068 2.42135 14.2382 2.34986C14.1963 2.30907 14.1683 2.25609 14.1581 2.19847C14.1542 2.16819 14.1562 2.08028 14.2607 2.01679L15.0187 3.27093C15.51 2.974 15.6682 2.42995 15.6106 2.00214C15.55 1.55772 15.2003 1 14.5 1V2.46512ZM23.9842 11.7393C23.9197 11.8438 23.8318 11.8458 23.8015 11.8419C23.7439 11.8317 23.6909 11.8037 23.6501 11.7618C23.5787 11.6932 23.5372 11.5991 23.5349 11.5H25C25 10.7997 24.4423 10.45 23.9979 10.3894C23.57 10.3318 23.026 10.49 22.7291 10.9813L23.9842 11.7393Z"
            fill="#7336BA" />
        <path
            d="M23.7272 11L23.5838 10.9134C23.6987 10.8786 23.8189 10.8699 23.9307 10.8849C24.0391 10.8997 24.1462 10.9383 24.2376 11H23.7272ZM22.8815 11.6575L23.0313 11.748C23.0262 11.9215 23.0159 12.0943 23.0004 12.2663C22.4877 12.8889 21.863 13.4141 21.1558 13.8133C20.3137 14.2886 19.3789 14.5714 18.4186 14.644V14.1774C19.2986 14.1056 20.1548 13.8438 20.927 13.4078C21.6993 12.9717 22.3655 12.3739 22.8815 11.6575ZM12.5924 5.07303C12.1563 5.8453 11.8945 6.7014 11.8226 7.5814H11.356C11.4287 6.62129 11.7115 5.68669 12.1868 4.84467C12.5862 4.13718 13.1118 3.51227 13.7349 2.99946C13.9064 2.98403 14.0788 2.97375 14.2518 2.96872L14.3424 3.11863C13.6261 3.63462 13.0284 4.30089 12.5924 5.07303ZM4.51228 11C4.76465 5.87514 8.87514 1.76465 14 1.51228V1.59012C13.7725 1.72739 13.553 1.87616 13.3423 2.03563C11.2401 2.29273 9.27088 3.24476 7.75782 4.75782C6.08789 6.42775 5.10136 8.65333 4.97822 11H4.51228ZM21.2422 18.2422C22.7549 16.7295 23.7068 14.7608 23.9642 12.6592C24.1241 12.448 24.2732 12.228 24.4108 12H24.4877C24.2354 17.1249 20.1249 21.2354 15 21.4877V21.0218C17.3467 20.8986 19.5723 19.9121 21.2422 18.2422ZM14 21.4877C8.87514 21.2354 4.76465 17.1249 4.51228 12H4.97822C5.10136 14.3467 6.08789 16.5723 7.75782 18.2422C9.42775 19.9121 11.6533 20.8986 14 21.0218V21.4877ZM15.0865 2.41651L15 2.2734V1.76236C15.0617 1.85381 15.1002 1.96081 15.1151 2.06924C15.1301 2.18112 15.1214 2.30147 15.0865 2.41651ZM13.5937 12.4063C14.6223 13.4348 15.9795 14.0592 17.4186 14.1772V14.6438C15.856 14.5248 14.3807 13.851 13.2649 12.7351C12.149 11.6193 11.4752 10.144 11.3562 8.5814H11.8228C11.9408 10.0205 12.5652 11.3777 13.5937 12.4063Z"
            stroke="#7336BA" />
    </g>
    <defs>
        <filter id="filter0_d_683_1991" x="0" y="1" width="29" height="29"
            filterUnits="userSpaceOnUse" color-interpolation-filters="sRGB">
            <feFlood flood-opacity="0" result="BackgroundImageFix" />
            <feColorMatrix in="SourceAlpha" type="matrix"
                values="0 0 0 0 0 0 0 0 0 0 0 0 0 0 0 0 0 0 127 0" result="hardAlpha" />
            <feOffset dy="4" />
            <feGaussianBlur stdDeviation="2" />
            <feComposite in2="hardAlpha" operator="out" />
            <feColorMatrix type="matrix" values="0 0 0 0 0 0 0 0 0 0 0 0 0 0 0 0 0 0 0.25 0" />
            <feBlend mode="normal" in2="BackgroundImageFix" result="effect1_dropShadow_683_1991" />
            <feBlend mode="normal" in="SourceGraphic" in2="effect1_dropShadow_683_1991"
                result="shape" />
        </filter>
    </defs>
</svg>
