<svg width="15" height="15" viewBox="0 0 15 15" fill="none" xmlns="http://www.w3.org/2000/svg">
<path d="M5.33333 11.8333V2.44444L14 1V10.3889" stroke="white" stroke-linecap="round" stroke-linejoin="round"/>
<path d="M3.16667 13.9998C4.36328 13.9998 5.33333 13.0298 5.33333 11.8332C5.33333 10.6366 4.36328 9.6665 3.16667 9.6665C1.97005 9.6665 1 10.6366 1 11.8332C1 13.0298 1.97005 13.9998 3.16667 13.9998Z" stroke="white" stroke-linecap="round" stroke-linejoin="round"/>
<path d="M11.8333 12.5555C13.03 12.5555 14 11.5855 14 10.3888C14 9.19222 13.03 8.22217 11.8333 8.22217C10.6367 8.22217 9.66667 9.19222 9.66667 10.3888C9.66667 11.5855 10.6367 12.5555 11.8333 12.5555Z" stroke="white" stroke-linecap="round" stroke-linejoin="round"/>
</svg>
