<svg width="8" height="15" viewBox="0 0 8 15" fill="none" xmlns="http://www.w3.org/2000/svg">
    <path d="M1.17033 -3.19816e-05C1.31972 -0.000540277 1.46733 0.0324321 1.60231 0.0964608C1.73729 0.16049 1.85621 0.253949 1.95033 0.369969L6.78033 6.36997C6.92741 6.5489 7.00781 6.77334 7.00781 7.00497C7.00781 7.23659 6.92741 7.46104 6.78033 7.63997L1.78032 13.64C1.61059 13.8442 1.36667 13.9726 1.10225 13.997C0.837822 14.0214 0.574541 13.9397 0.370325 13.77C0.166108 13.6002 0.037684 13.3563 0.0133043 13.0919C-0.0110754 12.8275 0.0705859 12.5642 0.240325 12.36L4.71033 6.99997L0.390326 1.63997C0.268043 1.49318 0.190366 1.31444 0.166486 1.12489C0.142607 0.935345 0.173524 0.74292 0.25558 0.570393C0.337636 0.397866 0.467396 0.252454 0.629506 0.151364C0.791616 0.0502734 0.979292 -0.0022636 1.17033 -3.19816e-05Z" fill="#91949F"/>
</svg>
