<svg width="32" height="30" viewBox="0 0 32 30" fill="none" xmlns="http://www.w3.org/2000/svg">
    <path d="M26.4814 25.3185C25.6757 24.0397 24.6659 23.0833 23.4521 22.4493C23.7754 23.0128 23.9371 23.6224 23.9371 24.2781C23.9371 25.2806 23.5886 26.1381 22.8915 26.8506C22.1945 27.5632 21.3557 27.9195 20.3751 27.9195C19.3944 27.9195 18.5556 27.5632 17.8586 26.8506C17.1615 26.1381 16.813 25.2806 16.813 24.2781C16.813 23.6224 16.9747 23.0128 17.298 22.4493C16.0842 23.0833 15.0744 24.0397 14.2687 25.3185C14.9737 26.4293 15.8576 27.3139 16.9204 27.9723C17.9831 28.6307 19.1347 28.9599 20.3751 28.9599C21.6154 28.9599 22.767 28.6307 23.8298 27.9723C24.8925 27.3139 25.7764 26.4293 26.4814 25.3185ZM20.7567 22.1973C20.7567 22.0889 20.7196 21.9968 20.6454 21.921C20.5712 21.8451 20.4811 21.8072 20.3751 21.8072C19.7125 21.8072 19.144 22.0496 18.6696 22.5346C18.1952 23.0196 17.958 23.6008 17.958 24.2781C17.958 24.3865 17.9951 24.4786 18.0693 24.5544C18.1435 24.6303 18.2336 24.6682 18.3396 24.6682C18.4456 24.6682 18.5357 24.6303 18.6099 24.5544C18.6841 24.4786 18.7213 24.3865 18.7213 24.2781C18.7213 23.8121 18.8829 23.4138 19.2063 23.0833C19.5296 22.7527 19.9192 22.5875 20.3751 22.5875C20.4811 22.5875 20.5712 22.5495 20.6454 22.4737C20.7196 22.3978 20.7567 22.3057 20.7567 22.1973ZM27.4991 25.3185C27.4991 25.5027 27.4461 25.6897 27.3401 25.8793C26.598 27.1256 25.6002 28.124 24.3466 28.8745C23.093 29.625 21.7691 30.0002 20.3751 30.0002C18.981 30.0002 17.6571 29.6236 16.4035 28.8704C15.1499 28.1172 14.1521 27.1202 13.41 25.8793C13.304 25.6897 13.251 25.5027 13.251 25.3185C13.251 25.1342 13.304 24.9473 13.41 24.7576C14.1521 23.5168 15.1499 22.5197 16.4035 21.7665C17.6571 21.0133 18.981 20.6367 20.3751 20.6367C21.7691 20.6367 23.093 21.0133 24.3466 21.7665C25.6002 22.5197 26.598 23.5168 27.3401 24.7576C27.4461 24.9473 27.4991 25.1342 27.4991 25.3185Z" fill="#2B2996" fill-opacity="0.5"/>
    <path d="M10.8414 22.1571L9.47949 21.0625" stroke="#2B2996" stroke-opacity="0.5" stroke-width="1.5" stroke-linecap="round"/>
    <path d="M14.9314 18.7484L13.7812 16.9307" stroke="#2B2996" stroke-opacity="0.5" stroke-width="1.5" stroke-linecap="round"/>
    <path d="M29.3848 21.8629L30.9473 20.3965" stroke="#2B2996" stroke-opacity="0.5" stroke-width="1.5" stroke-linecap="round"/>
    <path d="M20.05 17.2634L19.9912 15.1035" stroke="#2B2996" stroke-opacity="0.5" stroke-width="1.5" stroke-linecap="round"/>
    <path d="M25.2357 18.614L26.3184 16.8057" stroke="#2B2996" stroke-opacity="0.5" stroke-width="1.5" stroke-linecap="round"/>
    <path d="M1.26747 4.68152C1.26747 4.49728 1.32047 4.31034 1.42649 4.12068C2.16858 2.87438 3.16643 1.87598 4.42003 1.12549C5.67364 0.375 6.99747 -0.000244897 8.39155 -0.000244773C9.78562 -0.000244649 11.1095 0.376356 12.3631 1.12956C13.6167 1.88276 14.6145 2.8798 15.3566 4.12068C15.4626 4.31034 15.5156 4.49728 15.5156 4.68152C15.5156 4.86575 15.4626 5.0527 15.3566 5.24235C14.6145 6.48324 13.6167 7.48028 12.3631 8.23348C11.1095 8.98668 9.78562 9.36328 8.39155 9.36328C6.99747 9.36328 5.67363 8.98668 4.42003 8.23348C3.16642 7.48028 2.16858 6.48324 1.42649 5.24235C1.32047 5.0527 1.26747 4.86575 1.26747 4.68152Z" fill="#2B2996" fill-opacity="0.5"/>
    <path d="M15.132 7.23353L16.0742 8.19043" stroke="#2B2996" stroke-opacity="0.5" stroke-width="1.5" stroke-linecap="round"/>
    <path d="M12.451 9.62518L13.2109 10.8262" stroke="#2B2996" stroke-opacity="0.5" stroke-width="1.5" stroke-linecap="round"/>
    <path d="M2.06654 7.66198L1.03418 8.63086" stroke="#2B2996" stroke-opacity="0.5" stroke-width="1.5" stroke-linecap="round"/>
    <path d="M8.53711 10.5832L8.53711 12.0186" stroke="#2B2996" stroke-opacity="0.5" stroke-width="1.5" stroke-linecap="round"/>
    <path d="M4.55519 9.85112L3.83984 11.0459" stroke="#2B2996" stroke-opacity="0.5" stroke-width="1.5" stroke-linecap="round"/>
</svg>
