<svg width="77" height="67" viewBox="0 0 77 67" fill="none" xmlns="http://www.w3.org/2000/svg">
    <path d="M54.5804 56.366C54.586 56.8928 54.4501 57.5815 54.3086 58.1492C53.3202 62.1421 48.9308 66.6226 42.7526 66.215C37.1534 65.8464 32.5928 63.1584 32.5928 59.389C32.5928 55.6195 37.1422 52.563 42.7526 52.563C48.3631 52.563 54.545 52.5965 54.5804 56.366Z" fill="#EA596E"/>
    <path d="M42.7519 53.1958C39.7382 53.1958 32.8601 54.0297 31.2816 54.0297C28.4931 54.0297 26.2314 55.7795 26.2314 57.9388C26.2314 58.9775 26.7638 59.9157 27.6164 60.6156C27.6164 60.6156 29.489 62.4938 32.862 61.5929C34.3381 61.1982 36.7394 58.2683 40.9668 57.8029C43.0721 57.5702 47.0166 59.199 53.9486 59.2381C54.2465 58.5978 54.3079 58.1529 54.3079 58.1529C54.3079 54.3797 48.3624 53.1958 42.7519 53.1958Z" fill="#DD2E44"/>
    <path d="M54.3079 58.1487C54.3079 58.1487 58.3733 57.3241 60.9012 53.9995C63.8479 50.1221 63.4607 45.9729 63.4607 45.9729C66.4465 40.3885 62.5299 35.1522 62.5299 35.1522C62.1409 29.2569 58.4962 26.8147 58.4962 26.8147C56.1302 21.1912 50.8958 19.6797 50.8958 19.6797C46.7857 14.8716 39.4943 15.0261 39.4943 15.0261C39.4943 15.0261 32.6628 12.5224 23.2847 15.3369C21.7341 15.8023 16.5369 16.8875 12.7358 19.2143C0.755401 26.5485 -0.151133 37.9853 0.016399 39.845C0.94527 50.2375 8.23662 52.099 12.8903 53.1842C13.9755 56.1309 17.9702 61.5608 25.1443 59.5448C33.9863 57.9942 37.7092 55.3565 39.8815 55.3565C42.0538 55.3565 48.1036 57.6834 54.3079 58.1487Z" fill="#F4ABBA"/>
    <path d="M31.9463 41.4386C36.2798 39.1025 38.629 39.3202 40.7027 39.5083C41.3616 39.5678 41.9852 39.6144 42.6162 39.6106C46.3094 39.5269 49.3008 37.9707 50.6243 36.4648C50.776 36.2776 50.8495 36.039 50.8292 35.7989C50.809 35.5589 50.6966 35.3359 50.5156 35.1769C50.3347 35.0178 50.0992 34.9349 49.8585 34.9457C49.6178 34.9564 49.3905 35.0598 49.2244 35.2343C48.2043 36.3959 45.6895 37.6784 42.5734 37.7492C42.015 37.7659 41.4547 37.7101 40.8739 37.6561C38.6495 37.4495 35.887 37.1963 31.0621 39.8005C29.8243 40.4688 28.1266 40.7163 26.2875 40.9025C22.1978 34.9998 24.6587 29.8584 25.3623 28.6336C25.4312 28.6373 25.4982 28.6596 25.5689 28.6596C26.3135 28.6596 27.0618 28.4772 27.7394 28.0938C27.9458 27.9681 28.0953 27.7671 28.1561 27.5332C28.217 27.2993 28.1845 27.051 28.0656 26.8406C27.9466 26.6303 27.7505 26.4744 27.5187 26.4061C27.2869 26.3377 27.0376 26.3622 26.8236 26.4743C26.238 26.7967 25.5523 26.8862 24.9035 26.7251C24.2548 26.5639 23.6907 26.1639 23.324 25.605C23.1856 25.4098 22.9773 25.2754 22.7424 25.2297C22.5075 25.1841 22.2641 25.2307 22.0626 25.3598C21.8611 25.4889 21.7171 25.6906 21.6605 25.9231C21.6039 26.1556 21.639 26.401 21.7585 26.6083C22.1997 27.2989 22.8214 27.8183 23.5232 28.1664C22.5534 30.1358 20.7124 35.3144 24.2157 41.1054C21.7511 41.3474 19.2828 41.6955 17.3506 42.9408C15.9925 43.8306 14.8079 44.9603 13.8548 46.2747C12.6839 46.0736 8.39694 45.0182 7.64863 40.2603C8.114 39.8992 8.49001 39.4226 8.7227 38.8344C8.76768 38.7207 8.78983 38.5993 8.78788 38.4771C8.78594 38.3549 8.75994 38.2342 8.71137 38.122C8.66279 38.0098 8.5926 37.9083 8.5048 37.8233C8.41699 37.7382 8.3133 37.6713 8.19963 37.6263C8.08596 37.5813 7.96454 37.5592 7.84231 37.5611C7.72008 37.5631 7.59943 37.5891 7.48725 37.6376C7.37507 37.6862 7.27355 37.7564 7.1885 37.8442C7.10344 37.932 7.03651 38.0357 6.99154 38.1494C6.92114 38.345 6.80913 38.5231 6.66322 38.6713C6.51732 38.8194 6.34099 38.9341 6.14643 39.0075C5.94927 39.073 5.74031 39.0953 5.53377 39.0728C5.32723 39.0503 5.12795 38.9836 4.94951 38.8772C4.84268 38.8178 4.72521 38.78 4.60378 38.766C4.48235 38.752 4.35936 38.7621 4.24182 38.7956C4.00444 38.8633 3.80368 39.0226 3.68371 39.2383C3.56375 39.4541 3.5344 39.7086 3.60212 39.946C3.66985 40.1834 3.82909 40.3842 4.04484 40.5041C4.57349 40.7982 5.13938 40.9472 5.70154 40.9472C5.77042 40.9472 5.83557 40.9155 5.90444 40.9118C6.7905 45.4035 10.3403 47.3767 12.8514 47.9742C12.5226 48.6739 12.3143 49.424 12.2353 50.1931C12.2136 50.4389 12.2904 50.6833 12.4489 50.8725C12.6074 51.0617 12.8345 51.1802 13.0804 51.202L13.1641 51.2057C13.3968 51.2057 13.621 51.1185 13.7926 50.9614C13.9642 50.8043 14.0707 50.5886 14.0912 50.3569C14.2922 48.0989 16.4459 45.7404 18.3595 44.5026C20.1539 43.3466 22.7805 43.1027 25.3232 42.8663C27.7897 42.6411 30.1202 42.4252 31.9463 41.4386ZM55.8959 38.6389C55.8373 38.7463 55.8003 38.8641 55.7872 38.9857C55.774 39.1073 55.785 39.2303 55.8194 39.3476C55.8538 39.465 55.9109 39.5744 55.9876 39.6697C56.0643 39.765 56.159 39.8442 56.2663 39.9029C56.3737 39.9616 56.4915 39.9985 56.6131 40.0116C56.7347 40.0248 56.8577 40.0138 56.975 39.9794C57.2121 39.91 57.4118 39.7492 57.5303 39.5325C57.5657 39.4692 60.9591 33.1123 54.6059 28.8402C54.401 28.7025 54.1498 28.6518 53.9076 28.6992C53.6653 28.7467 53.4518 28.8885 53.3141 29.0934C53.1763 29.2982 53.1256 29.5494 53.1731 29.7917C53.2206 30.034 53.3623 30.2475 53.5672 30.3852C58.4889 33.6949 56.0039 38.4379 55.8959 38.6389ZM17.3134 23.6095C17.4611 23.61 17.6068 23.5751 17.7383 23.5077C17.8698 23.4404 17.9832 23.3425 18.0691 23.2223C20.7682 19.4677 24.5061 20.7521 24.6643 20.8117C24.8935 20.8874 25.1432 20.871 25.3606 20.766C25.5781 20.6611 25.7462 20.4757 25.8295 20.2492C25.9129 20.0226 25.9049 19.7725 25.8073 19.5516C25.7097 19.3308 25.5301 19.1566 25.3065 19.0657C23.5195 18.403 19.3926 18.1945 16.5576 22.1371C16.4581 22.2761 16.3988 22.4399 16.3862 22.6104C16.3737 22.7809 16.4083 22.9516 16.4864 23.1038C16.5645 23.2559 16.683 23.3836 16.8289 23.4728C16.9747 23.562 17.1424 23.6093 17.3134 23.6095ZM41.6464 20.095C45.7882 19.7581 47.672 22.7607 47.7576 22.9021C47.8828 23.1152 48.0874 23.2697 48.3265 23.3319C48.4449 23.3627 48.5682 23.3698 48.6894 23.3529C48.8106 23.336 48.9272 23.2954 49.0327 23.2335C49.1382 23.1715 49.2304 23.0894 49.3042 22.9917C49.3779 22.8941 49.4317 22.7829 49.4625 22.6645C49.4932 22.5461 49.5004 22.4228 49.4835 22.3017C49.4666 22.1805 49.426 22.0638 49.364 21.9584C49.2635 21.789 46.8697 17.8296 41.5012 18.2392C41.3794 18.2487 41.2606 18.2821 41.1516 18.3376C41.0427 18.393 40.9458 18.4694 40.8663 18.5623C40.7059 18.7499 40.6266 18.9936 40.6459 19.2397C40.6651 19.4858 40.7814 19.7142 40.969 19.8746C41.1566 20.035 41.4003 20.1143 41.6464 20.095ZM58.6788 47.2929C58.2209 47.2668 57.7164 47.6298 57.6755 48.1436C57.6718 48.1771 57.3758 51.3434 54.1201 52.4138C53.9072 52.4807 53.7255 52.6219 53.6083 52.8118C53.491 53.0016 53.446 53.2273 53.4815 53.4476C53.5169 53.6679 53.6305 53.8681 53.8014 54.0115C53.9724 54.1549 54.1892 54.232 54.4123 54.2287C54.511 54.2287 54.609 54.213 54.7027 54.1822C59.1181 52.734 59.5165 48.4786 59.5314 48.2981C59.5509 48.0519 59.4722 47.8079 59.3125 47.6196C59.1527 47.4312 58.9249 47.3138 58.6788 47.2929Z" fill="#EA596E"/>
    <path d="M12.6055 38.2484C12.5688 38.3678 12.5566 38.4934 12.5696 38.6176C12.5825 38.7418 12.6204 38.8622 12.6808 38.9715C12.7412 39.0808 12.8231 39.1769 12.9214 39.2539C13.0197 39.3309 13.1326 39.3873 13.2532 39.4198C13.3738 39.4523 13.4997 39.4602 13.6234 39.443C13.7472 39.4258 13.8661 39.3839 13.9733 39.3198C14.0805 39.2556 14.1737 39.1705 14.2473 39.0696C14.3209 38.9687 14.3734 38.854 14.4018 38.7323C14.581 38.0874 14.9978 37.5342 15.5683 37.184C16.1388 36.8338 16.8207 36.7127 17.4769 36.8448C17.5966 36.8699 17.72 36.8711 17.8401 36.8485C17.9603 36.8258 18.0748 36.7798 18.1771 36.7129C18.2794 36.646 18.3676 36.5596 18.4365 36.4586C18.5055 36.3576 18.5538 36.2441 18.5789 36.1244C18.6039 36.0048 18.6052 35.8814 18.5826 35.7612C18.5599 35.6411 18.5138 35.5266 18.4469 35.4242C18.38 35.3219 18.2936 35.2338 18.1927 35.1648C18.0917 35.0959 17.9782 35.0475 17.8585 35.0224C17.0839 34.8653 16.2812 34.9206 15.5354 35.1825C13.3649 31.4708 13.7875 27.8111 13.7931 27.772C13.8249 27.5276 13.7588 27.2805 13.6092 27.0845C13.4596 26.8886 13.2387 26.7597 12.9945 26.7259C12.7507 26.6945 12.5043 26.7603 12.3086 26.909C12.1129 27.0577 11.9835 27.2775 11.9484 27.5207C11.9242 27.7013 11.4271 31.8319 13.9271 36.1095C13.2889 36.6796 12.8298 37.4226 12.6055 38.2484ZM33.4148 33.6505C33.7864 33.3124 34.2721 33.1274 34.7745 33.1326C35.2768 33.1378 35.7586 33.3328 36.1232 33.6785C36.3009 33.8494 36.5389 33.9431 36.7854 33.9393C37.0319 33.9354 37.2669 33.8343 37.4392 33.658C37.6113 33.481 37.706 33.2429 37.7025 32.9961C37.699 32.7493 37.5976 32.514 37.4206 32.3419C37.0002 31.9419 36.4922 31.6456 35.937 31.4764C36.488 29.5851 36.2702 28.7456 35.7583 27.1727C35.657 26.8649 35.5596 26.5559 35.4661 26.2456L35.4102 26.0595C34.7327 23.8108 34.2841 22.3273 35.5722 20.2331C35.7015 20.0228 35.742 19.7697 35.6848 19.5295C35.6275 19.2894 35.4772 19.0818 35.2669 18.9524C35.0566 18.8231 34.8035 18.7826 34.5633 18.8398C34.3232 18.8971 34.1156 19.0474 33.9862 19.2577C32.2588 22.0648 32.8936 24.1664 33.6288 26.5993L33.6847 26.7855C33.7945 27.1466 33.895 27.463 33.9881 27.7478C34.4479 29.1644 34.5875 29.6391 34.0253 31.3516C33.3223 31.4796 32.6702 31.805 32.1452 32.2898C31.9712 32.4597 31.8706 32.691 31.865 32.9341C31.8593 33.1772 31.949 33.4129 32.1149 33.5907C32.2808 33.7685 32.5097 33.8743 32.7526 33.8855C32.9956 33.8967 33.2332 33.8124 33.4148 33.6505ZM45.263 28.0941C45.8158 28.0957 46.362 27.9743 46.862 27.7385C47.0854 27.6334 47.2578 27.4438 47.3414 27.2115C47.4251 26.9791 47.413 26.7231 47.3078 26.4997C47.2026 26.2763 47.0131 26.1039 46.7807 26.0203C46.5484 25.9367 46.2924 25.9488 46.069 26.0539C45.6114 26.263 45.0918 26.2915 44.614 26.1337C44.1363 25.976 43.7358 25.6437 43.4927 25.2032C43.4374 25.0914 43.3602 24.9918 43.2656 24.9104C43.171 24.829 43.0611 24.7675 42.9422 24.7295C42.8234 24.6914 42.6981 24.6777 42.5739 24.689C42.4496 24.7003 42.3289 24.7366 42.2189 24.7955C42.109 24.8544 42.0119 24.9348 41.9337 25.032C41.8554 25.1292 41.7975 25.2411 41.7633 25.3611C41.7291 25.4811 41.7195 25.6067 41.7348 25.7305C41.7502 25.8544 41.7903 25.9738 41.8528 26.0818C42.1878 26.7073 42.6867 27.2006 43.2675 27.5431C42.2679 29.9723 42.8356 32.5523 43.2991 33.9205C43.3346 34.0405 43.3939 34.1522 43.4735 34.2488C43.5531 34.3454 43.6514 34.425 43.7625 34.4827C43.8736 34.5405 43.9951 34.5752 44.12 34.5849C44.2448 34.5945 44.3703 34.5789 44.4889 34.5389C44.6075 34.499 44.7169 34.4355 44.8104 34.3523C44.9039 34.2691 44.9797 34.1678 45.0332 34.0547C45.0867 33.9415 45.1168 33.8187 45.1218 33.6936C45.1267 33.5685 45.1064 33.4437 45.0619 33.3267C44.7492 32.3996 44.1424 30.0579 45.0582 28.0662C45.129 28.0699 45.1941 28.0941 45.263 28.0941ZM54.1924 45.6458C54.1853 45.5236 54.154 45.404 54.1004 45.2939C54.0467 45.1839 53.9717 45.0855 53.8798 45.0047C53.7879 44.9238 53.6808 44.862 53.5648 44.8228C53.4488 44.7837 53.3261 44.7679 53.204 44.7765C52.7576 44.8074 52.3096 44.7497 51.8856 44.6069C51.4616 44.4642 51.07 44.239 50.7332 43.9445C50.3965 43.6499 50.1212 43.2917 49.9233 42.8905C49.7253 42.4893 49.6086 42.0529 49.5797 41.6064C49.5588 41.3617 49.4436 41.1346 49.2585 40.9732C49.0734 40.8117 48.8329 40.7284 48.5876 40.7409C48.3415 40.7585 48.1125 40.8727 47.9503 41.0586C47.7882 41.2445 47.7061 41.4869 47.722 41.733C47.7983 42.8313 48.2171 43.8216 48.8537 44.6276C47.3571 46.3885 45.397 46.8893 44.3043 47.0177C43.3382 47.1331 42.4931 47.0345 41.5159 46.9191C40.6205 46.8167 39.6079 46.6994 38.3551 46.7366L38.3458 46.7385C38.3085 46.2061 38.182 45.4299 37.778 44.784C37.6392 44.5927 37.4328 44.4613 37.2008 44.4163C36.9687 44.3713 36.7283 44.4162 36.528 44.5417C36.3277 44.6673 36.1826 44.8642 36.122 45.0926C36.0613 45.3211 36.0897 45.5641 36.2014 45.7724C36.4508 46.1726 36.4973 46.8111 36.4973 47.122C35.5592 47.4589 34.7476 47.954 34.0142 48.4324C32.7037 49.285 31.6706 49.9588 30.1162 49.6089C28.709 49.2868 27.2999 49.2217 26.1048 49.3892C25.9186 48.922 25.6245 48.3636 25.1703 47.9336C24.9909 47.764 24.7514 47.6726 24.5046 47.6796C24.2578 47.6866 24.0239 47.7913 23.8543 47.9708C23.6847 48.1502 23.5934 48.3897 23.6003 48.6365C23.6073 48.8833 23.7121 49.1173 23.8915 49.2868C24.0516 49.4376 24.1782 49.6573 24.2806 49.8769C22.2274 50.722 21.198 52.1349 21.1496 52.2038C21.0508 52.3428 20.9922 52.5062 20.9802 52.6763C20.9682 52.8464 21.0033 53.0165 21.0815 53.168C21.1598 53.3195 21.2782 53.4465 21.4238 53.5351C21.5695 53.6238 21.7367 53.6707 21.9072 53.6706C22.0543 53.671 22.1994 53.6366 22.3308 53.5703C22.4621 53.504 22.5759 53.4076 22.6629 53.289C22.6723 53.2741 23.6942 51.9059 25.7102 51.3531C26.7526 51.0664 28.2473 51.0906 29.7049 51.4219C30.1125 51.515 30.4904 51.5467 30.8571 51.5522C31.0302 51.958 31.0972 52.4402 31.1065 52.6189C31.1203 52.8561 31.2241 53.0791 31.3967 53.2424C31.5693 53.4057 31.7978 53.4969 32.0354 53.4975L32.0857 53.4956C32.3313 53.4826 32.5618 53.3729 32.7268 53.1905C32.8917 53.0081 32.9778 52.7677 32.9661 52.5221C32.9351 52.0885 32.8539 51.66 32.7242 51.2451C33.5823 50.9342 34.3287 50.4484 35.0305 49.9923C36.0953 49.298 37.1023 48.6409 38.4184 48.5981C39.5204 48.559 40.4288 48.6651 41.3055 48.7675C42.1878 48.8699 43.0553 48.9369 44.0121 48.881C44.1815 49.352 44.1684 49.9812 44.1424 50.1915C44.1266 50.3226 44.1388 50.4555 44.178 50.5815C44.2173 50.7076 44.2827 50.8239 44.3701 50.9229C44.4574 51.0218 44.5647 51.1012 44.6849 51.1558C44.8051 51.2103 44.9355 51.2389 45.0675 51.2395C45.2932 51.2392 45.511 51.1569 45.6805 51.0079C45.85 50.859 45.9596 50.6535 45.9889 50.4298C46.0571 49.8193 46.02 49.2016 45.8791 48.6037C47.5775 48.1531 49.0994 47.1984 50.2443 45.8655C51.1671 46.4355 52.2444 46.7042 53.3268 46.6343C53.4486 46.6262 53.5676 46.5943 53.6769 46.5402C53.7863 46.4862 53.884 46.4111 53.9644 46.3194C54.0448 46.2276 54.1063 46.1208 54.1454 46.0053C54.1845 45.8897 54.2005 45.7676 54.1924 45.6458Z" fill="#EA596E"/>
    <path d="M52.0072 26.7314L47.8577 39.479C47.7749 39.7326 47.7854 40.0053 47.8875 40.2525C47.9896 40.4997 48.1773 40.707 48.4199 40.8405L52.0072 26.7314ZM52.0072 26.7314H52.3327V25.7314M52.0072 26.7314L52.3327 25.7314M52.3327 25.7314L51.3818 25.4218L51.2811 25.7314M52.3327 25.7314H51.2811M51.2811 25.7314H44.0759H51.2811ZM63.9116 4.41945C63.9667 4.41183 64.0208 4.41933 64.0669 4.4377L64.097 4.45422C64.1481 4.4822 64.1755 4.51879 64.1875 4.5478C64.199 4.57551 64.1997 4.60277 64.191 4.62925L64.1908 4.63L59.7157 18.3753L59.2894 19.6849H60.6666H68.9235H68.9238C68.9831 19.6849 69.0371 19.7015 69.0786 19.7273C69.1196 19.7528 69.1432 19.7836 69.1549 19.8092C69.1663 19.8342 69.1685 19.8579 69.1644 19.8798C69.1603 19.9022 69.1479 19.9307 69.1199 19.9588L69.1193 19.9594L49.2412 39.9244L49.2409 39.9247C49.2077 39.9581 49.1549 39.9876 49.0874 39.9969C49.0198 40.0062 48.9536 39.9927 48.9019 39.9643C48.851 39.9363 48.8237 39.8998 48.8118 39.8708C48.8003 39.8431 48.7997 39.8159 48.8083 39.7894L48.8086 39.7886L53.2836 26.0409L53.7099 24.7314H52.3327H44.0759H44.0755C44.0162 24.7314 43.9623 24.7148 43.9208 24.689L43.3931 25.5384L43.9208 24.689C43.8797 24.6635 43.8561 24.6327 43.8444 24.607C43.833 24.5821 43.8308 24.5584 43.8349 24.5364C43.8391 24.514 43.8514 24.4856 43.8795 24.4575L43.8801 24.4569L63.7581 4.49187L63.7584 4.49163C63.7915 4.45829 63.8442 4.42877 63.9116 4.41945Z" fill="white" fill-opacity="0.8" stroke="white" stroke-width="2"/>
</svg>