<svg width="39" height="39" viewBox="0 0 39 39" fill="none" xmlns="http://www.w3.org/2000/svg">
    <circle cx="20" cy="20" r="12" fill="white"/>
    <path d="M14.625 11.375V27.625H24.375V24.375H17.875V11.375H14.625ZM19.5 3.25C21.634 3.25 23.7471 3.67032 25.7186 4.48696C27.6901 5.3036 29.4815 6.50056 30.9905 8.00951C32.4994 9.51847 33.6964 11.3099 34.513 13.2814C35.3297 15.2529 35.75 17.366 35.75 19.5C35.75 23.8098 34.038 27.943 30.9905 30.9905C27.943 34.038 23.8098 35.75 19.5 35.75C17.366 35.75 15.2529 35.3297 13.2814 34.513C11.3099 33.6964 9.51847 32.4994 8.00951 30.9905C4.96205 27.943 3.25 23.8098 3.25 19.5C3.25 15.1902 4.96205 11.057 8.00951 8.00951C11.057 4.96205 15.1902 3.25 19.5 3.25Z" fill="#4D71F1"/>
</svg>
