<svg width="16" height="16" viewBox="0 0 16 16" fill="none" xmlns="http://www.w3.org/2000/svg">
    <path d="M7.99967 1.3335C4.32367 1.3335 1.33301 4.32416 1.33301 8.00016C1.33301 11.6762 4.32367 14.6668 7.99967 14.6668C11.6757 14.6668 14.6663 11.6762 14.6663 8.00016C14.6663 4.32416 11.6757 1.3335 7.99967 1.3335ZM7.99967 13.3335C5.05901 13.3335 2.66634 10.9408 2.66634 8.00016C2.66634 5.0595 5.05901 2.66683 7.99967 2.66683C10.9403 2.66683 13.333 5.0595 13.333 8.00016C13.333 10.9408 10.9403 13.3335 7.99967 13.3335Z" fill="#4D71F1"/>
    <path d="M8.66634 4.6665H7.33301V8.6665H11.333V7.33317H8.66634V4.6665Z" fill="#4D71F1"/>
</svg>