<svg width="31" height="24" viewBox="0 0 31 24" fill="none" xmlns="http://www.w3.org/2000/svg">
    <path d="M2.4971 8.55446C2.4971 8.21785 2.59546 7.87629 2.79218 7.52978C4.16924 5.25269 6.02088 3.42854 8.34712 2.05734C10.6734 0.686137 13.1299 0.000534583 15.7168 0.000534809C18.3037 0.000535035 20.7603 0.688611 23.0865 2.06477C25.4127 3.44092 27.2644 5.26259 28.6414 7.52978C28.8382 7.87629 28.9365 8.21785 28.9365 8.55447C28.9365 8.89108 28.8382 9.23264 28.6414 9.57916C27.2644 11.8463 25.4127 13.668 23.0865 15.0442C20.7603 16.4203 18.3037 17.1084 15.7168 17.1084C13.1299 17.1084 10.6734 16.4203 8.34712 15.0442C6.02088 13.668 4.16924 11.8463 2.79218 9.57915C2.59546 9.23264 2.4971 8.89108 2.4971 8.55446Z" fill="#2B2996"/>
    <path d="M26.9997 14.326L28.5967 15.8911" stroke="#2B2996" stroke-width="3" stroke-linecap="round"/>
    <path d="M22.2695 18L23.6797 20.1943" stroke="#2B2996" stroke-width="3" stroke-linecap="round"/>
    <path d="M3.98112 13.9998L2.06543 15.77" stroke="#2B2996" stroke-width="3" stroke-linecap="round"/>
    <path d="M15.2463 19.0001L15.3184 21.6074" stroke="#2B2996" stroke-width="3" stroke-linecap="round"/>
    <path d="M8.59695 18.0002L7.26953 20.1831" stroke="#2B2996" stroke-width="3" stroke-linecap="round"/>
</svg>
