<svg width="44" height="30" viewBox="0 0 44 30" fill="none" xmlns="http://www.w3.org/2000/svg">
    <path d="M33.5499 20.6633C32.0548 18.3268 30.1811 16.5794 27.9286 15.4211C28.5286 16.4507 28.8286 17.5645 28.8286 18.7624C28.8286 20.594 28.1819 22.1607 26.8884 23.4626C25.595 24.7645 24.0384 25.4155 22.2187 25.4155C20.3991 25.4155 18.8425 24.7645 17.549 23.4626C16.2556 22.1607 15.6089 20.594 15.6089 18.7624C15.6089 17.5645 15.9089 16.4507 16.5089 15.4211C14.2564 16.5794 12.3826 18.3268 10.8876 20.6633C12.1958 22.6929 13.8359 24.3091 15.8081 25.512C17.7802 26.7149 19.9171 27.3164 22.2187 27.3164C24.5204 27.3164 26.6573 26.7149 28.6294 25.512C30.6015 24.3091 32.2417 22.6929 33.5499 20.6633ZM22.9269 14.9607C22.9269 14.7627 22.8581 14.5944 22.7204 14.4558C22.5827 14.3172 22.4155 14.2479 22.2187 14.2479C20.9892 14.2479 19.9343 14.6909 19.054 15.577C18.1736 16.4631 17.7335 17.5249 17.7335 18.7624C17.7335 18.9604 17.8023 19.1287 17.94 19.2674C18.0777 19.406 18.245 19.4753 18.4417 19.4753C18.6384 19.4753 18.8056 19.406 18.9433 19.2674C19.081 19.1287 19.1499 18.9604 19.1499 18.7624C19.1499 17.911 19.4499 17.1833 20.0499 16.5794C20.6499 15.9755 21.3728 15.6735 22.2187 15.6735C22.4155 15.6735 22.5827 15.6042 22.7204 15.4656C22.8581 15.327 22.9269 15.1587 22.9269 14.9607ZM35.4384 20.6633C35.4384 20.9999 35.3401 21.3415 35.1434 21.688C33.7663 23.9651 31.9147 25.7892 29.5884 27.1604C27.2622 28.5316 24.8056 29.2172 22.2187 29.2172C19.6318 29.2172 17.1753 28.5292 14.849 27.153C12.5228 25.7769 10.6712 23.9552 9.29411 21.688C9.09738 21.3415 8.99902 20.9999 8.99902 20.6633C8.99902 20.3267 9.09738 19.9851 9.29411 19.6386C10.6712 17.3714 12.5228 15.5498 14.849 14.1736C17.1753 12.7975 19.6318 12.1094 22.2187 12.1094C24.8056 12.1094 27.2622 12.7975 29.5884 14.1736C31.9147 15.5498 33.7663 17.3714 35.1434 19.6386C35.3401 19.9851 35.4384 20.3267 35.4384 20.6633Z" fill="#2B2996"/>
    <path d="M4.52827 14.8867L2.00098 12.8867" stroke="#2B2996" stroke-width="3" stroke-linecap="round"/>
    <path d="M12.1158 8.66001L9.98145 5.33887" stroke="#2B2996" stroke-width="3" stroke-linecap="round"/>
    <path d="M38.9375 14.3497L41.8369 11.6704" stroke="#2B2996" stroke-width="3" stroke-linecap="round"/>
    <path d="M21.6169 5.94631L21.5078 2" stroke="#2B2996" stroke-width="3" stroke-linecap="round"/>
    <path d="M31.238 8.4143L33.2471 5.11035" stroke="#2B2996" stroke-width="3" stroke-linecap="round"/>
</svg>
