<svg width="67" height="63" viewBox="0 0 67 63" fill="none" xmlns="http://www.w3.org/2000/svg">
    <path d="M1.41138 44.8884C4.70398 47.748 12.889 44.7931 15.5233 48.2248C18.2336 51.7556 17.1195 59.1615 16.1159 63H38.4504C37.9922 61.8412 37.5344 60.8535 37.1618 60.1405C36.4146 58.7104 36.0881 56.9028 38.1026 57.2808C48.2632 59.1873 53.3121 41.5523 54.5665 32.4965C55.8209 23.4407 55.3191 9.04659 39.5138 2.94584C23.7085 -3.1549 14.1119 1.516 12.2308 5.32895C10.3497 9.14189 11.5659 10.0949 11.2897 10.5718C11.0135 11.0486 7.52685 21.534 7.52685 21.534C7.52685 21.534 0 25.3472 0 26.7769C4.96722e-08 28.2065 2.3525 28.6831 2.3525 29.6364C2.3525 30.5896 0.941088 31.0664 0.470397 32.4963C-0.000293556 33.9262 1.41119 35.356 1.41119 35.356C1.41119 35.356 0.000295915 35.8326 0 37.2625C-0.000293636 38.6924 1.41119 38.2157 0.940811 40.122C0.0418487 43.7652 0.784183 44.2529 1.41138 44.8884Z" fill="#D6B6FD"/>
    <svg width="67" height="63" viewBox="0 0 67 63" fill="none" xmlns="http://www.w3.org/2000/svg">
        <path d="M1.41138 44.8884C4.70398 47.748 12.889 44.7931 15.5233 48.2248C18.2336 51.7556 17.1195 59.1615 16.1159 63H38.4504C37.9922 61.8412 37.5344 60.8535 37.1618 60.1405C36.4146 58.7104 36.0881 56.9028 38.1026 57.2808C48.2632 59.1873 53.3121 41.5523 54.5665 32.4965C55.8209 23.4407 55.3191 9.04659 39.5138 2.94584C23.7085 -3.1549 14.1119 1.516 12.2308 5.32895C10.3497 9.14189 11.5659 10.0949 11.2897 10.5718C11.0135 11.0486 7.52685 21.534 7.52685 21.534C7.52685 21.534 0 25.3472 0 26.7769C4.96722e-08 28.2065 2.3525 28.6831 2.3525 29.6364C2.3525 30.5896 0.941088 31.0664 0.470397 32.4963C-0.000293556 33.9262 1.41119 35.356 1.41119 35.356C1.41119 35.356 0.000295915 35.8326 0 37.2625C-0.000293636 38.6924 1.41119 38.2157 0.940811 40.122C0.0418487 43.7652 0.784183 44.2529 1.41138 44.8884Z" fill="#D6B6FD"/>
        <path fill-rule="evenodd" clip-rule="evenodd" d="M19.5501 15.8587C18.5905 19.5769 18.8751 22.1887 20.4055 23.6912C21.9345 25.1952 24.5405 26.1783 28.2234 26.6406C27.3871 31.4387 28.4068 33.6881 31.2798 33.3917C34.1529 33.0953 35.8799 31.9024 36.4595 29.8114C40.9495 31.0733 43.3838 30.0169 43.7609 26.642C44.3258 21.5798 41.5966 17.5432 40.477 17.5432C39.3589 17.5432 36.4595 17.4067 36.4595 15.8587C36.4595 14.3107 33.0729 13.4376 30.0165 13.4376C26.9601 13.4376 28.7986 11.376 24.6021 12.1904C21.8039 12.7333 20.1194 13.9556 19.5501 15.8587V15.8587Z" fill="#AA70F1" stroke="#AC75F1" stroke-width="2" stroke-linejoin="round"/>
        <path d="M34.223 32.7329C32.022 34.2002 31.2884 34.9339 29.821 36.4012C27.2676 38.9547 27.3854 40.5053 27.0039 42.429" stroke="#AA70F1" stroke-width="2" stroke-linecap="round"/>
        <path d="M65.6328 19.125C65.6328 19.3363 65.5464 19.539 65.3925 19.6885C65.2387 19.8379 65.0301 19.9219 64.8125 19.9219C64.5949 19.9219 64.3863 19.8379 64.2325 19.6885C64.0786 19.539 63.9922 19.3363 63.9922 19.125C63.985 15.6752 62.571 12.3687 60.0599 9.92932C57.5488 7.48993 54.145 6.11639 50.5938 6.10938C47.3315 6.11289 44.2038 7.37336 41.897 9.61425C39.5902 11.8551 38.2927 14.8934 38.2891 18.0625C38.2927 20.9498 39.475 23.7178 41.5767 25.7595C43.6783 27.8011 46.5278 28.9496 49.5 28.9531C52.1821 28.9496 54.7534 27.913 56.6499 26.0707C58.5465 24.2283 59.6136 21.7305 59.6172 19.125C59.6136 16.8013 58.6617 14.5738 56.9703 12.9306C55.2788 11.2875 52.9858 10.3629 50.5938 10.3594C48.4907 10.3594 46.4737 11.171 44.9866 12.6156C43.4995 14.0602 42.6641 16.0195 42.6641 18.0625C42.6641 19.8237 43.3843 21.5128 44.6663 22.7581C45.9482 24.0035 47.687 24.7031 49.5 24.7031C51.0229 24.7031 52.4835 24.1154 53.5603 23.0693C54.6372 22.0232 55.2422 20.6044 55.2422 19.125C55.2386 17.9285 54.7477 16.7819 53.8767 15.9358C53.0057 15.0898 51.8255 14.6129 50.5938 14.6094C49.6521 14.6129 48.75 14.9778 48.0842 15.6246C47.4183 16.2715 47.0427 17.1478 47.0391 18.0625C47.0427 18.6955 47.3031 19.3015 47.7638 19.7491C48.2246 20.1967 48.8484 20.4496 49.5 20.4531C49.8626 20.4531 50.2104 20.3132 50.4667 20.0641C50.7231 19.8151 50.8672 19.4772 50.8672 19.125C50.8672 19.0546 50.8384 18.987 50.7871 18.9372C50.7358 18.8874 50.6663 18.8594 50.5938 18.8594C50.3762 18.8594 50.1675 18.7754 50.0137 18.626C49.8599 18.4765 49.7734 18.2738 49.7734 18.0625C49.7734 17.8512 49.8599 17.6485 50.0137 17.499C50.1675 17.3496 50.3762 17.2656 50.5938 17.2656C51.1014 17.2656 51.5882 17.4615 51.9472 17.8102C52.3062 18.1589 52.5078 18.6319 52.5078 19.125C52.5042 19.8989 52.1862 20.64 51.6229 21.1872C51.0596 21.7344 50.2966 22.0434 49.5 22.0469C48.4133 22.0434 47.3722 21.6225 46.6037 20.876C45.8353 20.1296 45.402 19.1181 45.3984 18.0625C45.3984 16.724 45.9458 15.4403 46.9201 14.4938C47.8944 13.5473 49.2159 13.0156 50.5938 13.0156C52.2617 13.0156 53.8614 13.6593 55.0408 14.805C56.2202 15.9508 56.8828 17.5047 56.8828 19.125C56.8828 21.0271 56.105 22.8513 54.7204 24.1963C53.3359 25.5413 51.458 26.2969 49.5 26.2969C47.253 26.2934 45.099 25.4247 43.5102 23.8812C41.9213 22.3377 41.0271 20.2453 41.0234 18.0625C41.0271 15.5979 42.0365 13.2352 43.8305 11.4925C45.6245 9.74976 48.0567 8.76914 50.5938 8.76563C53.4209 8.76914 56.1313 9.8617 58.1304 11.8037C60.1295 13.7457 61.2542 16.3786 61.2578 19.125C61.2542 22.1532 60.0143 25.0563 57.81 27.1976C55.6058 29.3389 52.6173 30.5434 49.5 30.5469C46.0927 30.5434 42.8259 29.2269 40.4166 26.8864C38.0072 24.5459 36.6521 21.3725 36.6484 18.0625C36.6557 14.4718 38.1272 11.0302 40.7409 8.49117C43.3546 5.95215 46.8974 4.52264 50.5938 4.51562C54.5812 4.51914 58.4044 6.05947 61.224 8.7985C64.0436 11.5375 65.6292 15.2514 65.6328 19.125Z" fill="white" stroke="white" stroke-width="0.5"/>
    </svg>
    <path d="M34.223 32.7329C32.022 34.2002 31.2884 34.9339 29.821 36.4012C27.2676 38.9547 27.3854 40.5053 27.0039 42.429" stroke="#AA70F1" stroke-width="2" stroke-linecap="round"/>
    <path d="M65.6328 19.125C65.6328 19.3363 65.5464 19.539 65.3925 19.6885C65.2387 19.8379 65.0301 19.9219 64.8125 19.9219C64.5949 19.9219 64.3863 19.8379 64.2325 19.6885C64.0786 19.539 63.9922 19.3363 63.9922 19.125C63.985 15.6752 62.571 12.3687 60.0599 9.92932C57.5488 7.48993 54.145 6.11639 50.5938 6.10938C47.3315 6.11289 44.2038 7.37336 41.897 9.61425C39.5902 11.8551 38.2927 14.8934 38.2891 18.0625C38.2927 20.9498 39.475 23.7178 41.5767 25.7595C43.6783 27.8011 46.5278 28.9496 49.5 28.9531C52.1821 28.9496 54.7534 27.913 56.6499 26.0707C58.5465 24.2283 59.6136 21.7305 59.6172 19.125C59.6136 16.8013 58.6617 14.5738 56.9703 12.9306C55.2788 11.2875 52.9858 10.3629 50.5938 10.3594C48.4907 10.3594 46.4737 11.171 44.9866 12.6156C43.4995 14.0602 42.6641 16.0195 42.6641 18.0625C42.6641 19.8237 43.3843 21.5128 44.6663 22.7581C45.9482 24.0035 47.687 24.7031 49.5 24.7031C51.0229 24.7031 52.4835 24.1154 53.5603 23.0693C54.6372 22.0232 55.2422 20.6044 55.2422 19.125C55.2386 17.9285 54.7477 16.7819 53.8767 15.9358C53.0057 15.0898 51.8255 14.6129 50.5938 14.6094C49.6521 14.6129 48.75 14.9778 48.0842 15.6246C47.4183 16.2715 47.0427 17.1478 47.0391 18.0625C47.0427 18.6955 47.3031 19.3015 47.7638 19.7491C48.2246 20.1967 48.8484 20.4496 49.5 20.4531C49.8626 20.4531 50.2104 20.3132 50.4667 20.0641C50.7231 19.8151 50.8672 19.4772 50.8672 19.125C50.8672 19.0546 50.8384 18.987 50.7871 18.9372C50.7358 18.8874 50.6663 18.8594 50.5938 18.8594C50.3762 18.8594 50.1675 18.7754 50.0137 18.626C49.8599 18.4765 49.7734 18.2738 49.7734 18.0625C49.7734 17.8512 49.8599 17.6485 50.0137 17.499C50.1675 17.3496 50.3762 17.2656 50.5938 17.2656C51.1014 17.2656 51.5882 17.4615 51.9472 17.8102C52.3062 18.1589 52.5078 18.6319 52.5078 19.125C52.5042 19.8989 52.1862 20.64 51.6229 21.1872C51.0596 21.7344 50.2966 22.0434 49.5 22.0469C48.4133 22.0434 47.3722 21.6225 46.6037 20.876C45.8353 20.1296 45.402 19.1181 45.3984 18.0625C45.3984 16.724 45.9458 15.4403 46.9201 14.4938C47.8944 13.5473 49.2159 13.0156 50.5938 13.0156C52.2617 13.0156 53.8614 13.6593 55.0408 14.805C56.2202 15.9508 56.8828 17.5047 56.8828 19.125C56.8828 21.0271 56.105 22.8513 54.7204 24.1963C53.3359 25.5413 51.458 26.2969 49.5 26.2969C47.253 26.2934 45.099 25.4247 43.5102 23.8812C41.9213 22.3377 41.0271 20.2453 41.0234 18.0625C41.0271 15.5979 42.0365 13.2352 43.8305 11.4925C45.6245 9.74976 48.0567 8.76914 50.5938 8.76563C53.4209 8.76914 56.1313 9.8617 58.1304 11.8037C60.1295 13.7457 61.2542 16.3786 61.2578 19.125C61.2542 22.1532 60.0143 25.0563 57.81 27.1976C55.6058 29.3389 52.6173 30.5434 49.5 30.5469C46.0927 30.5434 42.8259 29.2269 40.4166 26.8864C38.0072 24.5459 36.6521 21.3725 36.6484 18.0625C36.6557 14.4718 38.1272 11.0302 40.7409 8.49117C43.3546 5.95215 46.8974 4.52264 50.5938 4.51562C54.5812 4.51914 58.4044 6.05947 61.224 8.7985C64.0436 11.5375 65.6292 15.2514 65.6328 19.125Z" fill="white" stroke="white" stroke-width="0.5"/>
</svg>
