<svg width="32" height="32" viewBox="0 0 32 32" fill="none" xmlns="http://www.w3.org/2000/svg">
    <path fill-rule="evenodd" clip-rule="evenodd" d="M3.13955 24.2227C2.90337 24.2227 2.67686 24.3119 2.50985 24.4708C2.34285 24.6296 2.24902 24.8451 2.24902 25.0697C2.24902 25.2944 2.34285 25.5098 2.50985 25.6687C2.67686 25.8275 2.90337 25.9168 3.13955 25.9168L27.9572 25.9168L24.1333 29.5522C23.9661 29.7113 23.8721 29.927 23.8721 30.1519C23.8721 30.3768 23.9661 30.5925 24.1333 30.7516C24.3005 30.9106 24.5273 31 24.7638 31C25.0003 31 25.2271 30.9106 25.3943 30.7516L30.7375 25.6694C30.8204 25.5907 30.8862 25.4973 30.9311 25.3944C30.976 25.2915 30.9991 25.1811 30.9991 25.0697C30.9991 24.9583 30.976 24.848 30.9311 24.7451C30.8862 24.6422 30.8204 24.5487 30.7375 24.47L25.3943 19.3879C25.2271 19.2288 25.0003 19.1395 24.7638 19.1395C24.5273 19.1395 24.3005 19.2288 24.1333 19.3879C23.9661 19.5469 23.8721 19.7626 23.8721 19.9875C23.8721 20.2125 23.9661 20.4282 24.1333 20.5872L27.9572 24.2227L3.13955 24.2227Z" fill="#2B2996" fill-opacity="0.5"/>
    <path d="M27.7069 24.1227L24.0644 20.6597L24.0644 20.6597C23.8779 20.4823 23.7721 20.2407 23.7721 19.9875C23.7721 19.7344 23.8779 19.4928 24.0644 19.3154C24.2507 19.1382 24.5024 19.0395 24.7638 19.0395C25.0252 19.0395 25.2769 19.1382 25.4632 19.3154L30.8063 24.3975L27.7069 24.1227ZM27.7069 24.1227L3.13955 24.1227C2.87842 24.1227 2.62704 24.2213 2.44093 24.3983C2.25466 24.5755 2.14902 24.8169 2.14902 25.0697C2.14902 25.3226 2.25466 25.564 2.44093 25.7411C2.62704 25.9181 2.87842 26.0168 3.13955 26.0168L27.7069 26.0168L24.0644 29.4797L24.0644 29.4797C23.8779 29.6571 23.7721 29.8988 23.7721 30.1519C23.7721 30.405 23.8779 30.6467 24.0644 30.8241C24.2507 31.0013 24.5024 31.1 24.7638 31.1C25.0252 31.1 25.2769 31.0013 25.4632 30.8241L30.8063 25.742L27.7069 24.1227ZM31.0228 25.4344C30.9724 25.5497 30.8988 25.6542 30.8064 25.7419L31.0228 25.4344ZM31.0228 25.4344C31.0731 25.3189 31.0991 25.195 31.0991 25.0697M31.0228 25.4344L31.0991 25.0697M31.0991 25.0697C31.0991 24.9444 31.0731 24.8205 31.0228 24.7051M31.0991 25.0697L31.0228 24.7051M31.0228 24.7051C30.9724 24.5897 30.8988 24.4853 30.8064 24.3976L31.0228 24.7051Z" stroke="#2B2996" stroke-opacity="0.5" stroke-width="0.2"/>
    <path fill-rule="evenodd" clip-rule="evenodd" d="M28.8595 7.7773C29.0957 7.7773 29.3222 7.68806 29.4892 7.52921C29.6562 7.37037 29.75 7.15492 29.75 6.93027C29.75 6.70563 29.6562 6.49018 29.4892 6.33133C29.3222 6.17249 29.0957 6.08325 28.8595 6.08325L4.04179 6.08324L7.86572 2.44779C8.03293 2.28875 8.12688 2.07303 8.12688 1.8481C8.12688 1.62317 8.03293 1.40745 7.86572 1.2484C7.6985 1.08935 7.4717 0.999998 7.23522 0.999998C6.99874 0.999998 6.77194 1.08935 6.60473 1.2484L1.26156 6.33058C1.17862 6.40926 1.11282 6.50273 1.06793 6.60563C1.02304 6.70854 0.999927 6.81886 0.999927 6.93027C0.999927 7.04169 1.02304 7.152 1.06793 7.25491C1.11282 7.35782 1.17862 7.45129 1.26156 7.52997L6.60473 12.6121C6.77194 12.7712 6.99874 12.8605 7.23522 12.8605C7.4717 12.8605 7.6985 12.7712 7.86572 12.6121C8.03293 12.4531 8.12688 12.2374 8.12688 12.0124C8.12688 11.7875 8.03293 11.5718 7.86572 11.4128L4.04179 7.7773L28.8595 7.7773Z" fill="#2B2996" fill-opacity="0.5"/>
    <path d="M4.2921 7.8773L7.93462 11.3403L7.93463 11.3403C8.12112 11.5177 8.22688 11.7593 8.22688 12.0124C8.22688 12.2656 8.12112 12.5072 7.93463 12.6846C7.74832 12.8618 7.49665 12.9605 7.23522 12.9605C6.97379 12.9605 6.72212 12.8618 6.53581 12.6846L1.19273 7.60251L4.2921 7.8773ZM4.2921 7.8773L28.8595 7.8773C29.1206 7.8773 29.372 7.77868 29.5581 7.60167C29.7444 7.4245 29.85 7.1831 29.85 6.93027C29.85 6.67744 29.7444 6.43605 29.5581 6.25888C29.372 6.08187 29.1206 5.98325 28.8595 5.98325L4.2921 5.98324L7.93462 2.52027L7.93464 2.52025C8.12112 2.34288 8.22688 2.10121 8.22688 1.8481C8.22688 1.59498 8.12112 1.35332 7.93464 1.17594C7.74833 0.998732 7.49665 0.899998 7.23522 0.899998C6.97379 0.899998 6.72212 0.998732 6.53581 1.17594L1.19273 6.25803L4.2921 7.8773ZM0.976272 6.56565C1.0266 6.45028 1.10022 6.34582 1.19264 6.25812L0.976272 6.56565ZM0.976272 6.56565C0.92592 6.68107 0.899927 6.80499 0.899927 6.93027M0.976272 6.56565L0.899927 6.93027M0.899927 6.93027C0.899927 7.05556 0.92592 7.17948 0.976272 7.2949M0.899927 6.93027L0.976272 7.2949M0.976272 7.2949C1.0266 7.41027 1.10022 7.51472 1.19264 7.60243L0.976272 7.2949Z" stroke="#2B2996" stroke-opacity="0.5" stroke-width="0.2"/>
</svg>
