<svg width="23" height="23" viewBox="0 0 23 23" fill="none" xmlns="http://www.w3.org/2000/svg">
    <path d="M21.5795 5.54673L17.6662 1.61339C17.4076 1.3561 17.0577 1.21167 16.6929 1.21167C16.3281 1.21167 15.9781 1.3561 15.7195 1.61339L1.84622 15.4667L0.57955 20.9334C0.535854 21.1332 0.537352 21.3403 0.583934 21.5395C0.630516 21.7387 0.721005 21.9249 0.848792 22.0847C0.976578 22.2444 1.13843 22.3736 1.32253 22.4627C1.50663 22.5519 1.70833 22.5988 1.91288 22.6001C2.0082 22.6097 2.10424 22.6097 2.19955 22.6001L7.72622 21.3334L21.5795 7.49339C21.8368 7.2348 21.9813 6.88485 21.9813 6.52006C21.9813 6.15527 21.8368 5.80532 21.5795 5.54673ZM7.05955 20.1334L1.87955 21.2201L3.05955 16.1401L13.4395 5.80006L17.4395 9.80006L7.05955 20.1334ZM18.3329 8.8334L14.3329 4.83339L16.6529 2.52673L20.5862 6.52673L18.3329 8.8334Z" fill="#984DF1" stroke="#984DF1" stroke-width="0.5"/>
</svg>
