<svg width="50" height="50" viewBox="0 0 50 50" fill="none" xmlns="http://www.w3.org/2000/svg">
    <path d="M27.7144 7.34354C29.6958 5.36216 32.3831 4.24902 35.1852 4.24902C37.9873 4.24902 40.6747 5.36216 42.656 7.34354C44.6374 9.32493 45.7506 12.0123 45.7506 14.8144C45.7506 17.6165 44.6374 20.3038 42.656 22.2852L22.2852 42.656C20.3038 44.6374 17.6165 45.7506 14.8144 45.7506C12.0123 45.7506 9.32493 44.6374 7.34354 42.656C5.36216 40.6747 4.24902 37.9873 4.24902 35.1852C4.24902 32.3831 5.36216 29.6958 7.34354 27.7144L27.7144 7.34354ZM40.4456 9.55396C39.0504 8.15887 37.1582 7.37512 35.1852 7.37512C33.2122 7.37512 31.32 8.15887 29.9248 9.55396L20.8435 18.6352L31.3644 29.156L40.4477 20.0748C41.8428 18.6796 42.6265 16.7874 42.6265 14.8144C42.6265 12.8414 41.8428 10.9491 40.4477 9.55396H40.4456ZM22.5165 38.0769C22.7925 37.7807 22.9427 37.3889 22.9356 36.9841C22.9284 36.5793 22.7644 36.1931 22.4782 35.9068C22.1919 35.6206 21.8057 35.4566 21.4009 35.4494C20.9961 35.4423 20.6043 35.5925 20.3081 35.8685L17.306 38.8685C16.7279 39.4473 15.9459 39.7763 15.1279 39.7848C14.3099 39.7934 13.5212 39.4809 12.931 38.9144L12.8956 38.881C12.7476 38.7389 12.5731 38.6273 12.3819 38.5527C12.1908 38.478 11.9868 38.4417 11.7817 38.4459C11.5765 38.45 11.3742 38.4945 11.1862 38.5769C10.9983 38.6593 10.8284 38.7778 10.6863 38.9258C10.5441 39.0738 10.4325 39.2484 10.3579 39.4395C10.2832 39.6307 10.2469 39.8346 10.2511 40.0398C10.2552 40.245 10.2998 40.4473 10.3821 40.6352C10.4645 40.8232 10.583 40.9931 10.731 41.1352L10.7665 41.1685C11.9465 42.3018 13.5238 42.9272 15.1598 42.9105C16.7957 42.8937 18.3599 42.2362 19.5165 41.079L22.5165 38.079V38.0769Z" fill="#6DC5D5"/>
</svg>
