<svg width="32" height="22" viewBox="0 0 32 22" fill="none" xmlns="http://www.w3.org/2000/svg">
    <path d="M30.8005 11.3005C30.7027 11.1336 30.5706 10.9877 30.4123 10.872C30.254 10.7562 30.0729 10.673 29.8801 10.6274C28.5804 10.3228 27.2295 10.2819 25.9126 10.5072C26.4723 8.1274 26.1116 6.26442 25.7385 5.18269C25.6262 4.84234 25.3873 4.55434 25.0679 4.37448C24.7485 4.19463 24.3714 4.13571 24.0097 4.20914C22.7266 4.48976 21.5135 5.01259 20.4401 5.7476C19.6809 3.9881 18.459 2.45092 16.8955 1.28846C16.6371 1.10122 16.3229 1 16 1C15.6771 1 15.3629 1.10122 15.1045 1.28846C13.541 2.45092 12.3191 3.9881 11.5599 5.7476C10.4865 5.01259 9.2734 4.48976 7.99032 4.20914C7.62856 4.13571 7.25148 4.19463 6.9321 4.37448C6.61272 4.55434 6.37376 4.84234 6.26152 5.18269C5.8884 6.26442 5.52771 8.1274 6.0874 10.5072C4.7705 10.2819 3.41957 10.3228 2.11987 10.6274C1.92707 10.673 1.74596 10.7562 1.58768 10.872C1.4294 10.9877 1.2973 11.1336 1.1995 11.3005C1.00229 11.6361 0.94873 12.033 1.05025 12.4062C1.47312 13.8486 2.76661 16.613 6.68439 18.8005C10.6022 20.988 14.122 21 16 21C17.878 21 21.373 21 25.3156 18.8005C29.2583 16.601 30.5269 13.8486 30.9497 12.4062C31.0513 12.033 30.9977 11.6361 30.8005 11.3005ZM24.2211 5.15865C24.3397 5.13185 24.4643 5.14911 24.5703 5.207C24.6763 5.2649 24.7559 5.35919 24.7932 5.47115C25.1539 6.55289 25.5146 8.47596 24.7559 10.9519C24.7435 10.976 24.7435 11 24.731 11.024C24.4329 11.9752 24.0152 12.8874 23.4873 13.7404C22.4232 15.5029 21.0068 17.0432 19.3208 18.2716L19.0098 18.488C20.266 16.8894 21.4725 14.4375 21.4725 10.9038C21.485 9.4679 21.2582 8.03936 20.8008 6.67308C21.8163 5.93864 22.9824 5.42231 24.2211 5.15865ZM15.7015 2.05769C15.7876 1.99528 15.8924 1.96154 16 1.96154C16.1076 1.96154 16.2124 1.99528 16.2985 2.05769C17.5547 2.97115 20.4775 5.63942 20.4775 10.9038C20.4775 13.6803 19.6815 16.0601 18.1268 17.9952C17.5294 18.7527 16.8116 19.414 16 19.9543C15.1884 19.414 14.4706 18.7527 13.8732 17.9952C12.3185 16.0601 11.5225 13.6803 11.5225 10.9038C11.5225 5.63942 14.4453 2.97115 15.7015 2.05769ZM7.20676 5.47115C7.24414 5.35919 7.32373 5.2649 7.42971 5.207C7.5357 5.14911 7.66034 5.13185 7.77888 5.15865C9.01757 5.42231 10.1837 5.93864 11.1992 6.67308C10.7418 8.03936 10.515 9.4679 10.5275 10.9038C10.5275 14.4375 11.734 16.8894 12.9902 18.488L12.6792 18.2716C10.9932 17.0432 9.57683 15.5029 8.51269 13.7404C7.98458 12.8833 7.56689 11.9671 7.26895 11.012L7.24407 10.9519C6.48539 8.47596 6.84608 6.55289 7.20676 5.47115ZM2.00793 12.1418C1.99094 12.0816 1.98659 12.0186 1.99514 11.9567C2.00368 11.8948 2.02495 11.8351 2.05768 11.7813C2.12651 11.6738 2.23212 11.593 2.35618 11.5529C3.68148 11.2568 5.05873 11.2527 6.38589 11.5409C6.70849 12.4735 7.12942 13.3717 7.64207 14.2212C9.24649 16.9135 11.5847 18.8365 13.4752 19.9423C11.2547 19.7322 9.10774 19.0597 7.18189 17.9712C3.56261 15.9519 2.39349 13.4519 2.00793 12.1418ZM29.9921 12.1418C29.6065 13.4519 28.4374 15.9519 24.8181 17.9712C22.8923 19.0597 20.7453 19.7322 18.5248 19.9423C20.4153 18.8365 22.7535 16.9135 24.3579 14.2212C24.8706 13.3717 25.2915 12.4735 25.6141 11.5409C26.9413 11.2527 28.3185 11.2568 29.6438 11.5529C29.7679 11.593 29.8735 11.6738 29.9423 11.7813C29.9751 11.8351 29.9963 11.8948 30.0049 11.9567C30.0134 12.0186 30.0091 12.0816 29.9921 12.1418Z" fill="#2B2996" stroke="#2B2996" stroke-width="0.5"/>
</svg>
