<svg width="224" height="224" viewBox="0 0 224 224" fill="none" xmlns="http://www.w3.org/2000/svg">
    <path d="M192.328 112C192.328 156.364 156.364 192.328 112 192.328C67.6362 192.328 31.6723 156.364 31.6723 112C31.6723 67.6362 67.6362 31.6723 112 31.6723C156.364 31.6723 192.328 67.6362 192.328 112ZM112 193.328C156.916 193.328 193.328 156.916 193.328 112C193.328 67.084 156.916 30.6723 112 30.6723C67.084 30.6723 30.6723 67.084 30.6723 112C30.6723 156.916 67.084 193.328 112 193.328ZM149.709 112C149.709 132.826 132.826 149.709 112 149.709C91.1736 149.709 74.2905 132.826 74.2905 112C74.2905 91.1736 91.1736 74.2905 112 74.2905C132.826 74.2905 149.709 91.1736 149.709 112ZM112 150.709C133.379 150.709 150.709 133.379 150.709 112C150.709 90.6214 133.379 73.2905 112 73.2905C90.6214 73.2905 73.2905 90.6214 73.2905 112C73.2905 133.379 90.6214 150.709 112 150.709ZM167.834 112C167.834 142.837 142.837 167.834 112 167.834C81.1635 167.834 56.1655 142.837 56.1655 112C56.1655 81.1635 81.1635 56.1655 112 56.1655C142.837 56.1655 167.834 81.1635 167.834 112ZM112 168.834C143.389 168.834 168.834 143.389 168.834 112C168.834 80.6112 143.389 55.1655 112 55.1655C80.6112 55.1655 55.1655 80.6112 55.1655 112C55.1655 143.389 80.6112 168.834 112 168.834ZM223.189 112C223.189 173.408 173.408 223.189 112 223.189C50.5919 223.189 0.81081 173.408 0.81081 112C0.81081 50.5919 50.5919 0.81081 112 0.81081C173.408 0.81081 223.189 50.5919 223.189 112ZM257 112C257 192.081 192.081 257 112 257C31.9187 257 -33 192.081 -33 112C-33 31.9187 31.9187 -33 112 -33C192.081 -33 257 31.9187 257 112ZM192.828 112C192.828 156.64 156.64 192.828 112 192.828C67.3601 192.828 31.1723 156.64 31.1723 112C31.1723 67.3601 67.3601 31.1723 112 31.1723C156.64 31.1723 192.828 67.3601 192.828 112Z" stroke="url(#paint0_radial_794_664)" style="mix-blend-mode:overlay"/>
    <defs>
        <radialGradient id="paint0_radial_794_664" cx="0" cy="0" r="1" gradientUnits="userSpaceOnUse" gradientTransform="translate(112 112) rotate(97.4025) scale(256.135)">
            <stop offset="0.115936" stop-color="#E6E6EC" stop-opacity="0.65"/>
            <stop offset="1" stop-color="#E6E6EC" stop-opacity="0"/>
        </radialGradient>
    </defs>
</svg>
