<svg width="65" height="65" viewBox="0 0 65 65" fill="none" xmlns="http://www.w3.org/2000/svg">
    <path d="M48.7497 5.4165H35.208C35.208 6.90609 33.9893 8.12484 32.4997 8.12484C31.0101 8.12484 29.7913 6.90609 29.7913 5.4165H16.2497C13.2705 5.4165 10.833 7.854 10.833 10.8332V54.1665C10.833 57.1457 13.2705 59.5832 16.2497 59.5832H48.7497C51.7288 59.5832 54.1663 57.1457 54.1663 54.1665V10.8332C54.1663 7.854 51.7288 5.4165 48.7497 5.4165Z" fill="#F8ACAC"/>
    <path d="M35.2083 5.4165C35.2083 6.90609 33.9896 8.12484 32.5 8.12484C31.0104 8.12484 29.7917 6.90609 29.7917 5.4165H20.3125V10.8332C20.3125 12.3228 21.5312 13.5415 23.0208 13.5415H41.9792C43.4688 13.5415 44.6875 12.3228 44.6875 10.8332V5.4165H35.2083Z" fill="#E26F54"/>
    <path d="M32.4997 0C29.5205 0 27.083 2.4375 27.083 5.41667C27.083 8.39583 29.5205 10.8333 32.4997 10.8333C35.4788 10.8333 37.9163 8.39583 37.9163 5.41667C37.9163 2.4375 35.4788 0 32.4997 0ZM32.4997 8.125C31.0101 8.125 29.7913 6.90625 29.7913 5.41667C29.7913 3.92708 31.0101 2.70833 32.4997 2.70833C33.9893 2.70833 35.208 3.92708 35.208 5.41667C35.208 6.90625 33.9893 8.125 32.4997 8.125Z" fill="#E26F54"/>
    <path d="M28.4375 27.0832H44.6875V29.7915H28.4375V27.0832ZM20.3125 25.729H25.7292V31.1457H20.3125V25.729Z" fill="white"/>
    <path d="M28.4375 39.2707H44.6875V41.979H28.4375V39.2707ZM20.3125 37.9165H25.7292V43.3332H20.3125V37.9165Z" fill="white"/>
</svg>
