<svg width="32" height="31" viewBox="0 0 32 31" fill="none" xmlns="http://www.w3.org/2000/svg">
    <path fill-rule="evenodd" clip-rule="evenodd" d="M7.77731 28.0899C7.77731 28.3261 7.68807 28.5526 7.52922 28.7196C7.37037 28.8866 7.15492 28.9805 6.93028 28.9805C6.70563 28.9805 6.49018 28.8866 6.33134 28.7196C6.17249 28.5526 6.08325 28.3261 6.08325 28.0899L6.08325 3.27226L2.4478 7.09619C2.28875 7.2634 2.07303 7.35735 1.8481 7.35735C1.62317 7.35735 1.40745 7.2634 1.2484 7.09619C1.08936 6.92897 1 6.70217 1 6.46569C1 6.22921 1.08936 6.00241 1.2484 5.8352L6.33058 0.492026C6.40926 0.409094 6.50273 0.343293 6.60564 0.298399C6.70854 0.253506 6.81886 0.230397 6.93028 0.230397C7.04169 0.230397 7.15201 0.253506 7.25492 0.2984C7.35782 0.343293 7.45129 0.409094 7.52997 0.492026L12.6121 5.8352C12.7712 6.00241 12.8606 6.22921 12.8606 6.46569C12.8606 6.70217 12.7712 6.92897 12.6121 7.09619C12.4531 7.2634 12.2374 7.35735 12.0125 7.35735C11.7875 7.35735 11.5718 7.2634 11.4128 7.09619L7.77731 3.27226L7.77731 28.0899Z" fill="#2B2996" fill-opacity="0.5"/>
    <path d="M7.87731 3.52257L11.3403 7.16509L11.3403 7.1651C11.5177 7.35159 11.7593 7.45735 12.0125 7.45735C12.2656 7.45735 12.5072 7.35159 12.6846 7.1651C12.8618 6.9788 12.9606 6.72712 12.9606 6.46569C12.9606 6.20426 12.8618 5.95259 12.6846 5.76628L7.60252 0.423199L7.87731 3.52257ZM7.87731 3.52257L7.87731 28.0899C7.87731 28.3511 7.77869 28.6025 7.60168 28.7886C7.4245 28.9748 7.18311 29.0805 6.93028 29.0805C6.67745 29.0805 6.43605 28.9748 6.25888 28.7886C6.08187 28.6025 5.98325 28.3511 5.98325 28.0899L5.98325 3.52257L2.52027 7.16509L2.52026 7.1651C2.34288 7.35159 2.10122 7.45735 1.8481 7.45735C1.59499 7.45735 1.35332 7.35159 1.17595 7.1651C0.998736 6.97879 0.900002 6.72712 0.900002 6.46569C0.900002 6.20426 0.998736 5.95259 1.17595 5.76628L6.25804 0.423199L7.87731 3.52257ZM6.56565 0.206742C6.45028 0.257071 6.34583 0.330689 6.25812 0.423108L6.56565 0.206742ZM6.56565 0.206742C6.68107 0.15639 6.80499 0.130396 6.93028 0.130396M6.56565 0.206742L6.93028 0.130396M6.93028 0.130396C7.05556 0.130396 7.17948 0.15639 7.2949 0.206742M6.93028 0.130396L7.2949 0.206742M7.2949 0.206742C7.41027 0.257071 7.51473 0.330689 7.60243 0.423108L7.2949 0.206742Z" stroke="#2B2996" stroke-opacity="0.5" stroke-width="0.2"/>
    <path fill-rule="evenodd" clip-rule="evenodd" d="M24.2227 2.371C24.2227 2.13481 24.3119 1.9083 24.4708 1.7413C24.6296 1.57429 24.8451 1.48047 25.0697 1.48047C25.2944 1.48047 25.5098 1.57429 25.6687 1.7413C25.8275 1.9083 25.9168 2.13481 25.9168 2.371L25.9168 27.1887L29.5522 23.3648C29.7113 23.1975 29.927 23.1036 30.1519 23.1036C30.3768 23.1036 30.5925 23.1975 30.7516 23.3648C30.9106 23.532 31 23.7588 31 23.9952C31 24.2317 30.9106 24.4585 30.7516 24.6257L25.6694 29.9689C25.5907 30.0518 25.4973 30.1176 25.3944 30.1625C25.2915 30.2074 25.1811 30.2305 25.0697 30.2305C24.9583 30.2305 24.848 30.2074 24.7451 30.1625C24.6422 30.1176 24.5487 30.0518 24.47 29.9689L19.3879 24.6257C19.2288 24.4585 19.1394 24.2317 19.1394 23.9952C19.1394 23.7588 19.2288 23.532 19.3879 23.3648C19.5469 23.1975 19.7626 23.1036 19.9875 23.1036C20.2125 23.1036 20.4282 23.1975 20.5872 23.3648L24.2227 27.1887L24.2227 2.371Z" fill="#2B2996" fill-opacity="0.5"/>
    <path d="M24.1227 26.9384L20.6597 23.2959L20.6597 23.2958C20.4823 23.1094 20.2407 23.0036 19.9875 23.0036C19.7344 23.0036 19.4928 23.1094 19.3154 23.2958C19.1382 23.4821 19.0394 23.7338 19.0394 23.9952C19.0394 24.2567 19.1382 24.5083 19.3154 24.6947L24.3975 30.0377L24.1227 26.9384ZM24.1227 26.9384L24.1227 2.371C24.1227 2.10986 24.2213 1.85848 24.3983 1.67238C24.5755 1.48611 24.8169 1.38047 25.0697 1.38047C25.3226 1.38047 25.564 1.48611 25.7411 1.67238C25.9181 1.85848 26.0168 2.10986 26.0168 2.371L26.0168 26.9384L29.4797 23.2959L29.4797 23.2958C29.6571 23.1094 29.8988 23.0036 30.1519 23.0036C30.405 23.0036 30.6467 23.1094 30.8241 23.2958C31.0013 23.4821 31.1 23.7338 31.1 23.9952C31.1 24.2567 31.0013 24.5084 30.8241 24.6947L25.742 30.0377L24.1227 26.9384ZM25.4343 30.2542C25.5497 30.2039 25.6542 30.1302 25.7419 30.0378L25.4343 30.2542ZM25.4343 30.2542C25.3189 30.3045 25.195 30.3305 25.0697 30.3305M25.4343 30.2542L25.0697 30.3305M25.0697 30.3305C24.9444 30.3305 24.8205 30.3045 24.7051 30.2542M25.0697 30.3305L24.7051 30.2542M24.7051 30.2542C24.5897 30.2039 24.4853 30.1302 24.3976 30.0378L24.7051 30.2542Z" stroke="#2B2996" stroke-opacity="0.5" stroke-width="0.2"/>
</svg>
